<svg width="38" height="36" viewBox="0 0 38 36" fill="none" xmlns="http://www.w3.org/2000/svg">
<path d="M37.7065 31.9932L37.1644 31.4795C36.9471 31.2735 36.5946 31.2736 36.3773 31.4795C36.1598 31.6854 36.1598 32.0193 36.3772 32.2252L36.8406 32.6642L34.4791 34.9015L30.4643 31.0981L32.8258 28.8608L34.6988 30.6352C34.9163 30.8411 35.2687 30.8411 35.4861 30.6352C35.7034 30.4292 35.7034 30.0954 35.4861 29.8894L33.2205 27.7431C33.2201 27.7428 33.2198 27.7424 33.2195 27.7421L31.6451 26.2505C31.6446 26.2501 31.6442 26.2498 31.6438 26.2494L30.2543 24.9331C30.0651 24.7537 29.8134 24.6549 29.5457 24.6549C29.278 24.6549 29.0264 24.7537 28.8372 24.933L28.7585 25.0076L26.7667 23.1202C28.1904 21.435 29.2186 19.4381 29.7176 17.2562H33.6397C33.9472 17.2562 34.1964 17.0202 34.1964 16.7289C34.1964 16.4376 33.9472 16.2015 33.6397 16.2015H29.915C29.964 15.8662 30.0007 15.5271 30.0245 15.1848H36.293C36.6005 15.1848 36.8496 14.9487 36.8496 14.6574C36.8496 14.3661 36.6005 14.1301 36.293 14.1301H30.0574C30.0547 13.7888 30.0398 13.4498 30.0125 13.1132H33.6398C33.9473 13.1132 34.1964 12.8772 34.1964 12.5859C34.1964 12.2946 33.9473 12.0585 33.6398 12.0585H29.8854C29.4965 9.63422 28.4564 7.3665 26.8198 5.40773C26.629 5.17943 26.279 5.1409 26.0379 5.32153C25.7969 5.5023 25.7561 5.83397 25.9469 6.06234C27.9085 8.41001 28.9453 11.2372 28.9453 14.2383C28.9453 21.5077 22.7026 27.4219 15.0293 27.4219C7.35597 27.4219 1.11328 21.5077 1.11328 14.2383C1.11328 6.96881 7.35597 1.05469 15.0293 1.05469C18.4981 1.05469 21.8211 2.27095 24.386 4.4794C24.6134 4.67543 24.9656 4.6594 25.1723 4.44389C25.379 4.22838 25.3623 3.89482 25.1347 3.69893C22.3646 1.31365 18.7757 0 15.0293 0C6.74211 0 0 6.38726 0 14.2383C0 21.1698 5.25573 26.9593 12.1899 28.2206V31.7783C12.1899 32.0696 12.4391 32.3056 12.7466 32.3056C13.054 32.3056 13.3032 32.0696 13.3032 31.7783V28.3821C13.6574 28.4207 14.0153 28.4477 14.3765 28.4624V34.2582C14.3765 34.5495 14.6257 34.7856 14.9332 34.7856C15.2407 34.7856 15.4898 34.5495 15.4898 34.2582V28.4692C15.8508 28.4589 16.2089 28.4371 16.5632 28.4029V31.7783C16.5632 32.0696 16.8123 32.3056 17.1198 32.3056C17.4273 32.3056 17.6765 32.0696 17.6765 31.7783V28.2554C20.1897 27.8305 22.4881 26.8113 24.4047 25.3579L26.397 27.245L26.3183 27.3195C26.129 27.4988 26.0247 27.7372 26.0247 27.9908C26.0247 28.2444 26.129 28.4827 26.3182 28.662L27.7082 29.9787C27.7085 29.979 27.7087 29.9793 27.709 29.9796L29.2834 31.4711C29.2837 31.4714 29.2841 31.4717 29.2844 31.472L33.7704 35.7218C33.9597 35.9013 34.2113 36 34.479 36C34.7467 36 34.9982 35.9013 35.1876 35.722L37.7065 33.3356C37.8958 33.1562 38 32.9179 38 32.6643C38 32.4107 37.8958 32.1723 37.7065 31.9932ZM26.0375 23.9209L27.9712 25.7532L27.184 26.499L25.2499 24.667C25.522 24.4276 25.7847 24.1787 26.0375 23.9209ZM29.677 30.3524L28.8898 29.6066L31.2514 27.3694L32.0385 28.1152L29.677 30.3524ZM29.5458 25.7534L30.4642 26.6235L28.1026 28.8607L27.1842 27.9907L29.5458 25.7534Z" fill="url(#paint0_linear)"/>
<path d="M7.27855 23.8916C9.50801 25.4792 12.1863 26.3353 15.0303 26.3672C22.0897 26.3672 27.833 20.9262 27.833 14.2383C27.833 7.55037 22.0897 2.10938 15.0303 2.10938C11.6234 2.10938 8.419 3.37268 6.00755 5.66655C3.60628 7.95066 2.26389 10.9929 2.22752 14.2327C2.19412 17.2152 3.33805 20.082 5.44854 22.3049C5.65412 22.5214 6.00607 22.5391 6.23466 22.3443C6.46326 22.1496 6.48189 21.8161 6.2763 21.5996C4.35285 19.5737 3.3103 16.9614 3.3408 14.2439C3.37398 11.2807 4.60118 8.49888 6.79635 6.41088C8.99738 4.31712 11.9215 3.16406 15.0303 3.16406C21.4759 3.16406 26.7197 8.13192 26.7197 14.2383C26.7197 20.3446 21.4759 25.3125 15.0369 25.3126C12.4378 25.2833 9.98635 24.5004 7.94741 23.0486C7.70182 22.8734 7.3527 22.9205 7.16804 23.1533C6.98323 23.3861 7.03274 23.7167 7.27855 23.8916Z" fill="url(#paint1_linear)"/>
<path d="M17.1449 4.81641H13.2855C12.8149 4.81641 12.432 5.17915 12.432 5.625V7.48828H8.83241C8.36179 7.48828 7.97889 7.85102 7.97889 8.29688V13.957H7.23389C6.9264 13.957 6.67725 14.1931 6.67725 14.4844C6.67725 14.7757 6.9264 15.0117 7.23389 15.0117H23.1966C23.504 15.0117 23.7532 14.7757 23.7532 14.4844C23.7532 14.1931 23.504 13.957 23.1966 13.957H22.4515V10.9688C22.4515 10.5229 22.0687 10.1602 21.598 10.1602H17.9984V5.625C17.9984 5.17915 17.6155 4.81641 17.1449 4.81641ZM9.09218 8.54297H12.432V13.957H9.09218V8.54297ZM13.5453 5.87109H16.8851V13.957H13.5453V5.87109ZM21.3383 11.2148V13.957H17.9984V11.2148H21.3383Z" fill="url(#paint2_linear)"/>
<path d="M21.4479 19.48H18.8273L17.6368 16.597C17.5526 16.3933 17.3465 16.2614 17.1135 16.2617C16.8825 16.2637 16.6768 16.4006 16.5965 16.6058L14.9696 20.7619L13.8326 17.7087C13.7598 17.5132 13.5729 17.3762 13.3549 17.3587C13.1371 17.3408 12.9283 17.4461 12.8216 17.627L11.7297 19.4799H9.11597C8.80848 19.4799 8.55933 19.716 8.55933 20.0073C8.55933 20.2986 8.80848 20.5346 9.11597 20.5346H12.0564C12.2581 20.5346 12.4441 20.4312 12.5424 20.2643L13.1928 19.1608L14.4316 22.4872C14.5096 22.6967 14.7176 22.8373 14.9521 22.8392H14.9566C15.1891 22.8392 15.3975 22.7021 15.4784 22.4951L17.1323 18.2702L17.9288 20.1994C18.0123 20.4016 18.218 20.5347 18.4472 20.5347H21.4479C21.7553 20.5347 22.0045 20.2986 22.0045 20.0073C22.0045 19.716 21.7553 19.48 21.4479 19.48Z" fill="url(#paint3_linear)"/>
<defs>
<linearGradient id="paint0_linear" x1="-1.63218e-07" y1="15.5342" x2="38.0004" y2="15.6412" gradientUnits="userSpaceOnUse">
<stop stop-color="#7AC8FF"/>
<stop offset="0.500395" stop-color="#547BED"/>
<stop offset="1" stop-color="#FF719D"/>
</linearGradient>
<linearGradient id="paint1_linear" x1="2.22681" y1="12.5768" x2="27.8333" y2="12.6489" gradientUnits="userSpaceOnUse">
<stop stop-color="#7AC8FF"/>
<stop offset="0.500395" stop-color="#547BED"/>
<stop offset="1" stop-color="#FF719D"/>
</linearGradient>
<linearGradient id="paint2_linear" x1="6.67725" y1="9.21575" x2="23.7532" y2="9.29201" gradientUnits="userSpaceOnUse">
<stop stop-color="#7AC8FF"/>
<stop offset="0.500395" stop-color="#547BED"/>
<stop offset="1" stop-color="#FF719D"/>
</linearGradient>
<linearGradient id="paint3_linear" x1="8.55933" y1="19.0999" x2="22.0043" y2="19.1732" gradientUnits="userSpaceOnUse">
<stop stop-color="#7AC8FF"/>
<stop offset="0.500395" stop-color="#547BED"/>
<stop offset="1" stop-color="#FF719D"/>
</linearGradient>
</defs>
</svg>
