<svg width="40" height="40" viewBox="0 0 40 40" fill="none" xmlns="http://www.w3.org/2000/svg">
<g clip-path="url(#clip0)">
<path d="M25.1055 5.22642C20.7056 3.039 15.4055 3.87537 11.9172 7.30754C7.86284 11.2964 7.45706 17.6567 10.9733 22.1021C11.0976 22.2592 11.2834 22.3414 11.4712 22.3414C11.6065 22.3414 11.7429 22.2988 11.8579 22.2106C12.1327 22.0002 12.1821 21.6106 11.9683 21.3403C8.84183 17.3877 9.20316 11.732 12.8087 8.18457C15.9111 5.13211 20.6242 4.38821 24.537 6.33343C24.8477 6.48808 25.2269 6.36525 25.3839 6.05956C25.5409 5.75387 25.4163 5.38084 25.1055 5.22642Z" fill="url(#paint0_linear)"/>
<path d="M30.1392 10.1801C29.9822 9.87437 29.6032 9.7517 29.2923 9.90604C28.9816 10.0605 28.8568 10.4334 29.0137 10.7393C30.9895 14.5884 30.233 19.2249 27.1313 22.2764C23.5257 25.8237 17.7773 26.1792 13.76 23.1032C13.4851 22.8929 13.0892 22.9415 12.8753 23.2118C12.6615 23.4821 12.711 23.8717 12.9857 24.0821C15.0439 25.658 17.5057 26.4331 19.9597 26.4331C22.893 26.4331 25.8153 25.3254 28.0229 23.1534C31.5105 19.7222 32.3609 14.5086 30.1392 10.1801Z" fill="url(#paint1_linear)"/>
<path d="M28.5116 7.81789C28.3555 7.64402 28.1914 7.47231 28.024 7.30766C27.8566 7.14294 27.6821 6.98152 27.5054 6.82787C27.2445 6.60096 26.8461 6.62525 26.6157 6.8819C26.385 7.13848 26.4095 7.53042 26.6704 7.75724C26.8278 7.89406 26.9833 8.03796 27.1325 8.18469C27.2816 8.3315 27.4278 8.48439 27.567 8.63927C27.6915 8.77794 27.8651 8.84873 28.0395 8.84873C28.1879 8.84873 28.3368 8.79746 28.4567 8.69323C28.7177 8.46648 28.7422 8.07454 28.5116 7.81789Z" fill="url(#paint2_linear)"/>
<path d="M34.8486 16.3422C35.2689 15.6637 35.2689 14.821 34.8485 14.1426L34.0192 12.8047C33.9099 12.6283 33.8677 12.4189 33.9003 12.2151L34.1475 10.6699C34.2735 9.88239 33.9447 9.10198 33.2896 8.63303L32.0043 7.71326C31.8344 7.59159 31.7136 7.4141 31.6642 7.21318L31.2899 5.69133C31.0999 4.9183 30.4937 4.32198 29.7081 4.13489L28.1612 3.76655C27.957 3.71789 27.7764 3.59906 27.6529 3.43188L26.7179 2.16706C26.2413 1.52247 25.4481 1.19879 24.6479 1.32285L23.0768 1.56606C22.8696 1.59811 22.6567 1.5566 22.4777 1.44914L21.1175 0.632991C20.428 0.219303 19.5714 0.21938 18.8819 0.632991L17.5219 1.44891C17.3428 1.55645 17.1301 1.5978 16.9227 1.56583L15.352 1.32262C14.5519 1.19872 13.7585 1.52224 13.2819 2.16683L12.3471 3.43134C12.2234 3.59852 12.043 3.71736 11.8387 3.76601L10.2919 4.13427C9.50631 4.32121 8.90006 4.9176 8.7099 5.69056L8.33552 7.21249C8.28607 7.41341 8.16537 7.59105 7.99537 7.71257L6.70982 8.63249C6.05466 9.10129 5.72591 9.88163 5.85177 10.6691L6.09896 12.2149C6.13154 12.4189 6.08935 12.6282 5.98013 12.8044L5.15067 14.1427C4.73036 14.8211 4.73036 15.6639 5.15075 16.3422L5.98005 17.6803C6.08927 17.8566 6.13154 18.066 6.09888 18.2698L5.85169 19.8151C5.72568 20.6025 6.0545 21.383 6.70966 21.8519L7.9949 22.7717C8.16482 22.8932 8.2856 23.0708 8.33506 23.2718L8.70935 24.7936C8.89935 25.5666 9.50553 26.163 10.2912 26.35L10.9371 26.5039L6.56568 36.0977C6.47279 36.3016 6.49849 36.5388 6.6331 36.7188C6.76763 36.8989 6.99005 36.9938 7.21568 36.9672L10.733 36.5534L12.7593 39.4121C12.8779 39.5793 13.0714 39.6775 13.2762 39.6775C13.2958 39.6775 13.3156 39.6766 13.3353 39.6748C13.5614 39.6539 13.7587 39.5149 13.8516 39.3111L18.316 29.5124L18.8817 29.8518C19.2265 30.0586 19.613 30.162 19.9995 30.162C20.3861 30.162 20.7726 30.0586 21.1173 29.8518L21.7034 29.5002L26.1735 39.3111C26.2664 39.515 26.4636 39.6539 26.6898 39.6748C26.7095 39.6767 26.7293 39.6776 26.7489 39.6776C26.9537 39.6776 27.1473 39.5794 27.2658 39.4122L29.292 36.5535L32.8094 36.9673C33.0349 36.9936 33.2574 36.8989 33.392 36.7189C33.5265 36.5389 33.5524 36.3017 33.4594 36.0978L29.0857 26.4986L29.7074 26.3507C30.4929 26.1637 31.0992 25.5673 31.2893 24.7944L31.6637 23.2724C31.7131 23.0715 31.8339 22.8939 32.0039 22.7724L33.2894 21.8524C33.9446 21.3836 34.2733 20.6033 34.1474 19.8158L33.9003 18.27C33.8677 18.0661 33.9099 17.8567 34.0191 17.6805L34.8486 16.3422ZM13.1565 37.8042L11.5508 35.5387C11.4176 35.3509 11.19 35.2503 10.9589 35.2777L8.17146 35.6056L12.1542 26.8643C12.227 26.9169 12.2923 26.98 12.3462 27.053L13.2812 28.3178C13.37 28.4379 13.4698 28.5468 13.5787 28.6439L11.4823 33.2448C11.34 33.5574 11.482 33.9243 11.7997 34.0644C11.8834 34.1013 11.971 34.1188 12.0571 34.1188C12.2979 34.1188 12.5279 33.9823 12.6326 33.7522L14.7216 29.1676C14.9271 29.1954 15.1387 29.1949 15.3512 29.162L16.9223 28.9188C17.0163 28.9043 17.1114 28.9056 17.204 28.9206L13.1565 37.8042ZM31.8538 35.6054L29.0663 35.2777C28.8349 35.2504 28.6075 35.3509 28.4744 35.5387L26.8686 37.8042L22.8195 28.9172C22.9044 28.9058 22.991 28.9058 23.0767 28.919L24.6473 29.1622C24.8683 29.1964 25.0885 29.1954 25.3019 29.1641L27.3924 33.7523C27.4973 33.9825 27.7271 34.1189 27.9679 34.1189C28.0541 34.1189 28.1417 34.1015 28.2253 34.0645C28.543 33.9245 28.6851 33.5575 28.5427 33.2449L26.4384 28.6265C26.5399 28.5338 26.6337 28.4312 26.7174 28.318L27.6522 27.0535C27.7111 26.9738 27.7833 26.9055 27.8644 26.8502L31.8538 35.6054ZM33.7721 15.6964L32.9427 17.0347C32.6782 17.4616 32.5759 17.9688 32.6549 18.4627L32.9021 20.0084C32.954 20.3335 32.8182 20.6557 32.5478 20.8492L31.2622 21.7692C30.8507 22.0637 30.5581 22.494 30.4384 22.9806L30.064 24.5025C29.9855 24.8216 29.7353 25.0678 29.411 25.145L27.8641 25.5133C27.3694 25.631 26.932 25.919 26.6327 26.3239L25.6978 27.5884C25.5011 27.8546 25.1738 27.988 24.8432 27.9368L23.2726 27.6936C22.7705 27.6159 22.2549 27.7165 21.8209 27.9768L20.461 28.7927C20.1764 28.9634 19.8227 28.9634 19.5382 28.7927L18.178 27.9767C17.8397 27.7737 17.4519 27.668 17.0594 27.668C16.9485 27.668 16.837 27.6764 16.7265 27.6936L15.1553 27.9368C14.8248 27.988 14.4975 27.8543 14.3008 27.5883L13.3657 26.3235C13.0663 25.9186 12.629 25.6307 12.1344 25.5129L10.5876 25.1446C10.2633 25.0673 10.013 24.8212 9.93451 24.5021L9.56021 22.9802C9.44053 22.4935 9.14795 22.0631 8.73631 21.7686L7.45115 20.8487C7.18068 20.6552 7.04498 20.333 7.09701 20.0079L7.34419 18.4626C7.42318 17.9686 7.32099 17.4614 7.05638 17.0345L6.22708 15.6963C6.05357 15.4163 6.05357 15.0683 6.22708 14.7884L7.05654 13.4501C7.32107 13.0232 7.42334 12.516 7.34435 12.0221L7.09716 10.4763C7.04521 10.1513 7.18099 9.82913 7.45138 9.63558L8.73701 8.71558C9.14849 8.42104 9.44115 7.99082 9.56084 7.50419L9.93521 5.98226C10.0137 5.66319 10.2639 5.417 10.5883 5.33975L12.1351 4.97149C12.6298 4.85373 13.0672 4.56579 13.3665 4.16087L14.3013 2.89636C14.498 2.63025 14.8254 2.49658 15.1559 2.54785L16.7266 2.79105C17.2287 2.86892 17.7443 2.76823 18.1782 2.50788L19.5381 1.69196C19.8227 1.52132 20.1765 1.52132 20.4609 1.69196L21.8212 2.50796C22.2551 2.76838 22.7707 2.869 23.2727 2.79121L24.8438 2.54801C25.1742 2.49705 25.5016 2.63048 25.6984 2.89651L26.6334 4.16133C26.9328 4.56618 27.3701 4.85411 27.8647 4.97187L29.4116 5.34021C29.7359 5.41746 29.9861 5.66358 30.0646 5.98272L30.4389 7.50457C30.5586 7.99128 30.8512 8.42165 31.2628 8.7162L32.5481 9.63597C32.8185 9.82951 32.9542 10.1517 32.9022 10.4768L32.655 12.0221C32.576 12.5161 32.6782 13.0233 32.9428 13.4502L33.7721 14.7884C33.9457 15.0684 33.9457 15.4164 33.7721 15.6964Z" fill="url(#paint3_linear)"/>
<path d="M27.3756 13.3129C27.2367 12.8921 26.8731 12.5984 26.4265 12.5463L22.6334 12.1037L21.0336 8.69132C20.8452 8.28962 20.4489 8.04004 19.9992 8.04004C19.5496 8.04004 19.1532 8.28962 18.9648 8.69132L17.365 12.1038L13.5719 12.5463C13.1254 12.5984 12.7616 12.8922 12.6228 13.313C12.4839 13.7335 12.6026 14.1816 12.9326 14.4819L15.7369 17.0334L14.9926 20.7194C14.905 21.1534 15.0765 21.5844 15.4404 21.8444C15.6411 21.9878 15.874 22.0605 16.1083 22.0605C16.2989 22.0605 16.4903 22.0125 16.6662 21.9156L19.9991 20.0802L23.3321 21.9156C23.7245 22.1318 24.1941 22.1045 24.558 21.8445C24.9218 21.5844 25.0934 21.1533 25.0057 20.7194L24.2613 17.0335L27.0656 14.4819C27.3958 14.1816 27.5145 13.7337 27.3756 13.3129ZM23.1464 16.3585C22.9855 16.505 22.9134 16.7232 22.9561 16.9347L23.7178 20.7066L20.307 18.8282C20.2114 18.7756 20.1053 18.7492 19.9991 18.7492C19.893 18.7492 19.7869 18.7755 19.6912 18.8282L16.2804 20.7066L17.0422 16.9347C17.085 16.7231 17.0129 16.505 16.8519 16.3585L13.9822 13.7474L17.8639 13.2946C18.0815 13.2692 18.2702 13.1343 18.3621 12.9386L19.9992 9.44652L21.6363 12.9386C21.7282 13.1343 21.9168 13.2692 22.1345 13.2946L26.0161 13.7474L23.1464 16.3585Z" fill="url(#paint4_linear)"/>
</g>
<defs>
<linearGradient id="paint0_linear" x1="8.58374" y1="11.925" x2="25.452" y2="11.9664" gradientUnits="userSpaceOnUse">
<stop stop-color="#7AC8FF"/>
<stop offset="0.500395" stop-color="#547BED"/>
<stop offset="1" stop-color="#FF719D"/>
</linearGradient>
<linearGradient id="paint1_linear" x1="12.7424" y1="16.9997" x2="31.3658" y2="17.0554" gradientUnits="userSpaceOnUse">
<stop stop-color="#7AC8FF"/>
<stop offset="0.500395" stop-color="#547BED"/>
<stop offset="1" stop-color="#FF719D"/>
</linearGradient>
<linearGradient id="paint2_linear" x1="26.4575" y1="7.61148" x2="28.6697" y2="7.61748" gradientUnits="userSpaceOnUse">
<stop stop-color="#7AC8FF"/>
<stop offset="0.500395" stop-color="#547BED"/>
<stop offset="1" stop-color="#FF719D"/>
</linearGradient>
<linearGradient id="paint3_linear" x1="4.83545" y1="17.3046" x2="35.1643" y2="17.367" gradientUnits="userSpaceOnUse">
<stop stop-color="#7AC8FF"/>
<stop offset="0.500395" stop-color="#547BED"/>
<stop offset="1" stop-color="#FF719D"/>
</linearGradient>
<linearGradient id="paint4_linear" x1="12.5657" y1="14.09" x2="27.4329" y2="14.132" gradientUnits="userSpaceOnUse">
<stop stop-color="#7AC8FF"/>
<stop offset="0.500395" stop-color="#547BED"/>
<stop offset="1" stop-color="#FF719D"/>
</linearGradient>
<clipPath id="clip0">
<rect width="40" height="39.3548" fill="white" transform="translate(0 0.322754)"/>
</clipPath>
</defs>
</svg>
