<svg width="40" height="40" viewBox="0 0 40 40" fill="none" xmlns="http://www.w3.org/2000/svg">
<g clip-path="url(#clip0)">
<path d="M33.0298 12.7606H30.1213V9.71174C30.1213 7.9646 29.4531 6.30024 28.2399 5.02544C28.0144 4.78839 27.6362 4.77624 27.3955 4.99815C27.1546 5.22006 27.1422 5.59201 27.3677 5.82891C28.3728 6.88511 28.9264 8.26406 28.9264 9.71174V12.7606H16.7692C12.9259 12.7606 9.79906 15.837 9.79906 19.6184V21.7213H8.86328C8.49102 21.7213 8.14094 21.8639 7.87758 22.123L4.70664 25.2428V22.1044C4.70664 21.6236 4.445 21.1718 4.02367 20.9253C2.27883 19.9046 1.19484 18.0324 1.19484 16.0392V9.71174C1.19484 6.57857 3.78562 4.02958 6.97016 4.02958H23.1511C23.8975 4.02958 24.6235 4.16739 25.309 4.43934C25.615 4.56056 25.9631 4.41498 26.0865 4.11397C26.2098 3.81289 26.0618 3.47038 25.7558 3.34901C24.9277 3.02049 24.0513 2.854 23.1511 2.854H6.97016C3.1268 2.854 0 5.93037 0 9.71174V16.0392C0 18.4449 1.30781 20.7043 3.41305 21.9358C3.47398 21.9715 3.5118 22.036 3.5118 22.1044V25.5266C3.5118 25.9561 3.77234 26.3397 4.17563 26.5041C4.44477 26.6314 4.9943 26.613 5.34758 26.2748L8.72242 22.9543C8.76008 22.9173 8.81008 22.8969 8.86328 22.8969H9.79906V25.9458C9.79906 26.8714 9.98344 27.7695 10.347 28.6154C10.4755 28.9143 10.8261 29.0539 11.13 28.9277C11.4339 28.8013 11.576 28.4564 11.4476 28.1574C11.1466 27.4573 10.994 26.7133 10.994 25.9458V19.6185C10.994 16.4852 13.5848 13.9362 16.7693 13.9362H33.0298C36.2144 13.9362 38.8052 16.4852 38.8052 19.6185V25.9458C38.8052 27.9468 37.7652 29.763 36.0233 30.8042C35.6127 31.0496 35.3577 31.4975 35.3577 31.973V35.8067L31.5187 32.0296C31.2555 31.7706 30.9054 31.6279 30.533 31.6279H16.7692C15.3199 31.6279 13.9341 31.0976 12.8668 30.1346C12.6237 29.9153 12.2458 29.9313 12.0227 30.1705C11.7996 30.4098 11.8159 30.7816 12.0591 31.001C13.3473 32.1634 15.02 32.8036 16.7691 32.8036H30.5329C30.5853 32.8036 30.6366 32.8245 30.6737 32.861L34.7166 36.8387C35.0288 37.0747 35.3339 37.2572 35.8884 37.068C36.2917 36.9035 36.5523 36.5199 36.5523 36.0905V31.9729C36.5523 31.9053 36.5873 31.8424 36.6435 31.8088C38.7453 30.5526 40 28.3609 40 25.9458V19.6184C40 15.837 36.8732 12.7606 33.0298 12.7606Z" fill="url(#paint0_linear)"/>
<path d="M23.2123 26.7787C22.862 26.2917 22.2238 25.9652 21.4959 25.9652C20.3923 25.9652 19.4945 26.7158 19.4945 27.6384C19.4945 28.5609 20.3923 29.3115 21.4959 29.3115C22.4644 29.3115 23.2741 28.7336 23.4581 27.9686C24.3394 27.6034 25.0331 26.8757 25.3342 25.9551C26.2067 25.7597 26.8601 24.9907 26.8601 24.0739V21.9543C26.8601 21.0692 26.2512 20.3219 25.424 20.0953C25.2293 18.9148 24.6396 17.8315 23.7356 17.0128C22.727 16.0993 21.416 15.5962 20.0443 15.5962C17.345 15.5962 15.0873 17.5091 14.6641 20.0954C13.8372 20.3222 13.2285 21.0694 13.2285 21.9542V24.0738C13.2285 25.1379 14.1084 26.0036 15.19 26.0036C16.2716 26.0036 17.1515 25.1379 17.1515 24.0738V21.9542C17.1515 21.1245 16.6164 20.4154 15.868 20.1433C16.2553 18.1959 17.9855 16.7718 20.0443 16.7718C22.077 16.7718 23.829 18.2208 24.2191 20.1439C23.4714 20.4164 22.9371 21.125 22.9371 21.9542V24.0738C22.9371 24.8581 23.4154 25.5342 24.0999 25.8358C23.91 26.2373 23.5976 26.5653 23.2123 26.7787ZM21.4959 28.136C21.0205 28.136 20.6893 27.8738 20.6893 27.6385C20.6893 27.4031 21.0205 27.1408 21.4959 27.1408C21.9713 27.1408 22.3027 27.4031 22.3027 27.6385C22.3027 27.8738 21.9712 28.136 21.4959 28.136ZM15.9566 24.0739C15.9566 24.4898 15.6127 24.8282 15.19 24.8282C14.7673 24.8282 14.4234 24.4898 14.4234 24.0739V21.9544C14.4234 21.5385 14.7673 21.2001 15.19 21.2001C15.6127 21.2001 15.9566 21.5385 15.9566 21.9544V24.0739ZM24.132 21.9544C24.132 21.5385 24.4759 21.2001 24.8986 21.2001C25.3213 21.2001 25.6652 21.5385 25.6652 21.9544V24.0739C25.6652 24.4898 25.3213 24.8282 24.8986 24.8282C24.4759 24.8282 24.132 24.4898 24.132 24.0739V21.9544Z" fill="url(#paint1_linear)"/>
<path d="M28.4136 18.9275H33.1723C33.5022 18.9275 33.7697 18.6644 33.7697 18.3397C33.7697 18.0151 33.5022 17.752 33.1723 17.752H28.4136C28.0837 17.752 27.8162 18.0151 27.8162 18.3397C27.8162 18.6644 28.0837 18.9275 28.4136 18.9275Z" fill="url(#paint2_linear)"/>
<path d="M28.4136 21.5589H32.0829C32.4128 21.5589 32.6803 21.2958 32.6803 20.9711C32.6803 20.6464 32.4128 20.3833 32.0829 20.3833H28.4136C28.0837 20.3833 27.8162 20.6464 27.8162 20.9711C27.8162 21.2958 28.0837 21.5589 28.4136 21.5589Z" fill="url(#paint3_linear)"/>
<path d="M5.87752 11.4187C6.36944 11.4187 6.76822 11.0263 6.76822 10.5424C6.76822 10.0584 6.36944 9.66602 5.87752 9.66602C5.3856 9.66602 4.98682 10.0584 4.98682 10.5424C4.98682 11.0263 5.3856 11.4187 5.87752 11.4187Z" fill="url(#paint4_linear)"/>
<path d="M8.57576 11.4187C9.06768 11.4187 9.46646 11.0263 9.46646 10.5424C9.46646 10.0584 9.06768 9.66602 8.57576 9.66602C8.08384 9.66602 7.68506 10.0584 7.68506 10.5424C7.68506 11.0263 8.08384 11.4187 8.57576 11.4187Z" fill="url(#paint5_linear)"/>
<path d="M11.2567 11.4187C11.7486 11.4187 12.1474 11.0263 12.1474 10.5424C12.1474 10.0584 11.7486 9.66602 11.2567 9.66602C10.7647 9.66602 10.366 10.0584 10.366 10.5424C10.366 11.0263 10.7647 11.4187 11.2567 11.4187Z" fill="url(#paint6_linear)"/>
</g>
<defs>
<linearGradient id="paint0_linear" x1="-1.71808e-07" y1="17.6515" x2="40.0003" y2="17.7759" gradientUnits="userSpaceOnUse">
<stop stop-color="#7AC8FF"/>
<stop offset="0.500395" stop-color="#547BED"/>
<stop offset="1" stop-color="#FF719D"/>
</linearGradient>
<linearGradient id="paint1_linear" x1="13.2285" y1="21.5144" x2="26.8602" y2="21.5506" gradientUnits="userSpaceOnUse">
<stop stop-color="#7AC8FF"/>
<stop offset="0.500395" stop-color="#547BED"/>
<stop offset="1" stop-color="#FF719D"/>
</linearGradient>
<linearGradient id="paint2_linear" x1="27.8162" y1="18.2592" x2="33.7687" y2="18.3396" gradientUnits="userSpaceOnUse">
<stop stop-color="#7AC8FF"/>
<stop offset="0.500395" stop-color="#547BED"/>
<stop offset="1" stop-color="#FF719D"/>
</linearGradient>
<linearGradient id="paint3_linear" x1="27.8162" y1="20.8906" x2="32.6798" y2="20.9442" gradientUnits="userSpaceOnUse">
<stop stop-color="#7AC8FF"/>
<stop offset="0.500395" stop-color="#547BED"/>
<stop offset="1" stop-color="#FF719D"/>
</linearGradient>
<linearGradient id="paint4_linear" x1="4.98682" y1="10.4223" x2="6.76824" y2="10.4271" gradientUnits="userSpaceOnUse">
<stop stop-color="#7AC8FF"/>
<stop offset="0.500395" stop-color="#547BED"/>
<stop offset="1" stop-color="#FF719D"/>
</linearGradient>
<linearGradient id="paint5_linear" x1="7.68506" y1="10.4223" x2="9.46648" y2="10.4271" gradientUnits="userSpaceOnUse">
<stop stop-color="#7AC8FF"/>
<stop offset="0.500395" stop-color="#547BED"/>
<stop offset="1" stop-color="#FF719D"/>
</linearGradient>
<linearGradient id="paint6_linear" x1="10.366" y1="10.4223" x2="12.1474" y2="10.4271" gradientUnits="userSpaceOnUse">
<stop stop-color="#7AC8FF"/>
<stop offset="0.500395" stop-color="#547BED"/>
<stop offset="1" stop-color="#FF719D"/>
</linearGradient>
<clipPath id="clip0">
<rect width="40" height="39.3548" fill="white" transform="translate(0 0.322754)"/>
</clipPath>
</defs>
</svg>
