<svg width="55" height="47" viewBox="0 0 55 47" fill="none" xmlns="http://www.w3.org/2000/svg">
<path d="M15.0308 32.4063H48.8745C49.0792 32.4063 49.2776 32.3358 49.4364 32.2067C49.5952 32.0775 49.7047 31.8977 49.7464 31.6973L54.1996 10.3223C54.2266 10.1927 54.2243 10.0587 54.1931 9.93011C54.1618 9.80149 54.1022 9.68145 54.0187 9.57874C53.9352 9.47604 53.8298 9.39324 53.7103 9.33637C53.5907 9.2795 53.46 9.25 53.3276 9.25H10.7067L8.77267 1.03031C8.72668 0.834925 8.61604 0.660804 8.45868 0.536184C8.30133 0.411565 8.10649 0.343754 7.90576 0.34375H1.67139C1.43518 0.34375 1.20864 0.437584 1.04162 0.604608C0.874595 0.771633 0.780762 0.998167 0.780762 1.23438C0.780762 1.47058 0.874595 1.69712 1.04162 1.86414C1.20864 2.03117 1.43518 2.125 1.67139 2.125H7.20039L13.9461 30.7944C13.2273 31.0252 12.6001 31.478 12.1549 32.0876C11.7096 32.6973 11.4692 33.4325 11.4683 34.1875V35.9688C11.4693 36.9133 11.845 37.8188 12.5129 38.4866C13.1807 39.1545 14.0863 39.5302 15.0308 39.5313H15.0332C14.5362 40.1927 14.2333 40.9795 14.1584 41.8034C14.0835 42.6274 14.2397 43.4559 14.6094 44.1961C14.979 44.9362 15.5476 45.5588 16.2512 45.9939C16.9549 46.429 17.7659 46.6595 18.5933 46.6595C19.4206 46.6595 20.2316 46.429 20.9353 45.9939C21.639 45.5588 22.2075 44.9362 22.5772 44.1961C22.9468 43.4559 23.103 42.6274 23.0281 41.8034C22.9533 40.9795 22.6503 40.1927 22.1533 39.5313H39.9707C39.4737 40.1927 39.1708 40.9795 39.0959 41.8034C39.021 42.6274 39.1772 43.4559 39.5469 44.1961C39.9165 44.9362 40.4851 45.5588 41.1887 45.9939C41.8924 46.429 42.7034 46.6595 43.5308 46.6595C44.3581 46.6595 45.1691 46.429 45.8728 45.9939C46.5765 45.5588 47.145 44.9362 47.5147 44.1961C47.8843 43.4559 48.0405 42.6274 47.9656 41.8034C47.8908 40.9795 47.5878 40.1927 47.0908 39.5313H50.6558C50.892 39.5313 51.1185 39.4374 51.2855 39.2704C51.4526 39.1034 51.5464 38.8768 51.5464 38.6406C51.5464 38.4044 51.4526 38.1779 51.2855 38.0109C51.1185 37.8438 50.892 37.75 50.6558 37.75H15.0308C14.5585 37.7494 14.1058 37.5616 13.7718 37.2277C13.4379 36.8937 13.2501 36.441 13.2495 35.9688V34.1875C13.2501 33.7153 13.4379 33.2625 13.7718 32.9286C14.1058 32.5947 14.5585 32.4068 15.0308 32.4063ZM15.7361 30.625L14.8979 27.0625H19.811L20.2563 30.625H15.7364H15.7361ZM35.032 21.7188L34.8835 25.2813H29.0218L28.8733 21.7188H35.032ZM28.7992 19.9375L28.6506 16.375H35.2546L35.1061 19.9375H28.7992ZM27.239 25.2813H21.3831L20.9378 21.7188H27.0903L27.239 25.2813ZM27.3132 27.0625L27.4617 30.625H22.0511L21.6058 27.0625H27.3132ZM29.096 27.0625H34.8093L34.6608 30.625H29.2445L29.096 27.0625ZM36.5921 27.0625H42.2993L41.8539 30.625H36.4434L36.5921 27.0625ZM36.6663 25.2813L36.8148 21.7188H42.9672L42.5219 25.2813H36.6663ZM44.7623 21.7188H50.0058L49.2642 25.2813H44.317L44.7623 21.7188ZM44.9849 19.9375L45.4302 16.375H51.1191L50.3774 19.9375H44.9849ZM43.1899 19.9375H36.8887L37.0372 16.375H43.635L43.1899 19.9375ZM37.1114 14.5938L37.2599 11.0313H44.3029L43.8576 14.5938H37.1114ZM35.3286 14.5938H28.5765L28.428 11.0313H35.4773L35.3286 14.5938ZM26.7935 14.5938H20.047L19.6017 11.0313H26.6447L26.7935 14.5938ZM26.8676 16.375L27.0161 19.9375H20.715L20.2696 16.375H26.8676ZM18.9201 19.9375H13.2212L12.383 16.375H18.4748L18.9201 19.9375ZM19.1428 21.7188L19.5881 25.2813H14.4781L13.6399 21.7188H19.1428ZM48.1509 30.625H43.649L44.0943 27.0625H48.8925L48.1509 30.625ZM51.4907 14.5938H45.6529L46.0982 11.0313H52.2324L51.4907 14.5938ZM17.8071 11.0313L18.2524 14.5938H11.9641L11.1259 11.0313H17.8071ZM21.2651 42.2031C21.2651 42.7316 21.1084 43.2482 20.8148 43.6875C20.5213 44.1269 20.104 44.4694 19.6157 44.6716C19.1275 44.8738 18.5903 44.9268 18.072 44.8237C17.5537 44.7206 17.0776 44.4661 16.704 44.0924C16.3303 43.7188 16.0758 43.2427 15.9727 42.7244C15.8696 42.2061 15.9225 41.6689 16.1248 41.1806C16.327 40.6924 16.6695 40.2751 17.1088 39.9815C17.5482 39.688 18.0648 39.5313 18.5933 39.5313C19.3016 39.5321 19.9808 39.8138 20.4817 40.3147C20.9825 40.8156 21.2643 41.4948 21.2651 42.2031ZM46.2026 42.2031C46.2026 42.7316 46.0459 43.2482 45.7523 43.6875C45.4588 44.1269 45.0415 44.4694 44.5532 44.6716C44.065 44.8738 43.5278 44.9268 43.0095 44.8237C42.4912 44.7206 42.0151 44.4661 41.6415 44.0924C41.2678 43.7188 41.0133 43.2427 40.9102 42.7244C40.8071 42.2061 40.86 41.6689 41.0623 41.1806C41.2645 40.6924 41.607 40.2751 42.0464 39.9815C42.4857 39.688 43.0023 39.5313 43.5308 39.5313C44.2391 39.5321 44.9183 39.8138 45.4192 40.3147C45.92 40.8156 46.2018 41.4948 46.2026 42.2031ZM17.7026 42.2031C17.7026 42.027 17.7549 41.8548 17.8527 41.7083C17.9506 41.5619 18.0897 41.4477 18.2524 41.3803C18.4152 41.3129 18.5943 41.2953 18.767 41.3296C18.9398 41.364 19.0985 41.4488 19.223 41.5734C19.3476 41.6979 19.4324 41.8566 19.4668 42.0294C19.5011 42.2021 19.4835 42.3812 19.4161 42.544C19.3487 42.7067 19.2345 42.8458 19.0881 42.9437C18.9416 43.0415 18.7694 43.0938 18.5933 43.0938C18.3571 43.0938 18.1305 42.9999 17.9635 42.8329C17.7965 42.6659 17.7026 42.4393 17.7026 42.2031ZM42.6401 42.2031C42.6401 42.027 42.6924 41.8548 42.7902 41.7083C42.8881 41.5619 43.0272 41.4477 43.1899 41.3803C43.3527 41.3129 43.5318 41.2953 43.7045 41.3296C43.8773 41.364 44.036 41.4488 44.1605 41.5734C44.2851 41.6979 44.3699 41.8566 44.4043 42.0294C44.4386 42.2021 44.421 42.3812 44.3536 42.544C44.2862 42.7067 44.172 42.8458 44.0256 42.9437C43.8791 43.0415 43.7069 43.0938 43.5308 43.0938C43.2946 43.0938 43.068 42.9999 42.901 42.8329C42.734 42.6659 42.6401 42.4393 42.6401 42.2031Z" fill="url(#paint0_linear)"/>
<defs>
<linearGradient id="paint0_linear" x1="0.780761" y1="20.3293" x2="54.2188" y2="20.4937" gradientUnits="userSpaceOnUse">
<stop stop-color="#7AC8FF"/>
<stop offset="0.500395" stop-color="#547BED"/>
<stop offset="1" stop-color="#FF719D"/>
</linearGradient>
</defs>
</svg>
