<svg width="55" height="55" viewBox="0 0 55 55" fill="none" xmlns="http://www.w3.org/2000/svg">
<path d="M45.2419 37.2581C43.7747 37.2581 42.5806 38.4521 42.5806 39.9194C42.5806 41.3866 43.7747 42.5806 45.2419 42.5806C46.7092 42.5806 47.9032 41.3866 47.9032 39.9194C47.9032 38.4521 46.7092 37.2581 45.2419 37.2581ZM45.2419 40.8064C44.7531 40.8064 44.3548 40.4081 44.3548 39.9194C44.3548 39.4306 44.7531 39.0323 45.2419 39.0323C45.7307 39.0323 46.129 39.4306 46.129 39.9194C46.129 40.4081 45.7307 40.8064 45.2419 40.8064ZM47.9032 47.9032V46.0767C51.889 45.6331 55 42.2471 55 38.1452C55 33.7434 51.4179 30.1613 47.0161 30.1613H39.0323V26.6129H42.5806L38.5887 21.2903H33.7097V19.5161H35.4839V13.3065C35.4839 11.8392 34.2898 10.6452 32.8226 10.6452H31.9355V8.87097H37.2581C38.2365 8.87097 39.0323 8.07524 39.0323 7.09677V5.32258C39.0323 4.34411 38.2365 3.54839 37.2581 3.54839H35.3943C34.9818 1.52669 33.1898 0 31.0484 0C28.9069 0 27.115 1.52669 26.7025 3.54839H1.77419C0.795726 3.54839 0 4.34411 0 5.32258V7.09677C0 8.07524 0.795726 8.87097 1.77419 8.87097H3.54839V17.7419H1.77419C0.795726 17.7419 0 18.5377 0 19.5161V28.3871C0 29.3656 0.795726 30.1613 1.77419 30.1613H3.54839V49.6774H0V55H49.6774V53.2258H46.129V49.6774C47.1075 49.6774 47.9032 48.8817 47.9032 47.9032ZM35.4839 5.32258H37.2581L37.2589 7.09677H35.4839V5.32258ZM45.2419 44.3548C42.7962 44.3548 40.8064 42.3651 40.8064 39.9194C40.8064 37.4736 42.7962 35.4839 45.2419 35.4839C47.6877 35.4839 49.6774 37.4736 49.6774 39.9194C49.6774 42.3651 47.6877 44.3548 45.2419 44.3548ZM23.0645 39.9194C23.0645 38.1824 22.346 36.6123 21.1927 35.4839H26.7114C25.5581 36.6123 24.8396 38.1824 24.8396 39.9194C24.8396 41.6563 25.5581 43.2265 26.7114 44.3548H21.1927C22.346 43.2265 23.0645 41.6563 23.0645 39.9194ZM16.8548 44.3548C14.4091 44.3548 12.4194 42.3651 12.4194 39.9194C12.4194 37.4736 14.4091 35.4839 16.8548 35.4839C19.3006 35.4839 21.2903 37.4736 21.2903 39.9194C21.2903 42.3651 19.3006 44.3548 16.8548 44.3548ZM26.6129 39.9194C26.6129 37.4736 28.6027 35.4839 31.0484 35.4839C33.4941 35.4839 35.4839 37.4736 35.4839 39.9194C35.4839 42.3651 33.4941 44.3548 31.0484 44.3548C28.6027 44.3548 26.6129 42.3651 26.6129 39.9194ZM37.2581 39.9194C37.2581 38.1824 36.5395 36.6123 35.3863 35.4839H40.9049C39.7517 36.6123 39.0331 38.1824 39.0331 39.9194C39.0331 41.6563 39.7517 43.2265 40.9049 44.3548H35.3863C36.5395 43.2265 37.2581 41.6563 37.2581 39.9194ZM47.0161 31.9355C50.4403 31.9355 53.2258 34.721 53.2258 38.1452C53.2258 40.3106 52.1107 42.2178 50.4261 43.3294C51.0728 42.3491 51.4516 41.1781 51.4516 39.9194C51.4516 36.4952 48.6661 33.7097 45.2419 33.7097H16.8548C13.4306 33.7097 10.6452 36.4952 10.6452 39.9194C10.6452 41.1781 11.024 42.3491 11.6706 43.3294C9.98605 42.2178 8.87097 40.3106 8.87097 38.1452C8.87097 34.721 11.6565 31.9355 15.0806 31.9355H47.0161ZM10.6452 17.7419H8.87097V8.87097H21.2903V11.5323C21.2903 14.654 23.6083 17.2381 26.6129 17.671V19.5161H28.3871V21.2903H23.5081L19.5161 26.6129H23.0645V30.1613H15.0806C12.5737 30.1613 10.3356 31.3252 8.87097 33.1384V30.1613H10.6452C11.6236 30.1613 12.4194 29.3656 12.4194 28.3871V19.5161C12.4194 18.5377 11.6236 17.7419 10.6452 17.7419ZM27.9435 24.8387H23.0645L24.3952 23.0645H29.2742L27.9435 24.8387ZM30.1613 24.8387V30.1613H24.8387V26.6129H28.8306L30.1613 24.8387ZM31.9355 21.2903H31.4919H30.6048H30.1613V19.5161H31.9355V21.2903ZM33.2661 26.6129H37.2581V30.1613H31.9355V24.8387L33.2661 26.6129ZM37.7016 23.0645L39.0323 24.8387H34.1532L32.8226 23.0645H37.7016ZM33.7097 17.7419H28.3871V15.9677H33.7097V17.7419ZM32.8226 12.4194C33.3114 12.4194 33.7097 12.8177 33.7097 13.3065V14.1935H28.3871V13.3065C28.3871 12.8177 28.7854 12.4194 29.2742 12.4194H32.8226ZM31.0484 1.77419C32.2034 1.77419 33.1792 2.51847 33.5465 3.54839H28.5512C28.9176 2.51847 29.8934 1.77419 31.0484 1.77419ZM28.3871 5.32258H33.7097V7.09677H28.3871V5.32258ZM30.1613 8.87097V10.6452H29.2742C27.8069 10.6452 26.6129 11.8392 26.6129 13.3065V15.8781C24.5912 15.4656 23.0645 13.6746 23.0645 11.5323V8.87097H30.1613ZM1.77419 7.09677V5.32258H26.6129V7.09677H1.77419ZM7.09677 8.87097V17.7419H5.32258V8.87097H7.09677ZM1.77419 19.5161H10.6452L10.646 24.8387H1.77419V19.5161ZM1.77419 28.3871V26.6129H10.646V28.3871H1.77419ZM7.09677 30.1613V49.6774H5.32258V30.1613H7.09677ZM15.9677 53.2258H1.77419V51.4516H12.4194V49.6774H8.87097V43.1519C10.1608 44.7478 12.0494 45.8381 14.1935 46.0767V47.9032C14.1935 48.8817 14.9893 49.6774 15.9677 49.6774V53.2258ZM19.5161 53.2258H17.7419V49.6774H19.5161V53.2258ZM40.8064 53.2258H21.2903V49.6774H40.8064V53.2258ZM44.3548 53.2258H42.5806V49.6774H44.3548V53.2258ZM15.9677 47.9032V46.129H46.129V47.9032H15.9677ZM3.54839 21.2903H5.32258V23.0645H3.54839V21.2903ZM7.09677 21.2903H8.87097V23.0645H7.09677V21.2903ZM31.0484 42.5806C32.5156 42.5806 33.7097 41.3866 33.7097 39.9194C33.7097 38.4521 32.5156 37.2581 31.0484 37.2581C29.5811 37.2581 28.3871 38.4521 28.3871 39.9194C28.3871 41.3866 29.5811 42.5806 31.0484 42.5806ZM31.0484 39.0323C31.5372 39.0323 31.9355 39.4306 31.9355 39.9194C31.9355 40.4081 31.5372 40.8064 31.0484 40.8064C30.5596 40.8064 30.1613 40.4081 30.1613 39.9194C30.1613 39.4306 30.5596 39.0323 31.0484 39.0323ZM16.8548 37.2581C15.3876 37.2581 14.1935 38.4521 14.1935 39.9194C14.1935 41.3866 15.3876 42.5806 16.8548 42.5806C18.3221 42.5806 19.5161 41.3866 19.5161 39.9194C19.5161 38.4521 18.3221 37.2581 16.8548 37.2581ZM16.8548 40.8064C16.366 40.8064 15.9677 40.4081 15.9677 39.9194C15.9677 39.4306 16.366 39.0323 16.8548 39.0323C17.3436 39.0323 17.7419 39.4306 17.7419 39.9194C17.7419 40.4081 17.3436 40.8064 16.8548 40.8064Z" fill="url(#paint0_linear)"/>
<defs>
<linearGradient id="paint0_linear" x1="-2.36236e-07" y1="23.7329" x2="55.0006" y2="23.8795" gradientUnits="userSpaceOnUse">
<stop stop-color="#4EB6FF"/>
<stop offset="0.500395" stop-color="#3662E4"/>
<stop offset="1" stop-color="#F45788"/>
</linearGradient>
</defs>
</svg>
