<svg width="55" height="37" viewBox="0 0 55 37" fill="none" xmlns="http://www.w3.org/2000/svg">
<path fill-rule="evenodd" clip-rule="evenodd" d="M0.916753 0.458496H35.7501C36.257 0.458496 36.6668 0.86917 36.6668 1.37513V6.87517H45.8342C46.1459 6.87517 46.4365 7.03373 46.6052 7.29594L54.8552 20.1293C54.9506 20.2768 55.0009 20.4501 55.0008 20.6252V30.7085C55.0008 31.2155 54.5911 31.6252 54.0842 31.6252H49.4229C48.9855 34.2236 46.7203 36.2087 43.9993 36.2087C41.2781 36.2087 39.013 34.2235 38.5756 31.6251H35.7613L35.7501 31.6251H18.2576C17.8202 34.2235 15.555 36.2086 12.834 36.2086C10.1129 36.2086 7.84774 34.2235 7.41028 31.6251H0.916753C0.410796 31.6251 0.00012207 31.2154 0.00012207 30.7085V1.37513C0.00012207 0.86917 0.410796 0.458496 0.916753 0.458496ZM7.41033 29.7918C7.84792 27.1935 10.113 25.2086 12.834 25.2086C15.5548 25.2086 17.82 27.1935 18.2576 29.7918H34.8335V5.95856H3.6671V4.12519H34.8335V2.29176H1.83349V26.125H6.41502V27.9584H1.83349V29.7918H7.41033ZM38.5756 29.7917H36.6676V8.70854H45.3337L46.5123 10.5419H39.4159C38.909 10.5419 38.4993 10.9526 38.4993 11.4585V19.7085C38.4993 20.2155 38.909 20.6252 39.4159 20.6252H52.9943L53.1676 20.8947V26.1252H50.4166V27.9585H53.1676V29.7919H49.4229C48.9853 27.1936 46.7202 25.2087 43.9993 25.2087C41.2783 25.2087 39.0133 27.1935 38.5756 29.7917ZM51.8157 18.7918L47.6659 12.3364V12.3753H40.3325V18.7918H51.8157ZM12.834 34.3752C10.8117 34.3752 9.16732 32.7307 9.16732 30.7086C9.16732 28.6864 10.8118 27.042 12.834 27.042C14.8561 27.042 16.5006 28.6865 16.5006 30.7086C16.5006 32.7307 14.8561 34.3752 12.834 34.3752ZM43.9993 34.3753C41.977 34.3753 40.3326 32.7308 40.3326 30.7087C40.3326 28.6864 41.9771 27.042 43.9993 27.042C46.0215 27.042 47.6659 28.6865 47.6659 30.7087C47.6659 32.7308 46.0215 34.3753 43.9993 34.3753ZM19.2486 26.125H34.832V27.9584H19.2486V26.125ZM13.7499 29.7919H11.9166V31.6252H13.7499V29.7919ZM43.0844 29.7919H44.9178V31.6252H43.0844V29.7919Z" fill="url(#paint0_linear)"/>
<defs>
<linearGradient id="paint0_linear" x1="0.000121834" y1="15.8849" x2="55.0009" y2="16.1106" gradientUnits="userSpaceOnUse">
<stop stop-color="#4EB6FF"/>
<stop offset="0.500395" stop-color="#3662E4"/>
<stop offset="1" stop-color="#F45788"/>
</linearGradient>
</defs>
</svg>
