<svg width="50" height="49" viewBox="0 0 50 49" fill="none" xmlns="http://www.w3.org/2000/svg">
<path d="M2.12861 6.02066H45.3689C45.7852 6.02066 46.1227 6.35816 46.1227 6.77449V37.1402C46.1227 37.5566 45.7852 37.8941 45.3689 37.8941H22.0512C21.6247 37.8941 21.2145 38.0584 20.906 38.3529L12.4388 46.4363C11.9591 46.8943 11.1644 46.5542 11.1644 45.8911V39.5525C11.1644 38.6366 10.4219 37.8941 9.50597 37.8941H2.12861C1.71228 37.8941 1.37478 37.5566 1.37478 37.1402V6.77449C1.37478 6.35816 1.71229 6.02066 2.12861 6.02066Z" stroke="white" stroke-width="0.904596"/>
<path d="M47.6333 26.2992L47.6292 26.3211L47.6272 26.3434C47.5684 27.0045 47.2925 28.0253 46.6645 28.8928C46.0473 29.7454 45.0941 30.4485 43.6403 30.536C40.4455 30.7285 32.749 30.6163 29.2857 30.5354C29.0414 30.5281 28.6315 30.4837 28.2252 30.3749C27.804 30.2622 27.4612 30.0996 27.2782 29.9035C27.1497 29.7658 27.0314 29.6382 26.9243 29.522C26.4373 28.9933 25.5455 29.2973 25.4812 30.0021H18.5094C18.093 30.0021 17.7555 29.6646 17.7555 29.2483V13.729C17.7555 13.3126 18.093 12.9751 18.5094 12.9751H25.2073C25.3565 12.9751 25.4775 13.0961 25.4775 13.2453C25.4775 13.9703 26.1557 14.5709 26.9129 14.3346C28.3431 13.8883 30.5188 12.874 31.6447 11.0657C32.2649 10.0696 32.5777 8.43912 32.7327 6.79111C32.89 5.1185 32.8914 3.33813 32.8372 1.97738C32.8209 1.56907 33.0909 1.27097 33.4061 1.2481C34.3468 1.17985 35.3968 1.26863 36.1923 1.66483C36.5833 1.85959 36.9037 2.12383 37.128 2.47356C37.3513 2.82189 37.4965 3.28165 37.4965 3.8963V10.2992C37.4965 11.2152 38.2391 11.9574 39.1549 11.9574H45.2601C46.0377 11.981 47.1663 12.2293 48.0313 12.8704C48.8672 13.49 49.488 14.4945 49.2768 16.1488C48.8133 19.78 47.9881 24.4288 47.6333 26.2992Z" fill="url(#paint0_linear)" stroke="white" stroke-width="0.904596"/>
<rect x="17.7555" y="12.9552" width="7.72195" height="17.027" rx="2.56302" fill="url(#paint1_linear)" stroke="white" stroke-width="0.904596"/>
<defs>
<linearGradient id="paint0_linear" x1="25.3468" y1="21.5806" x2="49.7709" y2="21.5806" gradientUnits="userSpaceOnUse">
<stop stop-color="#2068F0"/>
<stop offset="1" stop-color="#8F5EB9"/>
</linearGradient>
<linearGradient id="paint1_linear" x1="17.2055" y1="20.6755" x2="25.6484" y2="20.6755" gradientUnits="userSpaceOnUse">
<stop stop-color="#2875F3"/>
<stop offset="1" stop-color="#2568EE"/>
</linearGradient>
</defs>
</svg>
