<svg width="632" height="408" viewBox="0 0 632 408" fill="none" xmlns="http://www.w3.org/2000/svg">
<rect width="632" height="408" fill="white"/>
<path d="M110.004 30.004C111.311 30.004 112.263 30.2607 112.86 30.774C113.457 31.2873 113.756 32.0107 113.756 32.944C113.756 33.4947 113.63 34.0127 113.378 34.498C113.135 34.974 112.72 35.3613 112.132 35.66C111.553 35.9587 110.765 36.108 109.766 36.108H108.618V40H107.358V30.004H110.004ZM109.892 31.082H108.618V35.03H109.626C110.578 35.03 111.287 34.876 111.754 34.568C112.221 34.26 112.454 33.7373 112.454 33C112.454 32.356 112.249 31.8753 111.838 31.558C111.427 31.2407 110.779 31.082 109.892 31.082ZM118.565 32.356C119.209 32.356 119.759 32.496 120.217 32.776C120.683 33.056 121.038 33.4527 121.281 33.966C121.533 34.47 121.659 35.0627 121.659 35.744V36.486H116.521C116.539 37.3353 116.754 37.984 117.165 38.432C117.585 38.8707 118.168 39.09 118.915 39.09C119.391 39.09 119.811 39.048 120.175 38.964C120.548 38.8707 120.931 38.74 121.323 38.572V39.65C120.94 39.818 120.562 39.9393 120.189 40.014C119.815 40.098 119.372 40.14 118.859 40.14C118.149 40.14 117.519 39.9953 116.969 39.706C116.427 39.4167 116.003 38.9873 115.695 38.418C115.396 37.8393 115.247 37.1347 115.247 36.304C115.247 35.4827 115.382 34.778 115.653 34.19C115.933 33.602 116.32 33.1493 116.815 32.832C117.319 32.5147 117.902 32.356 118.565 32.356ZM118.551 33.364C117.963 33.364 117.496 33.5553 117.151 33.938C116.815 34.3113 116.614 34.834 116.549 35.506H120.371C120.361 34.8713 120.212 34.358 119.923 33.966C119.633 33.5647 119.176 33.364 118.551 33.364ZM128.007 32.496H129.351L126.145 36.108L129.617 40H128.189L124.801 36.192V40H123.569V32.496H124.801V36.136L128.007 32.496ZM136.691 40H135.445V33.518H133.233C133.112 35.0953 132.944 36.3693 132.729 37.34C132.514 38.3013 132.23 39.0013 131.875 39.44C131.52 39.8787 131.072 40.098 130.531 40.098C130.41 40.098 130.288 40.0887 130.167 40.07C130.055 40.0607 129.962 40.0373 129.887 40V39.076C129.943 39.0947 130.004 39.1087 130.069 39.118C130.134 39.1273 130.2 39.132 130.265 39.132C130.769 39.132 131.17 38.5953 131.469 37.522C131.777 36.4487 132.01 34.7733 132.169 32.496H136.691V40ZM141.915 32.37C142.829 32.37 143.506 32.5707 143.945 32.972C144.383 33.3733 144.603 34.0127 144.603 34.89V40H143.707L143.469 38.936H143.413C143.086 39.3467 142.741 39.65 142.377 39.846C142.022 40.042 141.527 40.14 140.893 40.14C140.211 40.14 139.647 39.9627 139.199 39.608C138.751 39.244 138.527 38.6793 138.527 37.914C138.527 37.1673 138.821 36.5933 139.409 36.192C139.997 35.7813 140.902 35.5573 142.125 35.52L143.399 35.478V35.03C143.399 34.4047 143.263 33.9707 142.993 33.728C142.722 33.4853 142.339 33.364 141.845 33.364C141.453 33.364 141.079 33.4247 140.725 33.546C140.37 33.658 140.039 33.7887 139.731 33.938L139.353 33.014C139.679 32.8367 140.067 32.6873 140.515 32.566C140.963 32.4353 141.429 32.37 141.915 32.37ZM142.279 36.374C141.345 36.4113 140.697 36.5607 140.333 36.822C139.978 37.0833 139.801 37.452 139.801 37.928C139.801 38.348 139.927 38.656 140.179 38.852C140.44 39.048 140.771 39.146 141.173 39.146C141.807 39.146 142.335 38.9733 142.755 38.628C143.175 38.2733 143.385 37.732 143.385 37.004V36.332L142.279 36.374ZM154.97 32.496V40H153.864V35.212C153.864 35.016 153.869 34.8107 153.878 34.596C153.897 34.3813 153.916 34.1713 153.934 33.966H153.892L151.442 40H150.406L148.026 33.966H147.984C148.012 34.386 148.026 34.8153 148.026 35.254V40H146.92V32.496H148.558L150.924 38.53L153.332 32.496H154.97ZM158.598 32.496V35.618H162.672V32.496H163.904V40H162.672V36.654H158.598V40H157.366V32.496H158.598ZM166.28 40V32.496H167.512V35.576H169.458C170.429 35.576 171.147 35.7533 171.614 36.108C172.081 36.4627 172.314 36.9947 172.314 37.704C172.314 38.404 172.085 38.964 171.628 39.384C171.171 39.7947 170.429 40 169.402 40H166.28ZM173.56 40V32.496H174.792V40H173.56ZM169.29 39.006C169.822 39.006 170.256 38.9173 170.592 38.74C170.928 38.5533 171.096 38.2313 171.096 37.774C171.096 37.3167 170.942 37.0087 170.634 36.85C170.326 36.682 169.883 36.598 169.304 36.598H167.512V39.006H169.29ZM183.252 29.388C183.187 30.088 182.949 30.62 182.538 30.984C182.137 31.3387 181.493 31.516 180.606 31.516C179.692 31.516 179.043 31.3387 178.66 30.984C178.287 30.6293 178.077 30.0973 178.03 29.388H179.178C179.225 29.892 179.356 30.2327 179.57 30.41C179.794 30.578 180.149 30.662 180.634 30.662C181.064 30.662 181.4 30.5733 181.642 30.396C181.894 30.2093 182.044 29.8733 182.09 29.388H183.252ZM178.338 37.074C178.338 37.186 178.334 37.354 178.324 37.578C178.315 37.802 178.301 38.026 178.282 38.25C178.273 38.474 178.264 38.6513 178.254 38.782L182.272 32.496H183.784V40H182.636V35.576C182.636 35.4267 182.636 35.2307 182.636 34.988C182.646 34.7453 182.655 34.5073 182.664 34.274C182.674 34.0313 182.683 33.8493 182.692 33.728L178.702 40H177.176V32.496H178.338V37.074ZM189.513 35.492C189.513 33.8493 189.76 32.5707 190.255 31.656C190.75 30.732 191.548 30.1533 192.649 29.92C193.256 29.7893 193.848 29.6727 194.427 29.57C195.006 29.4673 195.547 29.374 196.051 29.29L196.261 30.368C195.934 30.4147 195.566 30.4753 195.155 30.55C194.744 30.6153 194.338 30.6853 193.937 30.76C193.536 30.8253 193.19 30.8907 192.901 30.956C192.294 31.0867 191.814 31.404 191.459 31.908C191.104 32.4027 190.904 33.1773 190.857 34.232H190.941C191.072 34.0547 191.249 33.8727 191.473 33.686C191.706 33.4993 191.982 33.3407 192.299 33.21C192.626 33.0793 192.994 33.014 193.405 33.014C194.376 33.014 195.108 33.3267 195.603 33.952C196.098 34.5773 196.345 35.3893 196.345 36.388C196.345 37.2187 196.2 37.914 195.911 38.474C195.622 39.034 195.22 39.454 194.707 39.734C194.194 40.0047 193.596 40.14 192.915 40.14C191.879 40.14 191.053 39.7433 190.437 38.95C189.821 38.1567 189.513 37.004 189.513 35.492ZM193.013 39.118C193.62 39.118 194.11 38.922 194.483 38.53C194.856 38.138 195.043 37.466 195.043 36.514C195.043 35.7487 194.898 35.1467 194.609 34.708C194.329 34.26 193.862 34.036 193.209 34.036C192.798 34.036 192.425 34.1293 192.089 34.316C191.753 34.4933 191.473 34.6987 191.249 34.932C191.025 35.1653 190.866 35.3613 190.773 35.52C190.773 35.9773 190.806 36.4207 190.871 36.85C190.936 37.2793 191.048 37.6667 191.207 38.012C191.375 38.348 191.604 38.6187 191.893 38.824C192.192 39.02 192.565 39.118 193.013 39.118ZM208.03 36.234C208.03 37.4753 207.731 38.4367 207.134 39.118C206.536 39.7993 205.729 40.14 204.712 40.14C203.76 40.14 202.99 39.8413 202.402 39.244C201.823 38.6467 201.496 37.7833 201.422 36.654H199.518V40H198.286V32.496H199.518V35.618H201.436C201.538 34.5633 201.879 33.756 202.458 33.196C203.036 32.636 203.797 32.356 204.74 32.356C205.384 32.356 205.953 32.51 206.448 32.818C206.942 33.1167 207.33 33.5553 207.61 34.134C207.89 34.7033 208.03 35.4033 208.03 36.234ZM202.682 36.234C202.682 37.1767 202.845 37.8953 203.172 38.39C203.498 38.8753 204.016 39.118 204.726 39.118C205.444 39.118 205.962 38.8753 206.28 38.39C206.597 37.8953 206.756 37.1767 206.756 36.234C206.756 35.2913 206.592 34.582 206.266 34.106C205.948 33.63 205.435 33.392 204.726 33.392C204.016 33.392 203.498 33.63 203.172 34.106C202.845 34.582 202.682 35.2913 202.682 36.234ZM215.561 32.496V38.964H216.653V42.604H215.463V40H210.241V42.604H209.065V38.964H209.667C210.311 38.0773 210.791 37.0693 211.109 35.94C211.435 34.8013 211.603 33.6533 211.613 32.496H215.561ZM212.705 33.462C212.667 34.0967 212.569 34.7547 212.411 35.436C212.252 36.108 212.047 36.752 211.795 37.368C211.552 37.984 211.267 38.516 210.941 38.964H214.371V33.462H212.705ZM227.126 32.496L224.032 36.136L227.392 40H225.992L222.744 36.192V40H221.596V36.192L218.348 40H216.948L220.308 36.136L217.214 32.496H218.558L221.596 36.136V32.496H222.744V36.136L225.796 32.496H227.126ZM231.248 32.356C231.892 32.356 232.443 32.496 232.9 32.776C233.367 33.056 233.721 33.4527 233.964 33.966C234.216 34.47 234.342 35.0627 234.342 35.744V36.486H229.204C229.223 37.3353 229.437 37.984 229.848 38.432C230.268 38.8707 230.851 39.09 231.598 39.09C232.074 39.09 232.494 39.048 232.858 38.964C233.231 38.8707 233.614 38.74 234.006 38.572V39.65C233.623 39.818 233.245 39.9393 232.872 40.014C232.499 40.098 232.055 40.14 231.542 40.14C230.833 40.14 230.203 39.9953 229.652 39.706C229.111 39.4167 228.686 38.9873 228.378 38.418C228.079 37.8393 227.93 37.1347 227.93 36.304C227.93 35.4827 228.065 34.778 228.336 34.19C228.616 33.602 229.003 33.1493 229.498 32.832C230.002 32.5147 230.585 32.356 231.248 32.356ZM231.234 33.364C230.646 33.364 230.179 33.5553 229.834 33.938C229.498 34.3113 229.297 34.834 229.232 35.506H233.054C233.045 34.8713 232.895 34.358 232.606 33.966C232.317 33.5647 231.859 33.364 231.234 33.364ZM241.433 33.532H238.983V40H237.765V33.532H235.343V32.496H241.433V33.532Z" fill="#171717"/>
<path d="M107.358 58V48.004H114.862V58H113.616V49.11H108.618V58H107.358ZM121 50.356C121.924 50.356 122.666 50.678 123.226 51.322C123.796 51.966 124.08 52.9367 124.08 54.234C124.08 55.5127 123.796 56.4833 123.226 57.146C122.666 57.8087 121.92 58.14 120.986 58.14C120.408 58.14 119.927 58.0327 119.544 57.818C119.171 57.594 118.877 57.3373 118.662 57.048H118.578C118.597 57.2067 118.616 57.4073 118.634 57.65C118.653 57.8927 118.662 58.1027 118.662 58.28V61.36H117.43V50.496H118.438L118.606 51.518H118.662C118.886 51.1913 119.18 50.916 119.544 50.692C119.908 50.468 120.394 50.356 121 50.356ZM120.776 51.392C120.011 51.392 119.47 51.6067 119.152 52.036C118.844 52.4653 118.681 53.1187 118.662 53.996V54.234C118.662 55.158 118.812 55.872 119.11 56.376C119.418 56.8707 119.983 57.118 120.804 57.118C121.262 57.118 121.635 56.992 121.924 56.74C122.223 56.488 122.442 56.1473 122.582 55.718C122.732 55.2793 122.806 54.78 122.806 54.22C122.806 53.3613 122.638 52.6753 122.302 52.162C121.976 51.6487 121.467 51.392 120.776 51.392ZM132.568 54.234C132.568 55.4753 132.25 56.4367 131.616 57.118C130.99 57.7993 130.141 58.14 129.068 58.14C128.405 58.14 127.812 57.9907 127.29 57.692C126.776 57.384 126.37 56.9407 126.072 56.362C125.773 55.774 125.624 55.0647 125.624 54.234C125.624 52.9927 125.936 52.036 126.562 51.364C127.187 50.692 128.036 50.356 129.11 50.356C129.791 50.356 130.388 50.51 130.902 50.818C131.424 51.1167 131.83 51.5553 132.12 52.134C132.418 52.7033 132.568 53.4033 132.568 54.234ZM126.898 54.234C126.898 55.1207 127.07 55.8253 127.416 56.348C127.77 56.8613 128.33 57.118 129.096 57.118C129.852 57.118 130.407 56.8613 130.762 56.348C131.116 55.8253 131.294 55.1207 131.294 54.234C131.294 53.3473 131.116 52.652 130.762 52.148C130.407 51.644 129.847 51.392 129.082 51.392C128.316 51.392 127.761 51.644 127.416 52.148C127.07 52.652 126.898 53.3473 126.898 54.234ZM140.092 50.496V56.964H141.184V60.604H139.994V58H134.772V60.604H133.596V56.964H134.198C134.842 56.0773 135.323 55.0693 135.64 53.94C135.967 52.8013 136.135 51.6533 136.144 50.496H140.092ZM137.236 51.462C137.199 52.0967 137.101 52.7547 136.942 53.436C136.783 54.108 136.578 54.752 136.326 55.368C136.083 55.984 135.799 56.516 135.472 56.964H138.902V51.462H137.236ZM145.497 50.37C146.412 50.37 147.088 50.5707 147.527 50.972C147.966 51.3733 148.185 52.0127 148.185 52.89V58H147.289L147.051 56.936H146.995C146.668 57.3467 146.323 57.65 145.959 57.846C145.604 58.042 145.11 58.14 144.475 58.14C143.794 58.14 143.229 57.9627 142.781 57.608C142.333 57.244 142.109 56.6793 142.109 55.914C142.109 55.1673 142.403 54.5933 142.991 54.192C143.579 53.7813 144.484 53.5573 145.707 53.52L146.981 53.478V53.03C146.981 52.4047 146.846 51.9707 146.575 51.728C146.304 51.4853 145.922 51.364 145.427 51.364C145.035 51.364 144.662 51.4247 144.307 51.546C143.952 51.658 143.621 51.7887 143.313 51.938L142.935 51.014C143.262 50.8367 143.649 50.6873 144.097 50.566C144.545 50.4353 145.012 50.37 145.497 50.37ZM145.861 54.374C144.928 54.4113 144.279 54.5607 143.915 54.822C143.56 55.0833 143.383 55.452 143.383 55.928C143.383 56.348 143.509 56.656 143.761 56.852C144.022 57.048 144.354 57.146 144.755 57.146C145.39 57.146 145.917 56.9733 146.337 56.628C146.757 56.2733 146.967 55.732 146.967 55.004V54.332L145.861 54.374ZM159.505 50.496L156.411 54.136L159.771 58H158.371L155.123 54.192V58H153.975V54.192L150.727 58H149.327L152.687 54.136L149.593 50.496H150.937L153.975 54.136V50.496H155.123V54.136L158.175 50.496H159.505ZM162.165 55.074C162.165 55.186 162.16 55.354 162.151 55.578C162.141 55.802 162.127 56.026 162.109 56.25C162.099 56.474 162.09 56.6513 162.081 56.782L166.099 50.496H167.611V58H166.463V53.576C166.463 53.4267 166.463 53.2307 166.463 52.988C166.472 52.7453 166.481 52.5073 166.491 52.274C166.5 52.0313 166.509 51.8493 166.519 51.728L162.529 58H161.003V50.496H162.165V55.074Z" fill="#171717"/>
<path d="M107.358 76V66.004H114.862V76H113.616V67.11H108.618V76H107.358ZM123.954 72.234C123.954 73.4753 123.637 74.4367 123.002 75.118C122.377 75.7993 121.528 76.14 120.454 76.14C119.792 76.14 119.199 75.9907 118.676 75.692C118.163 75.384 117.757 74.9407 117.458 74.362C117.16 73.774 117.01 73.0647 117.01 72.234C117.01 70.9927 117.323 70.036 117.948 69.364C118.574 68.692 119.423 68.356 120.496 68.356C121.178 68.356 121.775 68.51 122.288 68.818C122.811 69.1167 123.217 69.5553 123.506 70.134C123.805 70.7033 123.954 71.4033 123.954 72.234ZM118.284 72.234C118.284 73.1207 118.457 73.8253 118.802 74.348C119.157 74.8613 119.717 75.118 120.482 75.118C121.238 75.118 121.794 74.8613 122.148 74.348C122.503 73.8253 122.68 73.1207 122.68 72.234C122.68 71.3473 122.503 70.652 122.148 70.148C121.794 69.644 121.234 69.392 120.468 69.392C119.703 69.392 119.148 69.644 118.802 70.148C118.457 70.652 118.284 71.3473 118.284 72.234ZM127.881 68.356C128.739 68.356 129.421 68.5287 129.925 68.874C130.438 69.21 130.695 69.6953 130.695 70.33C130.695 70.7873 130.569 71.1513 130.317 71.422C130.065 71.6833 129.719 71.8747 129.281 71.996V72.052C129.579 72.136 129.855 72.2527 130.107 72.402C130.359 72.5513 130.559 72.7473 130.709 72.99C130.867 73.2327 130.947 73.5453 130.947 73.928C130.947 74.5533 130.685 75.0807 130.163 75.51C129.649 75.93 128.842 76.14 127.741 76.14C127.199 76.14 126.709 76.0933 126.271 76C125.832 75.916 125.468 75.7993 125.179 75.65V74.544C125.496 74.6933 125.869 74.8287 126.299 74.95C126.737 75.0713 127.213 75.132 127.727 75.132C128.287 75.132 128.758 75.0387 129.141 74.852C129.533 74.656 129.729 74.3247 129.729 73.858C129.729 73.018 129.015 72.598 127.587 72.598H126.579V71.59H127.391C128.035 71.59 128.548 71.506 128.931 71.338C129.323 71.1607 129.519 70.862 129.519 70.442C129.519 70.0873 129.369 69.8213 129.071 69.644C128.781 69.4667 128.361 69.378 127.811 69.378C127.4 69.378 127.036 69.42 126.719 69.504C126.411 69.5787 126.07 69.6953 125.697 69.854L125.263 68.874C126.047 68.5287 126.919 68.356 127.881 68.356ZM133.932 73.074C133.932 73.186 133.927 73.354 133.918 73.578C133.909 73.802 133.895 74.026 133.876 74.25C133.867 74.474 133.857 74.6513 133.848 74.782L137.866 68.496H139.378V76H138.23V71.576C138.23 71.4267 138.23 71.2307 138.23 70.988C138.239 70.7453 138.249 70.5073 138.258 70.274C138.267 70.0313 138.277 69.8493 138.286 69.728L134.296 76H132.77V68.496H133.932V73.074ZM149.172 78.604H147.968V76H141.766V68.496H142.998V74.964H146.876V68.496H148.108V74.978H149.172V78.604ZM151.774 73.074C151.774 73.186 151.769 73.354 151.76 73.578C151.751 73.802 151.737 74.026 151.718 74.25C151.709 74.474 151.699 74.6513 151.69 74.782L155.708 68.496H157.22V76H156.072V71.576C156.072 71.4267 156.072 71.2307 156.072 70.988C156.081 70.7453 156.091 70.5073 156.1 70.274C156.109 70.0313 156.119 69.8493 156.128 69.728L152.138 76H150.612V68.496H151.774V73.074ZM160.77 73.074C160.77 73.186 160.765 73.354 160.756 73.578C160.747 73.802 160.733 74.026 160.714 74.25C160.705 74.474 160.695 74.6513 160.686 74.782L164.704 68.496H166.216V76H165.068V71.576C165.068 71.4267 165.068 71.2307 165.068 70.988C165.077 70.7453 165.087 70.5073 165.096 70.274C165.105 70.0313 165.115 69.8493 165.124 69.728L161.134 76H159.608V68.496H160.77V73.074ZM173.568 68.496V71.618H177.642V68.496H178.874V76H177.642V72.654H173.568V76H172.336V68.496H173.568ZM184.093 68.37C185.007 68.37 185.684 68.5707 186.123 68.972C186.561 69.3733 186.781 70.0127 186.781 70.89V76H185.885L185.647 74.936H185.591C185.264 75.3467 184.919 75.65 184.555 75.846C184.2 76.042 183.705 76.14 183.071 76.14C182.389 76.14 181.825 75.9627 181.377 75.608C180.929 75.244 180.705 74.6793 180.705 73.914C180.705 73.1673 180.999 72.5933 181.587 72.192C182.175 71.7813 183.08 71.5573 184.303 71.52L185.577 71.478V71.03C185.577 70.4047 185.441 69.9707 185.171 69.728C184.9 69.4853 184.517 69.364 184.023 69.364C183.631 69.364 183.257 69.4247 182.903 69.546C182.548 69.658 182.217 69.7887 181.909 69.938L181.531 69.014C181.857 68.8367 182.245 68.6873 182.693 68.566C183.141 68.4353 183.607 68.37 184.093 68.37ZM184.457 72.374C183.523 72.4113 182.875 72.5607 182.511 72.822C182.156 73.0833 181.979 73.452 181.979 73.928C181.979 74.348 182.105 74.656 182.357 74.852C182.618 75.048 182.949 75.146 183.351 75.146C183.985 75.146 184.513 74.9733 184.933 74.628C185.353 74.2733 185.563 73.732 185.563 73.004V72.332L184.457 72.374ZM208.715 66.242L205.887 76H204.459L202.191 68.146L199.839 76L198.425 76.014L195.695 66.242H197.053L199.181 74.516L201.533 66.242H202.961L205.201 74.488L207.343 66.242H208.715ZM210.767 67.082C210.525 67.082 210.319 66.998 210.151 66.83C209.983 66.662 209.899 66.4567 209.899 66.214C209.899 65.9713 209.983 65.766 210.151 65.598C210.319 65.43 210.525 65.346 210.767 65.346C211.001 65.346 211.197 65.43 211.355 65.598C211.523 65.766 211.607 65.9713 211.607 66.214C211.607 66.4567 211.523 66.662 211.355 66.83C211.197 66.998 211.001 67.082 210.767 67.082ZM211.383 68.328V76H210.109V68.328H211.383ZM214.829 65.64V76H213.555V65.64H214.829ZM216.524 72.136C216.524 71.352 216.683 70.666 217 70.078C217.317 69.4807 217.751 69.0187 218.302 68.692C218.862 68.3653 219.487 68.202 220.178 68.202C220.775 68.202 221.331 68.342 221.844 68.622C222.357 68.8927 222.749 69.252 223.02 69.7V65.64H224.308V76H223.02V74.558C222.768 75.0153 222.395 75.3933 221.9 75.692C221.405 75.9813 220.827 76.126 220.164 76.126C219.483 76.126 218.862 75.958 218.302 75.622C217.751 75.286 217.317 74.8147 217 74.208C216.683 73.6013 216.524 72.9107 216.524 72.136ZM223.02 72.15C223.02 71.5713 222.903 71.0673 222.67 70.638C222.437 70.2087 222.119 69.882 221.718 69.658C221.326 69.4247 220.892 69.308 220.416 69.308C219.94 69.308 219.506 69.42 219.114 69.644C218.722 69.868 218.409 70.1947 218.176 70.624C217.943 71.0533 217.826 71.5573 217.826 72.136C217.826 72.724 217.943 73.2373 218.176 73.676C218.409 74.1053 218.722 74.4367 219.114 74.67C219.506 74.894 219.94 75.006 220.416 75.006C220.892 75.006 221.326 74.894 221.718 74.67C222.119 74.4367 222.437 74.1053 222.67 73.676C222.903 73.2373 223.02 72.7287 223.02 72.15ZM227.735 69.756C227.996 69.2987 228.379 68.9253 228.883 68.636C229.387 68.3467 229.961 68.202 230.605 68.202C231.295 68.202 231.916 68.3653 232.467 68.692C233.017 69.0187 233.451 69.4807 233.769 70.078C234.086 70.666 234.245 71.352 234.245 72.136C234.245 72.9107 234.086 73.6013 233.769 74.208C233.451 74.8147 233.013 75.286 232.453 75.622C231.902 75.958 231.286 76.126 230.605 76.126C229.942 76.126 229.359 75.9813 228.855 75.692C228.36 75.4027 227.987 75.034 227.735 74.586V76H226.461V65.64H227.735V69.756ZM232.943 72.136C232.943 71.5573 232.826 71.0533 232.593 70.624C232.359 70.1947 232.042 69.868 231.641 69.644C231.249 69.42 230.815 69.308 230.339 69.308C229.872 69.308 229.438 69.4247 229.037 69.658C228.645 69.882 228.327 70.2133 228.085 70.652C227.851 71.0813 227.735 71.5807 227.735 72.15C227.735 72.7287 227.851 73.2373 228.085 73.676C228.327 74.1053 228.645 74.4367 229.037 74.67C229.438 74.894 229.872 75.006 230.339 75.006C230.815 75.006 231.249 74.894 231.641 74.67C232.042 74.4367 232.359 74.1053 232.593 73.676C232.826 73.2373 232.943 72.724 232.943 72.136ZM242.922 71.87C242.922 72.1127 242.908 72.3693 242.88 72.64H236.748C236.794 73.396 237.051 73.9887 237.518 74.418C237.994 74.838 238.568 75.048 239.24 75.048C239.79 75.048 240.248 74.922 240.612 74.67C240.985 74.4087 241.246 74.0633 241.396 73.634H242.768C242.562 74.3713 242.152 74.9733 241.536 75.44C240.92 75.8973 240.154 76.126 239.24 76.126C238.512 76.126 237.858 75.9627 237.28 75.636C236.71 75.3093 236.262 74.8473 235.936 74.25C235.609 73.6433 235.446 72.9433 235.446 72.15C235.446 71.3567 235.604 70.6613 235.922 70.064C236.239 69.4667 236.682 69.0093 237.252 68.692C237.83 68.3653 238.493 68.202 239.24 68.202C239.968 68.202 240.612 68.3607 241.172 68.678C241.732 68.9953 242.161 69.434 242.46 69.994C242.768 70.5447 242.922 71.17 242.922 71.87ZM241.606 71.604C241.606 71.1187 241.498 70.7033 241.284 70.358C241.069 70.0033 240.775 69.7373 240.402 69.56C240.038 69.3733 239.632 69.28 239.184 69.28C238.54 69.28 237.989 69.4853 237.532 69.896C237.084 70.3067 236.827 70.876 236.762 71.604H241.606ZM245.877 69.574C246.101 69.1353 246.419 68.7947 246.829 68.552C247.249 68.3093 247.758 68.188 248.355 68.188V69.504H248.019C246.591 69.504 245.877 70.2787 245.877 71.828V76H244.603V68.328H245.877V69.574ZM251.1 69.574C251.324 69.1353 251.641 68.7947 252.052 68.552C252.472 68.3093 252.981 68.188 253.578 68.188V69.504H253.242C251.814 69.504 251.1 70.2787 251.1 71.828V76H249.826V68.328H251.1V69.574ZM255.707 67.082C255.464 67.082 255.259 66.998 255.091 66.83C254.923 66.662 254.839 66.4567 254.839 66.214C254.839 65.9713 254.923 65.766 255.091 65.598C255.259 65.43 255.464 65.346 255.707 65.346C255.94 65.346 256.136 65.43 256.295 65.598C256.463 65.766 256.547 65.9713 256.547 66.214C256.547 66.4567 256.463 66.662 256.295 66.83C256.136 66.998 255.94 67.082 255.707 67.082ZM256.323 68.328V76H255.049V68.328H256.323ZM265.494 71.87C265.494 72.1127 265.48 72.3693 265.452 72.64H259.32C259.367 73.396 259.623 73.9887 260.09 74.418C260.566 74.838 261.14 75.048 261.812 75.048C262.363 75.048 262.82 74.922 263.184 74.67C263.557 74.4087 263.819 74.0633 263.968 73.634H265.34C265.135 74.3713 264.724 74.9733 264.108 75.44C263.492 75.8973 262.727 76.126 261.812 76.126C261.084 76.126 260.431 75.9627 259.852 75.636C259.283 75.3093 258.835 74.8473 258.508 74.25C258.181 73.6433 258.018 72.9433 258.018 72.15C258.018 71.3567 258.177 70.6613 258.494 70.064C258.811 69.4667 259.255 69.0093 259.824 68.692C260.403 68.3653 261.065 68.202 261.812 68.202C262.54 68.202 263.184 68.3607 263.744 68.678C264.304 68.9953 264.733 69.434 265.032 69.994C265.34 70.5447 265.494 71.17 265.494 71.87ZM264.178 71.604C264.178 71.1187 264.071 70.7033 263.856 70.358C263.641 70.0033 263.347 69.7373 262.974 69.56C262.61 69.3733 262.204 69.28 261.756 69.28C261.112 69.28 260.561 69.4853 260.104 69.896C259.656 70.3067 259.399 70.876 259.334 71.604H264.178ZM269.892 76.126C269.304 76.126 268.776 76.028 268.31 75.832C267.843 75.6267 267.474 75.3467 267.204 74.992C266.933 74.628 266.784 74.2127 266.756 73.746H268.072C268.109 74.1287 268.286 74.4413 268.604 74.684C268.93 74.9267 269.355 75.048 269.878 75.048C270.363 75.048 270.746 74.9407 271.026 74.726C271.306 74.5113 271.446 74.2407 271.446 73.914C271.446 73.578 271.296 73.3307 270.998 73.172C270.699 73.004 270.237 72.8407 269.612 72.682C269.042 72.5327 268.576 72.3833 268.212 72.234C267.857 72.0753 267.549 71.8467 267.288 71.548C267.036 71.24 266.91 70.8387 266.91 70.344C266.91 69.952 267.026 69.5927 267.26 69.266C267.493 68.9393 267.824 68.6827 268.254 68.496C268.683 68.3 269.173 68.202 269.724 68.202C270.573 68.202 271.259 68.4167 271.782 68.846C272.304 69.2753 272.584 69.8633 272.622 70.61H271.348C271.32 70.2087 271.156 69.8867 270.858 69.644C270.568 69.4013 270.176 69.28 269.682 69.28C269.224 69.28 268.86 69.378 268.59 69.574C268.319 69.77 268.184 70.0267 268.184 70.344C268.184 70.596 268.263 70.806 268.422 70.974C268.59 71.1327 268.795 71.2633 269.038 71.366C269.29 71.4593 269.635 71.5667 270.074 71.688C270.624 71.8373 271.072 71.9867 271.418 72.136C271.763 72.276 272.057 72.4907 272.3 72.78C272.552 73.0693 272.682 73.4473 272.692 73.914C272.692 74.334 272.575 74.712 272.342 75.048C272.108 75.384 271.777 75.65 271.348 75.846C270.928 76.0327 270.442 76.126 269.892 76.126Z" fill="#171717"/>
<path d="M34.3633 113V332.002" stroke="#F1588A"/>
<path d="M35 324.001H157.109L216.142 269.337L275.579 198.475L453.082 217.911L516.563 164.462L576 143.001" stroke="#45A8FD" stroke-width="3"/>
<path d="M35 314.35L95.2009 311.104L152.978 318.001L216.007 300.15L274.591 225.498L336.813 204.807L392.165 196.287L452.366 204.807L516.203 182.087L576 176.001" stroke="#F45788" stroke-width="3"/>
<path d="M155 332.001L216.76 316.243L276.098 270.587L335.84 291.597H391.949L451.287 301.294L514.258 267.355L574 252.001" stroke="#2061EE" stroke-width="3"/>
<path d="M34 332.001L576 332.001" stroke="#F1588A"/>
<path d="M34 36H89.5" stroke="#45A8FD" stroke-width="3"/>
<path d="M34 54H89.5" stroke="#F45788" stroke-width="3"/>
<path d="M34 72H89.5" stroke="#2061EE" stroke-width="3"/>
</svg>
