<svg width="161" height="30" viewBox="0 0 161 30" fill="none" xmlns="http://www.w3.org/2000/svg">
<g clip-path="url(#clip0)">
<path d="M24.1562 23.6332H161V30H24.1562V23.6332Z" fill="#E3000F"/>
<path fill-rule="evenodd" clip-rule="evenodd" d="M44.5332 21.6363L54.3866 0.496582H64.0342C68.3452 0.496582 70.8077 1.72737 69.7823 4.60039L63.8248 17.3162C62.1855 20.3949 58.8999 21.6363 54.7946 21.6363H44.5332ZM59.3079 4.40531L53.1554 17.9333H54.9969C56.2281 17.7276 57.2535 16.9083 57.8709 15.0603L61.774 6.65052C62.3878 5.00829 62.3878 4.18894 60.7485 4.39467L59.3079 4.40531Z" fill="#2B95A1"/>
<path d="M74.7041 21.6257L84.7597 0.496582H93.1761L92.1471 15.266L99.1264 0.496582H105.488L95.6385 21.6257H87.2222L88.2476 6.65052L81.2718 21.6257H74.7041Z" fill="#2B95A1"/>
<path d="M129.293 0.496582H135.861L128.062 17.3197H137.298L135.247 21.6257H119.443L129.293 0.496582Z" fill="#2B95A1"/>
<path d="M27.5017 21.6363H24.4219L27.5017 14.8652L30.9896 7.27477C35.3007 6.04398 38.377 5.63254 37.5573 7.06905L33.0405 17.7347C35.2971 18.1461 36.9435 17.3232 37.5573 15.6846L42.0742 5.83826C42.6881 3.58241 39.8176 3.17096 31.607 5.83826L33.8637 0.517853H44.5367C46.0482 0.517853 47.1801 0.663277 47.9607 1.01442C48.979 1.41878 49.38 2.15654 49.2948 3.32703C49.1582 4.40863 48.8691 5.46546 48.4361 6.46607L43.9193 16.2911C42.5 19.9835 38.9944 21.6115 33.6579 21.6115L27.5017 21.6363Z" fill="#2B95A1"/>
<path d="M13.9551 21.6363H20.9344L26.8848 8.51266C19.4974 11.18 13.7564 14.2587 9.85338 17.9511C13.1284 13.8331 16.4176 9.51999 19.9055 5.41973C20.1113 5.00829 22.1621 4.80256 21.9563 5.41973L19.2916 10.3429C21.9599 9.11209 24.6139 7.88131 27.7044 6.65052L30.3727 0.496582L24.4223 0.709398C20.1113 0.709398 16.0095 1.94019 14.9805 3.58242L0 21.6363H6.97933C10.673 17.3303 16.4211 14.6631 16.2047 16.9189L13.9551 21.6363Z" fill="#2B95A1"/>
<path d="M64.8535 21.6257L74.4976 0.496582H81.4769L71.6235 21.6257H64.8535Z" fill="#2B95A1"/>
<path fill-rule="evenodd" clip-rule="evenodd" d="M140.335 2.70986V1.94727H140.427C140.502 1.94727 140.544 1.97564 140.544 2.03594V2.63892C140.545 2.66393 140.553 2.68826 140.565 2.70986H140.92C140.895 2.68148 140.895 2.65311 140.895 2.51832V2.12816C140.895 1.9047 140.828 1.80539 140.679 1.77347C140.741 1.76222 140.796 1.72835 140.834 1.6785C140.872 1.62864 140.89 1.56638 140.885 1.5039V1.30527C140.885 1.02506 140.743 0.950577 140.427 0.950577H139.966V2.72405L140.335 2.70986ZM140.335 1.26625H140.427C140.512 1.26625 140.534 1.30172 140.534 1.44715C140.534 1.59257 140.505 1.62804 140.427 1.62804H140.335V1.27335V1.26625Z" fill="#2B95A1"/>
<path fill-rule="evenodd" clip-rule="evenodd" d="M138.977 1.88698C138.977 1.60637 139.06 1.33206 139.216 1.09875C139.372 0.865431 139.593 0.683583 139.853 0.576199C140.112 0.468815 140.397 0.440719 140.673 0.495463C140.948 0.550206 141.201 0.685332 141.399 0.883751C141.598 1.08217 141.733 1.33497 141.788 1.61019C141.843 1.8854 141.815 2.17067 141.707 2.42992C141.6 2.68917 141.418 2.91075 141.184 3.06664C140.951 3.22254 140.677 3.30575 140.396 3.30575C140.019 3.30575 139.658 3.15627 139.392 2.8902C139.126 2.62413 138.977 2.26326 138.977 1.88698V1.88698ZM139.271 1.88698C139.271 1.6674 139.336 1.45276 139.458 1.27019C139.58 1.08762 139.754 0.945321 139.957 0.861293C140.16 0.777265 140.383 0.75528 140.598 0.798117C140.814 0.840954 141.012 0.946689 141.167 1.10195C141.322 1.25722 141.428 1.45503 141.471 1.67039C141.514 1.88574 141.492 2.10897 141.408 2.31183C141.324 2.51469 141.181 2.68808 140.999 2.81007C140.816 2.93206 140.601 2.99717 140.382 2.99717C140.087 2.99717 139.805 2.8802 139.596 2.672C139.388 2.4638 139.271 2.18142 139.271 1.88698Z" fill="#2B95A1"/>
<path d="M66.9686 27.7406C66.9686 28.0279 67.068 28.1627 67.2702 28.1627C67.4724 28.1627 67.5718 28.0279 67.5718 27.7406V26.0984C67.5718 25.8111 67.4724 25.6763 67.2702 25.6763C67.068 25.6763 66.9686 25.8111 66.9686 26.0984V27.7406ZM67.2702 28.9749C66.518 28.9749 66.007 28.7657 65.7196 28.3223C65.4961 27.9676 65.4961 27.4817 65.4961 26.7865C65.4961 26.0913 65.5387 25.6089 65.9041 25.2861C66.2915 24.9838 66.7762 24.8337 67.2667 24.864C67.7593 24.8339 68.2461 24.9839 68.6363 25.2861C69.0372 25.6408 69.0443 26.1693 69.0443 26.9213C69.0443 27.5597 69.023 28.0102 68.8208 28.3187C68.5334 28.755 68.0189 28.9714 67.2631 28.9714L67.2702 28.9749Z" fill="white"/>
<path d="M81.0731 27.7406C81.0731 28.0279 81.1724 28.1627 81.3747 28.1627C81.5769 28.1627 81.6763 28.0279 81.6763 27.7406V26.0984C81.6763 25.8111 81.5769 25.6763 81.3747 25.6763C81.1724 25.6763 81.0731 25.8111 81.0731 26.0984V27.7406ZM81.3747 28.9749C80.6225 28.9749 80.1115 28.7657 79.8241 28.3223C79.6006 27.9676 79.6006 27.4817 79.6006 26.7865C79.6006 26.0913 79.6432 25.6089 80.0086 25.2861C80.396 24.9838 80.8807 24.8337 81.3712 24.864C81.8638 24.8339 82.3506 24.9839 82.7408 25.2861C83.1417 25.6408 83.1488 26.1693 83.1488 26.9213C83.1488 27.5597 83.1275 28.0102 82.9253 28.3187C82.6379 28.755 82.1234 28.9714 81.3676 28.9714L81.3747 28.9749Z" fill="white"/>
<path d="M142.414 25.0946C143.706 25.0946 144.189 25.4493 144.189 26.6162V27.2476C144.197 27.5537 144.168 27.8598 144.103 28.1591C143.958 28.6628 143.394 28.9643 142.468 28.9643H142.432C141.329 28.9643 140.754 28.5706 140.754 27.8612V27.7903H142.116C142.116 28.0492 142.223 28.1769 142.432 28.1769C142.642 28.1769 142.741 28.0563 142.741 27.7903V27.2901C142.647 27.3579 142.543 27.4105 142.432 27.4462C142.268 27.5049 142.095 27.5337 141.921 27.5313C141.155 27.5313 140.715 27.1092 140.715 26.3679C140.715 25.4706 141.247 25.091 142.386 25.091L142.414 25.0946ZM142.414 26.9425C142.453 26.944 142.491 26.9378 142.527 26.9245C142.562 26.9112 142.595 26.891 142.623 26.8649C142.651 26.8389 142.674 26.8076 142.69 26.7729C142.706 26.7381 142.715 26.7005 142.716 26.6623V26.1055C142.714 26.0677 142.705 26.0307 142.689 25.9965C142.673 25.9624 142.65 25.9317 142.622 25.9064C142.594 25.881 142.561 25.8614 142.526 25.8487C142.49 25.836 142.452 25.8304 142.414 25.8323C142.376 25.8281 142.337 25.8324 142.3 25.8448C142.264 25.8572 142.23 25.8774 142.202 25.9041C142.174 25.9308 142.152 25.9633 142.138 25.9993C142.124 26.0353 142.118 26.0739 142.12 26.1126V26.6588C142.118 26.6964 142.124 26.7341 142.137 26.7694C142.15 26.8046 142.171 26.8368 142.197 26.8638C142.224 26.8908 142.255 26.912 142.29 26.9262C142.325 26.9403 142.363 26.9471 142.4 26.9461L142.414 26.9425Z" fill="white"/>
<path d="M154.482 27.9428V27.3966C154.484 27.3576 154.477 27.3187 154.463 27.2824C154.449 27.2461 154.427 27.2133 154.4 27.186C154.372 27.1588 154.338 27.1379 154.302 27.1246C154.265 27.1114 154.226 27.1062 154.187 27.1092C154.112 27.1073 154.039 27.1348 153.984 27.1858C153.929 27.2369 153.896 27.3074 153.893 27.3824V27.9499C153.893 28.028 153.924 28.1028 153.979 28.158C154.034 28.2133 154.109 28.2443 154.187 28.2443C154.265 28.2443 154.34 28.2133 154.395 28.158C154.451 28.1028 154.482 28.028 154.482 27.9499V27.9428ZM154.187 26.602C154.364 26.5458 154.548 26.5194 154.733 26.524C154.889 26.5082 155.047 26.5271 155.195 26.5793C155.343 26.6314 155.477 26.7156 155.589 26.8257C155.7 26.9358 155.786 27.0692 155.84 27.2163C155.894 27.3634 155.915 27.5207 155.901 27.6768C155.901 28.5741 155.369 28.9537 154.237 28.9537H154.187C152.895 28.9537 152.413 28.599 152.413 27.432V26.8078C152.403 26.5012 152.434 26.1946 152.505 25.8962C152.647 25.3925 153.215 25.0946 154.141 25.0946C155.28 25.0946 155.848 25.4883 155.848 26.1977V26.2686H154.485C154.485 26.0097 154.379 25.882 154.169 25.882C153.96 25.882 153.868 26.0097 153.868 26.2686V26.7616C153.964 26.7013 154.065 26.6491 154.169 26.6056L154.187 26.602Z" fill="white"/>
<path d="M47.1733 27.5065H47.8475L47.5459 25.6053H47.4749L47.1733 27.5065V27.5065ZM47.5104 28.2584H47.0385L46.9391 28.8614H45.4844L46.524 24.9811H48.5039L49.5435 28.8614H48.0888L47.9823 28.2584H47.5104Z" fill="white"/>
<path d="M51.8037 28.8614V24.9811H53.9326C54.8516 24.9811 55.281 25.2897 55.281 26.0203C55.2892 26.1269 55.2762 26.234 55.2427 26.3355C55.2093 26.437 55.1561 26.5308 55.0861 26.6116C55.0162 26.6924 54.9309 26.7586 54.8352 26.8062C54.7396 26.8539 54.6354 26.8821 54.5287 26.8893V26.9319C55.2384 27.0241 55.2597 27.3859 55.2597 28.1804C55.2597 28.2584 55.2597 28.3223 55.2597 28.372C55.2531 28.46 55.2645 28.5485 55.2932 28.632C55.3219 28.7155 55.3672 28.7924 55.4264 28.8579H53.9504C53.8416 28.7219 53.7906 28.5487 53.8084 28.3755C53.8084 28.1946 53.8297 28.0208 53.8297 27.8293C53.8297 27.5136 53.7943 27.3575 53.6062 27.2901C53.504 27.2585 53.3973 27.2441 53.2904 27.2476H53.2053V28.8543L51.8037 28.8614ZM53.6097 25.7437C53.5317 25.7437 53.4536 25.7437 53.3578 25.7437H53.223V26.5169H53.3578C53.4417 26.5212 53.5258 26.5212 53.6097 26.5169C53.8688 26.4814 53.9894 26.3679 53.9894 26.1374C53.9894 25.9068 53.8688 25.7827 53.6097 25.7579V25.7437Z" fill="white"/>
<path d="M26.0332 24.9811V25.8926H26.8954V28.8614H28.336V25.8926H29.1982V24.9811H26.0332Z" fill="white"/>
<path d="M31.5713 28.8614H32.9906V27.3327H33.5938V28.8614H35.0201V24.9811H33.5938V26.3218H32.9906V24.9811H31.5713V28.8614Z" fill="white"/>
<path d="M37.6895 28.8614H40.6664V27.9499H39.1087V27.3469H40.5387V26.4956H39.1087V25.8926H40.6664V24.9811H37.6895V28.8614Z" fill="white"/>
<path d="M71.6172 28.8614H73.0294V27.3469H74.4593V26.4956H73.0294V25.8926H74.5799V24.9811H71.6172V28.8614Z" fill="white"/>
<path d="M85.7139 24.9811H87.1615V28.8614H85.7139V24.9811Z" fill="white"/>
<path d="M89.8301 28.8614H92.5267V27.9499H91.2778V24.9811H89.8301V28.8614Z" fill="white"/>
<path d="M97.4199 27.0028C97.4236 27.1974 97.5025 27.3829 97.6401 27.5205C97.7777 27.6581 97.9634 27.737 98.158 27.7406C98.3039 27.7406 98.4466 27.6973 98.568 27.6163C98.6893 27.5352 98.7839 27.42 98.8398 27.2852C98.8957 27.1504 98.9103 27.002 98.8818 26.8589C98.8533 26.7158 98.783 26.5843 98.6798 26.4812C98.5766 26.378 98.4451 26.3077 98.3019 26.2793C98.1588 26.2508 98.0104 26.2654 97.8755 26.3212C97.7407 26.3771 97.6254 26.4716 97.5443 26.593C97.4632 26.7143 97.4199 26.8569 97.4199 27.0028V27.0028Z" fill="white"/>
<path d="M103.881 27.7406C103.877 27.7831 103.877 27.8258 103.881 27.8683C103.881 28.5777 104.463 28.9785 105.616 28.9785C106.769 28.9785 107.39 28.4606 107.39 27.6448C107.394 27.4483 107.34 27.255 107.235 27.0886C107.131 26.9222 106.98 26.7901 106.801 26.7085C106.457 26.5605 106.1 26.4419 105.736 26.3538C105.47 26.2544 105.335 26.1374 105.335 25.9388C105.334 25.9015 105.34 25.8642 105.354 25.8297C105.368 25.7951 105.39 25.7641 105.417 25.7387C105.444 25.7133 105.477 25.6943 105.513 25.6829C105.548 25.6715 105.586 25.668 105.623 25.6727C105.832 25.6727 105.924 25.7933 105.931 26.0665H107.258C107.258 25.279 106.691 24.8889 105.559 24.8889C104.494 24.8889 103.909 25.3996 103.909 26.1729C103.904 26.3664 103.955 26.5571 104.056 26.7225C104.157 26.8879 104.303 27.0209 104.477 27.1057C104.831 27.2559 105.198 27.3745 105.573 27.4604C105.675 27.4776 105.768 27.5313 105.833 27.6116C105.898 27.6919 105.932 27.7933 105.928 27.8967C105.928 28.1201 105.821 28.2514 105.633 28.2514C105.445 28.2514 105.279 28.0988 105.279 27.7867V27.7654L103.881 27.7406Z" fill="white"/>
<path d="M109.924 24.9811H111.372V28.8614H109.924V24.9811Z" fill="white"/>
<path d="M114.039 28.8614H115.281L115.228 26.0345H115.288L116.133 28.8614H118.006V24.9811H116.764L116.828 27.8151H116.778L115.913 24.9811H114.039V28.8614Z" fill="white"/>
<path d="M124.138 27.432H122.676V27.5916C122.676 27.9853 122.612 28.1662 122.367 28.1662C122.122 28.1662 122.058 28.0208 122.058 27.7406V26.0984C122.058 25.8111 122.151 25.6692 122.367 25.6692C122.584 25.6692 122.676 25.8465 122.676 26.2367V26.3715H124.138C124.116 25.3748 123.52 24.864 122.364 24.864C121.87 24.8349 121.384 24.9862 120.994 25.2897C120.639 25.6124 120.586 26.1019 120.586 26.7971C120.586 27.4923 120.586 27.9889 120.809 28.3258C121.104 28.7692 121.604 28.9785 122.367 28.9785C123.534 28.9785 124.116 28.4855 124.141 27.4356L124.138 27.432Z" fill="white"/>
<path d="M126.714 28.8614H129.691V27.9499H128.133V27.3469H129.556V26.4956H128.133V25.8926H129.691V24.9811H126.714V28.8614Z" fill="white"/>
<path d="M135.861 28.8614H137.266V25.2258H135.861L135.098 25.5344V25.9991H135.861V28.8614Z" fill="white"/>
<path d="M146.541 27.8115V27.8967C146.541 28.6557 147.095 28.9607 148.283 28.9607C149.472 28.9607 150.057 28.6663 150.057 27.8967C150.058 27.7739 150.034 27.6523 149.985 27.5398C149.935 27.4273 149.863 27.3264 149.772 27.2437C149.682 27.161 149.575 27.0984 149.458 27.06C149.341 27.0215 149.218 27.0081 149.096 27.0206V26.9851C149.671 26.9283 149.979 26.6304 149.979 26.1551C149.979 25.4954 149.397 25.123 148.287 25.123C147.261 25.123 146.701 25.4776 146.601 26.219H147.9C147.899 26.1738 147.908 26.129 147.926 26.0877C147.944 26.0463 147.971 26.0093 148.005 25.9793C148.038 25.9493 148.078 25.927 148.121 25.9139C148.165 25.9007 148.21 25.8971 148.255 25.9033C148.305 25.9006 148.355 25.9087 148.402 25.9269C148.449 25.9452 148.491 25.9732 148.527 26.0091C148.562 26.0449 148.589 26.0879 148.606 26.1351C148.624 26.1823 148.631 26.2326 148.627 26.2828C148.627 26.5559 148.432 26.6375 148.06 26.6375H147.637V27.3824H148.045C148.468 27.3824 148.663 27.4817 148.663 27.8115C148.668 27.8629 148.661 27.9147 148.644 27.9633C148.627 28.0119 148.599 28.0561 148.563 28.0929C148.527 28.1297 148.483 28.1582 148.435 28.1764C148.386 28.1946 148.335 28.202 148.283 28.1981C148.038 28.1981 147.928 28.0634 147.904 27.7973L146.541 27.8115Z" fill="white"/>
<path d="M57.5166 24.9811V25.8926H58.3682V28.8614H59.8123V25.8926H60.671V24.9811H57.5166Z" fill="white"/>
<path fill-rule="evenodd" clip-rule="evenodd" d="M113.082 5.00828L107.759 16.4968C107.142 17.5219 107.348 17.9156 108.171 18.139H109.814C111.045 17.7276 111.233 17.5254 111.457 16.9083L116.382 6.0298C117.031 4.69615 117.201 4.18185 116.176 3.97967H114.756C113.937 3.97967 113.525 4.39111 113.114 5.00473L113.082 5.00828ZM100.358 17.5219L106.514 4.18539C107.933 1.72382 110.619 0.698753 113.49 0.283761C115.75 0.0851328 117.801 -0.12059 120.057 0.0851328C123.96 0.290855 125.188 1.93309 123.545 5.00828L118.007 17.5219C116.158 20.3949 113.696 21.4235 110.201 21.8314C108.222 22.0364 106.228 22.0364 104.25 21.8314C100.556 21.6257 99.3253 20.1892 100.347 17.5219H100.358Z" fill="#2B95A1"/>
</g>
<defs>
<clipPath id="clip0">
<rect width="161" height="30" fill="white"/>
</clipPath>
</defs>
</svg>
