<svg width="175" height="31" viewBox="0 0 175 31" fill="none" xmlns="http://www.w3.org/2000/svg">
<path d="M15.7857 17.3806C17.6996 22.0965 25.8964 22.5257 26.541 15.3964C27.1312 8.89447 19.6136 1.79056 10.9755 0.0645941C8.49688 -0.431916 8.11374 2.07791 9.57005 2.67809C11.4098 3.40167 13.0151 4.61851 14.2101 6.19525C15.4051 7.772 16.1438 9.6478 16.345 11.6171C16.7391 15.2109 15.4716 16.6022 15.7857 17.3806Z" fill="#006CB4"/>
<path d="M13.7519 16.7041C16.8733 12.6866 13.1454 5.3626 6.6573 8.36712C0.741242 11.1061 -1.64298 21.1782 1.18976 29.5352C2.00145 31.9322 4.36206 31.0101 4.14779 29.4497C3.85345 27.4919 4.10306 25.4907 4.86924 23.6656C5.63542 21.8405 6.88859 20.2619 8.49132 19.103C11.3985 16.9624 13.238 17.3661 13.7519 16.7041Z" fill="#09BDE4"/>
<path d="M14.2003 18.9672C9.1668 18.2688 4.69798 25.1636 10.5396 29.2884C15.8673 33.0513 25.7674 30.0832 31.5799 23.4522C33.2469 21.5498 31.2694 19.962 30.0274 20.9296C28.4815 22.1635 26.6263 22.9474 24.6651 23.1954C22.7039 23.4434 20.7124 23.1459 18.9089 22.3355C15.6004 20.8787 15.032 19.0818 14.2003 18.9672Z" fill="#A0A1A0"/>
<path d="M43.8625 13.1245H40.6593V12.4189C40.6421 11.554 40.8452 10.699 41.2494 9.9345C41.6471 9.21287 42.2561 8.63076 42.9945 8.26674C43.7644 7.87026 44.705 7.67262 45.8163 7.67383C46.9603 7.67383 47.9197 7.87268 48.6944 8.27037C49.4313 8.63129 50.0365 9.21459 50.425 9.93814C50.8174 10.7049 51.0134 11.5574 50.9951 12.4189V19.6464C50.9951 20.9486 50.8014 22.0126 50.4141 22.8383C50.0654 23.6237 49.4585 24.2656 48.6944 24.657C47.9354 25.0402 46.9906 25.2317 45.8599 25.2317C44.6784 25.2317 43.7039 25.0426 42.9364 24.6643C42.1703 24.2879 41.5627 23.651 41.2222 22.8674C40.8457 22.049 40.6575 20.9917 40.6575 19.6956V18.8662H43.8625V20.0393C43.8509 20.5258 43.9089 21.0115 44.035 21.4815C44.1274 21.8315 44.3386 22.1382 44.6324 22.3491C44.9859 22.5641 45.3961 22.6668 45.8091 22.6437C46.0829 22.659 46.3561 22.605 46.6036 22.4868C46.8511 22.3686 47.065 22.1899 47.2254 21.9671C47.5462 21.5173 47.7072 20.8747 47.7084 20.0393V17.1821H45.021V14.625H47.7157V13.1245C47.7157 12.1545 47.5819 11.4349 47.3144 10.9657C47.0469 10.4965 46.5475 10.2607 45.8163 10.2582C45.1033 10.2582 44.6003 10.5007 44.3073 10.9857C44.0144 11.4707 43.8661 12.1836 43.8625 13.1245Z" fill="#006CB4"/>
<path d="M60.9113 24.9269V18.9434C60.9113 16.1086 61.0505 14.0037 61.3289 12.6288L56.6186 24.9269H53.1521V7.98013H56.1719V13.9819C56.1719 14.9519 56.1634 15.7533 56.1464 16.3862C56.1301 17.0228 56.0902 17.6812 56.0302 18.3577C55.973 19.0094 55.8791 19.6573 55.7488 20.2983L60.47 7.97649H63.9365V24.9233L60.9113 24.9269ZM56.7348 3.37877C56.7348 3.99835 56.8849 4.47546 57.1851 4.8101C57.518 5.13064 57.9618 5.30967 58.4235 5.30967C58.8853 5.30967 59.3291 5.13064 59.6619 4.8101C59.961 4.4791 60.1105 4.00138 60.1105 3.37695H61.7756C61.7756 5.72674 60.6431 6.90163 58.3781 6.90163C56.1761 6.90163 55.0751 5.72674 55.0751 3.37695L56.7348 3.37877Z" fill="#006CB4"/>
<path d="M66.3247 24.9261V7.9793H72.3951C73.2264 7.96329 74.0441 8.19222 74.7466 8.63768C75.4257 9.0777 75.9694 9.69787 76.3174 10.4291C76.6889 11.2102 76.8753 12.0666 76.8621 12.9317C76.872 13.8183 76.6794 14.6954 76.2992 15.4961C75.946 16.2467 75.3939 16.8858 74.7031 17.3439C74.0016 17.8017 73.1796 18.0392 72.3424 18.0259H69.5333V24.9261H66.3247ZM71.1531 10.4964H69.5333V15.5161H71.1531C72.7595 15.5161 73.5627 14.6673 73.5627 12.9699C73.5627 11.3209 72.7595 10.4964 71.1531 10.4964Z" fill="#006CB4"/>
<path d="M94.3741 7.98202V10.7101H90.6952V24.9343H87.4848V10.7046H83.7133V7.97656L94.3741 7.98202Z" fill="#006CB4"/>
<path d="M95.9482 24.9253V7.97852H99.1569V15.3261L103.048 7.97852H106.68L102.389 15.3261L106.818 24.9253H103.241L100.426 18.1633L99.155 19.8311V24.9235L95.9482 24.9253Z" fill="#006CB4"/>
<path d="M124.02 7.98202V10.7101H120.341V24.9343H117.13V10.7046H113.361V7.97656L124.02 7.98202Z" fill="#006CB4"/>
<path d="M125.594 24.9263V7.97945H131.665C132.499 7.96196 133.32 8.19095 134.025 8.63782C134.704 9.07785 135.248 9.69801 135.596 10.4293C135.967 11.2105 136.153 12.0668 136.141 12.9318C136.15 13.8185 135.957 14.6957 135.576 15.4962C135.223 16.2468 134.671 16.886 133.98 17.344C133.278 17.802 132.456 18.0395 131.619 18.026H128.805V24.9263H125.594ZM130.424 10.4966H128.805V15.5162H130.424C132.03 15.5162 132.832 14.6675 132.832 12.97C132.837 11.321 132.034 10.4966 130.424 10.4966Z" fill="#006CB4"/>
<path d="M138.131 24.9253V7.97852H147.184V10.7066H141.341V14.5514H146.663V17.1085H141.341V22.3409H147.184V24.9253H138.131Z" fill="#006CB4"/>
<path d="M156.952 24.9269V18.9434C156.952 16.1086 157.091 14.0037 157.37 12.6288L152.659 24.9269H149.193V7.98013H152.213V13.9819C152.213 14.9519 152.204 15.7533 152.187 16.3862C152.171 17.0228 152.131 17.6812 152.071 18.3577C152.014 19.0094 151.92 19.6573 151.79 20.2983L156.511 7.97649H159.979V24.9233L156.952 24.9269ZM152.776 3.37877C152.776 3.99835 152.926 4.47546 153.226 4.8101C153.559 5.13064 154.003 5.30967 154.464 5.30967C154.926 5.30967 155.37 5.13064 155.703 4.8101C156.003 4.4791 156.153 4.00138 156.153 3.37695H157.818C157.818 5.72674 156.685 6.90163 154.419 6.90163C152.216 6.90163 151.115 5.72674 151.116 3.37695L152.776 3.37877Z" fill="#006CB4"/>
<path d="M162.812 22.3427C163.093 21.7249 163.341 21.0922 163.555 20.4476C163.749 19.8441 163.902 19.2279 164.012 18.6035C164.141 17.8559 164.228 17.1018 164.274 16.3446C164.328 15.4959 164.355 14.4653 164.355 13.2528V7.97852H173.963V22.3464H175V28.3354H171.913V24.9271H164.904V28.3318H161.817V22.3427H162.812ZM170.753 10.5647H167.522V14.415C167.522 16.2628 167.401 17.759 167.159 18.9035C166.906 20.0913 166.515 21.2455 165.995 22.3427H170.749L170.753 10.5647Z" fill="#006CB4"/>
</svg>
