<svg width="12" height="12" viewBox="0 0 12 12" fill="none" xmlns="http://www.w3.org/2000/svg">
<path fill-rule="evenodd" clip-rule="evenodd" d="M11.5464 3.7152V3.7176C11.8464 4.44 11.999 5.20765 11.999 6C11.999 9.30754 9.30655 12 5.99902 12C2.6915 12 -0.000976562 9.30754 -0.000976562 6C-0.000976562 2.69246 2.6915 0 5.99902 0C6.62402 0 7.24157 0.0973751 7.82952 0.287657C7.83194 0.287657 7.83194 0.290054 7.83194 0.290054H7.83946C7.84786 0.292924 7.85467 0.298044 7.86171 0.303311L7.86834 0.308194L7.87118 0.310162L7.87438 0.312204L7.8761 0.31321L7.87959 0.315089C7.89225 0.322636 7.90735 0.325033 7.91971 0.334976C7.91971 0.334976 7.91971 0.33579 7.92019 0.33647C7.92048 0.336958 7.92108 0.337373 7.92208 0.337373C7.93558 0.351119 7.94528 0.364879 7.95629 0.38046L7.95949 0.385032C7.96097 0.38697 7.96251 0.388805 7.9641 0.39061L7.9676 0.394487C7.97073 0.397934 7.97387 0.401382 7.97659 0.405214C7.97872 0.408144 7.98062 0.41131 7.9821 0.414862C7.98612 0.42189 7.98873 0.429554 7.99068 0.437559L7.99168 0.442028L7.99281 0.447488L7.99447 0.457372L7.99677 0.46369L7.99926 0.470215L7.99944 0.470703C8.00358 0.481504 8.00784 0.492676 8.00956 0.505031C8.00956 0.509115 8.00903 0.513272 8.00849 0.517578V0.519561C8.00784 0.525169 8.00713 0.531102 8.00713 0.537598C8.00713 0.560221 8.00476 0.580108 7.99962 0.602746V0.605143C7.99672 0.613562 7.99163 0.621227 7.98671 0.628507C7.98287 0.634277 7.9792 0.639796 7.97695 0.645256C7.96943 0.660349 7.96428 0.675426 7.95434 0.687766C7.63409 1.07795 7.45925 1.56549 7.45925 2.06537C7.45925 3.26262 8.43398 4.23772 9.6316 4.23772C10.1966 4.23772 10.7315 4.02035 11.1391 3.62537C11.1425 3.62257 11.1459 3.62019 11.1492 3.61805C11.1541 3.61497 11.1589 3.61238 11.1638 3.6098C11.1681 3.60756 11.1723 3.60531 11.1765 3.60275C11.1916 3.5928 11.2016 3.58286 11.2166 3.57531H11.2217C11.2393 3.56811 11.2595 3.56537 11.2794 3.56297C11.2917 3.56297 11.3044 3.55543 11.3167 3.55782C11.3318 3.55782 11.3442 3.56297 11.3592 3.56537C11.3767 3.56777 11.3942 3.57016 11.4093 3.57531C11.4158 3.57847 11.4213 3.5828 11.4271 3.58754L11.4303 3.59017L11.4368 3.5952C11.4566 3.60514 11.4741 3.61509 11.4916 3.63018C11.4916 3.63161 11.4916 3.63219 11.4921 3.63243C11.4925 3.63258 11.493 3.63258 11.494 3.63258C11.5039 3.64492 11.5115 3.65999 11.519 3.67509C11.5265 3.68743 11.5389 3.69497 11.5441 3.71005C11.5441 3.71156 11.5441 3.71224 11.5445 3.71295L11.5452 3.7139L11.5464 3.7152ZM1.74896 6.74982C1.74896 7.30251 2.19676 7.74994 2.74908 7.74994C3.3014 7.74994 3.7492 7.30251 3.7492 6.74982C3.7492 6.19715 3.3014 5.74972 2.74908 5.74972C2.19641 5.74972 1.74896 6.19749 1.74896 6.74982ZM4.24873 2.49978C3.83626 2.49978 3.49891 2.83749 3.49891 3.24994C3.49891 3.66241 3.83662 4.00012 4.24873 3.99978C4.66155 3.99978 4.99891 3.66241 4.99891 3.24994C4.99891 2.83714 4.66119 2.49978 4.24873 2.49978ZM5.74908 9.24994C5.74908 9.66275 6.08644 10.0001 6.49891 10.0001C6.91137 10.0001 7.24908 9.66241 7.24908 9.24994C7.24908 8.83749 6.91137 8.50012 6.49891 8.50012C6.08644 8.50012 5.74908 8.83749 5.74908 9.24994ZM5.99902 5.87485C5.99902 6.42754 6.44682 6.87497 6.99914 6.87497C7.55146 6.87497 7.99891 6.42754 7.99926 5.87485C7.99926 5.32218 7.55146 4.87475 6.99914 4.87475C6.44647 4.87475 5.99902 5.32252 5.99902 5.87485Z" fill="white"/>
</svg>
