<svg width="36" height="36" viewBox="0 0 36 36" fill="none" xmlns="http://www.w3.org/2000/svg">
<g clip-path="url(#clip0)">
<path d="M28.2392 27.8114L27.0464 24.1775C26.8305 23.532 26.2184 23.0981 25.5232 23.0981H13.5037C13.2125 23.0981 12.9763 23.3339 12.9763 23.6247C12.9763 23.9155 13.2125 24.1512 13.5037 24.1512H25.5232C25.7639 24.1512 25.974 24.2959 26.0451 24.5083L26.7014 26.508C26.5704 26.482 26.4351 26.4681 26.2966 26.4681H9.70288C9.56064 26.4681 9.4217 26.4825 9.2874 26.5099L9.95347 24.5111C10.0255 24.2959 10.2356 24.1512 10.4763 24.1512H11.2406C11.5318 24.1512 11.768 23.9155 11.768 23.6247C11.768 23.3339 11.5318 23.0981 11.2406 23.0981H10.4763C9.78114 23.0981 9.169 23.532 8.95293 24.1781L7.74285 27.8092C7.72858 27.852 7.72042 27.896 7.71747 27.9401C7.65995 28.1299 7.62866 28.3309 7.62866 28.5392V33.8749C7.62866 35.017 8.55911 35.946 9.70288 35.946H26.2966C27.4404 35.946 28.3708 35.017 28.3708 33.8749V33.1122C28.3708 32.8215 28.1347 32.5857 27.8435 32.5857C27.5523 32.5857 27.3162 32.8215 27.3162 33.1122V33.8749C27.3162 34.4362 26.8588 34.8929 26.2966 34.8929H9.70288C9.14073 34.8929 8.68335 34.4362 8.68335 33.8749V28.5392C8.68335 27.9779 9.14073 27.5212 9.70288 27.5212H26.2966C26.8588 27.5212 27.3162 27.9779 27.3162 28.5392V30.8493C27.3162 31.1401 27.5523 31.3758 27.8435 31.3758C28.1347 31.3758 28.3708 31.1401 28.3708 30.8493V28.5392C28.3708 28.2856 28.3247 28.0425 28.2408 27.8178C28.2401 27.8157 28.2399 27.8135 28.2392 27.8114Z" fill="url(#paint0_linear)"/>
<path d="M10.2654 28.5742C9.97415 28.5742 9.73804 28.81 9.73804 29.1008V33.3132C9.73804 33.604 9.97415 33.8397 10.2654 33.8397H25.7341C26.0254 33.8397 26.2615 33.604 26.2615 33.3132V29.1008C26.2615 28.81 26.0254 28.5742 25.7341 28.5742H10.2654ZM17.5427 29.6273V30.2943C17.5427 30.5847 17.3062 30.8208 17.0154 30.8208C16.7246 30.8208 16.488 30.5847 16.488 30.2943V29.6273H17.5427ZM14.0266 29.6273V30.2943C14.0266 30.5847 13.7901 30.8208 13.4993 30.8208C13.2085 30.8208 12.9719 30.5847 12.9719 30.2943V29.6273H14.0266ZM25.2068 32.7866H10.7927V29.6273H11.9172V30.2943C11.9172 31.1653 12.6269 31.8739 13.4993 31.8739C14.3716 31.8739 15.0813 31.1653 15.0813 30.2943V29.6273H15.4333V30.2943C15.4333 31.1653 16.143 31.8739 17.0154 31.8739C17.8877 31.8739 18.5974 31.1653 18.5974 30.2943V29.6273H25.2068V32.7866Z" fill="url(#paint1_linear)"/>
<path d="M26.9309 10.6259C26.9309 10.2036 26.7664 9.8068 26.4678 9.5087C26.1689 9.21025 25.7715 9.0459 25.3489 9.0459C24.9261 9.0459 24.5288 9.21032 24.2306 9.5087L18.4872 15.2436C18.3287 15.2154 18.1661 15.1999 17.9998 15.1999C16.4683 15.1999 15.2224 16.444 15.2224 17.9731C15.2224 19.5022 16.4683 20.7462 17.9998 20.7462C19.5312 20.7462 20.7771 19.5022 20.7771 17.9731C20.7771 17.8015 20.7606 17.6339 20.7306 17.4709L26.4677 11.7425C26.7664 11.4442 26.9309 11.0477 26.9309 10.6259ZM17.9998 19.6931C17.0499 19.6931 16.2771 18.9215 16.2771 17.9731C16.2771 17.0246 17.0499 16.253 17.9998 16.253C18.9496 16.253 19.7224 17.0246 19.7224 17.9731C19.7224 18.9215 18.9496 19.6931 17.9998 19.6931ZM25.722 10.9978L20.2962 16.4154C20.0967 16.123 19.8428 15.8705 19.549 15.6726L24.9767 10.2531C25.076 10.1538 25.2082 10.0991 25.3489 10.0991C25.4898 10.0991 25.6223 10.1538 25.722 10.2535C25.8214 10.3527 25.8762 10.485 25.8762 10.626C25.8762 10.7664 25.8214 10.8984 25.722 10.9978Z" fill="url(#paint2_linear)"/>
<path d="M34.1162 9.95977C32.9245 7.57477 31.1793 5.44455 29.0692 3.79932C28.8395 3.62029 28.5082 3.66108 28.329 3.89024C28.1498 4.11946 28.1905 4.45035 28.4201 4.6293C28.8326 4.95092 29.2266 5.28953 29.6035 5.64218L27.3599 7.88241C24.9003 5.60609 21.6101 4.21242 18 4.21242C10.5777 4.21242 4.50703 10.1021 4.22873 17.4464H1.06277C1.34205 8.35912 8.83259 1.0531 18 1.0531C21.0393 1.0531 24.0201 1.86568 26.6204 3.403C26.871 3.55114 27.1944 3.46843 27.3428 3.21822C27.4912 2.968 27.4084 2.64498 27.1578 2.49684C24.3949 0.863405 21.2282 0 18 0C13.2008 0 8.685 1.86526 5.28455 5.25225C1.87671 8.64654 0 13.1641 0 17.973C0 18.2638 0.236109 18.4995 0.527344 18.4995H4.74609C5.03733 18.4995 5.27344 18.2638 5.27344 17.973C5.27344 10.966 10.9825 5.26552 18 5.26552C25.0175 5.26552 30.7266 10.966 30.7266 17.973C30.7266 18.2638 30.9627 18.4995 31.2539 18.4995H35.4727C35.7639 18.4995 36 18.2638 36 17.973C36 15.1575 35.3662 12.4615 34.1162 9.95977ZM31.7713 17.4464C31.6425 14.0489 30.2735 10.9633 28.1053 8.62745L30.3503 6.38574C33.177 9.37754 34.8105 13.2756 34.9373 17.4464H31.7713V17.4464Z" fill="url(#paint3_linear)"/>
</g>
<defs>
<linearGradient id="paint0_linear" x1="7.62866" y1="28.6421" x2="28.3708" y2="28.7314" gradientUnits="userSpaceOnUse">
<stop stop-color="#7AC8FF"/>
<stop offset="0.500395" stop-color="#547BED"/>
<stop offset="1" stop-color="#FF719D"/>
</linearGradient>
<linearGradient id="paint1_linear" x1="9.73804" y1="30.8463" x2="26.2606" y2="30.9846" gradientUnits="userSpaceOnUse">
<stop stop-color="#7AC8FF"/>
<stop offset="0.500395" stop-color="#547BED"/>
<stop offset="1" stop-color="#FF719D"/>
</linearGradient>
<linearGradient id="paint2_linear" x1="15.2224" y1="14.0947" x2="26.931" y2="14.1259" gradientUnits="userSpaceOnUse">
<stop stop-color="#7AC8FF"/>
<stop offset="0.500395" stop-color="#547BED"/>
<stop offset="1" stop-color="#FF719D"/>
</linearGradient>
<linearGradient id="paint3_linear" x1="-1.54627e-07" y1="7.98267" x2="35.9997" y2="8.16947" gradientUnits="userSpaceOnUse">
<stop stop-color="#7AC8FF"/>
<stop offset="0.500395" stop-color="#547BED"/>
<stop offset="1" stop-color="#FF719D"/>
</linearGradient>
<clipPath id="clip0">
<rect width="36" height="35.9459" fill="white"/>
</clipPath>
</defs>
</svg>
