<svg width="40" height="38" viewBox="0 0 40 38" fill="none" xmlns="http://www.w3.org/2000/svg">
<path d="M38.9918 13.8201L36.9789 12.1675C36.7292 11.9624 36.3517 11.9886 36.1358 12.226C35.9199 12.4632 35.9474 12.8219 36.1973 13.0269L38.21 14.6795C38.9275 15.2685 39.0067 16.3023 38.3867 16.984L25.3128 31.3554C25.0969 31.5927 25.1243 31.9513 25.3742 32.1564C25.4872 32.2493 25.6264 32.2947 25.7648 32.2947C25.9325 32.2947 26.0992 32.2281 26.2174 32.0982L39.2913 17.7266C40.3424 16.5712 40.2081 14.8186 38.9918 13.8201Z" fill="url(#paint0_linear)"/>
<path d="M35.4486 10.9102L26.1373 3.26558C25.5481 2.78183 24.7958 2.54529 24.0192 2.59873C23.2425 2.65239 22.5344 2.99031 22.0251 3.54999L21.138 4.52522C20.9221 4.76258 20.9495 5.1212 21.1994 5.32627C21.4493 5.53148 21.8267 5.50521 22.0426 5.26793L22.9297 4.2927C23.2301 3.96257 23.6479 3.76322 24.1061 3.73153C24.5643 3.69954 25.008 3.83952 25.3555 4.12489L34.6668 11.7695C34.7798 11.8623 34.919 11.9078 35.0574 11.9078C35.2251 11.9078 35.3918 11.8411 35.51 11.7112C35.7258 11.4739 35.6983 11.1153 35.4486 10.9102Z" fill="url(#paint1_linear)"/>
<path d="M29.7739 8.90281L13.6655 3.76999C12.1412 3.2843 10.4855 4.06723 9.97429 5.51509L9.76179 6.11693C9.65679 6.41425 9.82546 6.73621 10.1385 6.83596C10.4516 6.93571 10.7903 6.77555 10.8954 6.47808L11.1079 5.87624C11.4094 5.02206 12.3861 4.5602 13.2853 4.84675L29.3938 9.9795C30.293 10.2661 30.7791 11.1939 30.4775 12.0481L22.9827 33.2761C22.8777 33.5734 23.0464 33.8953 23.3594 33.9951C23.4225 34.0152 23.4866 34.0247 23.5496 34.0247C23.7994 34.0247 24.0324 33.8747 24.1163 33.6373L31.6111 12.4093C32.1222 10.9616 31.2981 9.38842 29.7739 8.90281Z" fill="url(#paint2_linear)"/>
<path d="M19.9059 7.479H2.91547C1.30789 7.479 0 8.72143 0 10.2486V32.6389C0 34.1661 1.30789 35.4086 2.91547 35.4086H19.9059C21.5135 35.4086 22.8214 34.1661 22.8214 32.6389V10.2486C22.8213 8.72143 21.5135 7.479 19.9059 7.479ZM21.6257 32.6389C21.6257 33.5398 20.8541 34.2727 19.9059 34.2727H2.91547C1.96711 34.2727 1.19562 33.5397 1.19562 32.6389V10.2486C1.19562 9.34768 1.96719 8.61477 2.91547 8.61477H19.9059C20.8543 8.61477 21.6258 9.34776 21.6258 10.2486V32.6389H21.6257Z" fill="url(#paint3_linear)"/>
<path d="M20.2173 23.1533H2.60465C2.27449 23.1533 2.00684 23.4076 2.00684 23.7212C2.00684 24.0349 2.27449 24.2892 2.60465 24.2892H20.2174C20.5475 24.2892 20.8152 24.0349 20.8152 23.7212C20.8151 23.4076 20.5475 23.1533 20.2173 23.1533Z" fill="url(#paint4_linear)"/>
<path d="M17.4309 26.4009H10.0282C9.69808 26.4009 9.43042 26.6552 9.43042 26.9688C9.43042 27.2824 9.69808 27.5367 10.0282 27.5367H17.4309C17.761 27.5367 18.0287 27.2824 18.0287 26.9688C18.0287 26.6552 17.761 26.4009 17.4309 26.4009Z" fill="url(#paint5_linear)"/>
<path d="M8.03531 26.4009H5.39164C5.06148 26.4009 4.79382 26.6552 4.79382 26.9688C4.79382 27.2824 5.06148 27.5367 5.39164 27.5367H8.03531C8.36546 27.5367 8.63312 27.2824 8.63312 26.9688C8.63312 26.6552 8.36546 26.4009 8.03531 26.4009Z" fill="url(#paint6_linear)"/>
<path d="M17.4307 28.5718H5.39164C5.06148 28.5718 4.79382 28.8261 4.79382 29.1397C4.79382 29.4533 5.06148 29.7076 5.39164 29.7076H17.4307C17.7609 29.7076 18.0285 29.4533 18.0285 29.1397C18.0285 28.826 17.7609 28.5718 17.4307 28.5718Z" fill="url(#paint7_linear)"/>
<path d="M17.4307 30.7427H5.39164C5.06148 30.7427 4.79382 30.9969 4.79382 31.3106C4.79382 31.6242 5.06148 31.8785 5.39164 31.8785H17.4307C17.7609 31.8785 18.0285 31.6242 18.0285 31.3106C18.0285 30.9969 17.7609 30.7427 17.4307 30.7427Z" fill="url(#paint8_linear)"/>
<path d="M17.9814 14.0682C17.9111 13.8626 17.724 13.7128 17.4989 13.6817L13.6627 13.1522L11.9472 9.84982C11.8464 9.65596 11.6386 9.5332 11.4111 9.5332C11.1836 9.5332 10.9757 9.65596 10.875 9.84982L9.15934 13.1522L5.32317 13.6817C5.09801 13.7128 4.9109 13.8626 4.84067 14.0682C4.77036 14.2738 4.82903 14.4994 4.99192 14.6503L7.76786 17.2208L7.11255 20.8505C7.07411 21.0635 7.1663 21.2788 7.35036 21.4059C7.4545 21.4778 7.57786 21.5143 7.70176 21.5143C7.79684 21.5143 7.89239 21.4927 7.97989 21.4492L11.4111 19.7354L14.8422 21.4492C15.0436 21.5497 15.2877 21.533 15.4718 21.4059C15.6559 21.2788 15.748 21.0635 15.7096 20.8505L15.0543 17.2208L17.8301 14.6503C17.993 14.4994 18.0517 14.2738 17.9814 14.0682ZM13.9947 16.6159C13.8538 16.7464 13.7895 16.9344 13.8228 17.1186L14.3265 19.9084L11.6892 18.5912C11.515 18.5042 11.3069 18.5042 11.1329 18.5912L8.49559 19.9084L8.99926 17.1186C9.03247 16.9344 8.96825 16.7464 8.82731 16.6159L6.6938 14.6402L9.64231 14.2331C9.837 14.2062 10.0053 14.0901 10.0924 13.9224L11.411 11.3841L12.7296 13.9224C12.8166 14.09 12.985 14.2062 13.1797 14.2331L16.1282 14.6402L13.9947 16.6159Z" fill="url(#paint9_linear)"/>
<defs>
<linearGradient id="paint0_linear" x1="25.1672" y1="20.774" x2="39.9998" y2="20.8029" gradientUnits="userSpaceOnUse">
<stop stop-color="#7AC8FF"/>
<stop offset="0.500395" stop-color="#547BED"/>
<stop offset="1" stop-color="#FF719D"/>
</linearGradient>
<linearGradient id="paint1_linear" x1="20.9924" y1="6.61142" x2="35.6555" y2="6.67296" gradientUnits="userSpaceOnUse">
<stop stop-color="#7AC8FF"/>
<stop offset="0.500395" stop-color="#547BED"/>
<stop offset="1" stop-color="#FF719D"/>
</linearGradient>
<linearGradient id="paint2_linear" x1="9.73059" y1="16.7433" x2="31.7629" y2="16.7858" gradientUnits="userSpaceOnUse">
<stop stop-color="#7AC8FF"/>
<stop offset="0.500395" stop-color="#547BED"/>
<stop offset="1" stop-color="#FF719D"/>
</linearGradient>
<linearGradient id="paint3_linear" x1="-9.80225e-08" y1="19.5308" x2="22.8217" y2="19.5805" gradientUnits="userSpaceOnUse">
<stop stop-color="#7AC8FF"/>
<stop offset="0.500395" stop-color="#547BED"/>
<stop offset="1" stop-color="#FF719D"/>
</linearGradient>
<linearGradient id="paint4_linear" x1="2.00684" y1="23.6434" x2="20.7789" y2="24.4723" gradientUnits="userSpaceOnUse">
<stop stop-color="#7AC8FF"/>
<stop offset="0.500395" stop-color="#547BED"/>
<stop offset="1" stop-color="#FF719D"/>
</linearGradient>
<linearGradient id="paint5_linear" x1="9.43042" y1="26.891" x2="18.0254" y2="27.0645" gradientUnits="userSpaceOnUse">
<stop stop-color="#7AC8FF"/>
<stop offset="0.500395" stop-color="#547BED"/>
<stop offset="1" stop-color="#FF719D"/>
</linearGradient>
<linearGradient id="paint6_linear" x1="4.79382" y1="26.891" x2="8.63288" y2="26.9256" gradientUnits="userSpaceOnUse">
<stop stop-color="#7AC8FF"/>
<stop offset="0.500395" stop-color="#547BED"/>
<stop offset="1" stop-color="#FF719D"/>
</linearGradient>
<linearGradient id="paint7_linear" x1="4.79382" y1="29.0619" x2="18.016" y2="29.4727" gradientUnits="userSpaceOnUse">
<stop stop-color="#7AC8FF"/>
<stop offset="0.500395" stop-color="#547BED"/>
<stop offset="1" stop-color="#FF719D"/>
</linearGradient>
<linearGradient id="paint8_linear" x1="4.79382" y1="31.2328" x2="18.016" y2="31.6436" gradientUnits="userSpaceOnUse">
<stop stop-color="#7AC8FF"/>
<stop offset="0.500395" stop-color="#547BED"/>
<stop offset="1" stop-color="#FF719D"/>
</linearGradient>
<linearGradient id="paint9_linear" x1="4.8114" y1="14.7032" x2="18.0108" y2="14.7419" gradientUnits="userSpaceOnUse">
<stop stop-color="#7AC8FF"/>
<stop offset="0.500395" stop-color="#547BED"/>
<stop offset="1" stop-color="#FF719D"/>
</linearGradient>
</defs>
</svg>
