<svg width="40" height="40" viewBox="0 0 40 40" fill="none" xmlns="http://www.w3.org/2000/svg">
<g clip-path="url(#clip0)">
<path d="M22.0049 25.1907H20.1056C19.8488 24.2795 18.9996 23.6086 17.9939 23.6086C17.8864 23.6086 17.7808 23.6166 17.6774 23.6313L16.0514 19.7911C15.927 19.4972 15.5839 19.3579 15.2852 19.4807C14.9865 19.6031 14.8452 19.9406 14.9696 20.2345L16.6052 24.0973C16.1139 24.4935 15.7999 25.0949 15.7999 25.7672C15.7999 26.9563 16.7841 27.9236 17.9938 27.9236C18.9994 27.9236 19.8484 27.2536 20.1053 26.3436H22.0049C22.3285 26.3436 22.5909 26.0856 22.5909 25.7672C22.5909 25.4487 22.3285 25.1907 22.0049 25.1907ZM17.9939 26.7706C17.4303 26.7706 16.9718 26.3205 16.9718 25.7672C16.9718 25.2127 17.4303 24.7615 17.9939 24.7615C18.5562 24.7615 19.0137 25.2127 19.0137 25.7672C19.0137 26.3205 18.5562 26.7706 17.9939 26.7706Z" fill="url(#paint0_linear)"/>
<path d="M5.02771 25.767C5.02771 23.3771 5.62302 21.1778 6.74927 19.4066C8.70474 16.3291 9.38779 14.5661 7.72263 10.5998C7.67794 10.4935 7.63365 10.3975 7.59209 10.3117C10.4966 10.0756 12.6541 11.9818 13.6244 13.701C13.7626 13.9459 14.0597 14.0574 14.3286 13.9657C14.5975 13.874 14.7605 13.6053 14.715 13.3288C14.2719 10.64 15.1421 9.79783 16.2439 8.73163C17.5551 7.46267 19.0383 6.02722 18.2672 1.57666C18.2809 1.58389 18.2949 1.5915 18.3092 1.59972C24.0713 4.90499 24.2232 7.13553 24.399 9.71827C24.5325 11.6776 24.6837 13.8983 27.13 16.7125C27.14 16.724 27.1505 16.7352 27.1615 16.746C28.0436 17.612 28.7936 18.5974 29.3904 19.675C29.5452 19.9544 29.9011 20.0578 30.1852 19.9053C30.4694 19.753 30.5742 19.4029 30.4194 19.1232C29.7726 17.9552 28.9606 16.8865 28.0058 15.9461C25.8265 13.431 25.6951 11.5044 25.5683 9.64118C25.3783 6.85183 25.1989 4.2172 18.8985 0.603169C18.6279 0.448517 17.9425 0.127606 17.4245 0.486104C17.2423 0.612239 16.9546 0.919852 17.0747 1.5626C17.8227 5.58647 16.6565 6.71501 15.422 7.90972C14.557 8.74685 13.6035 9.66969 13.4514 11.5359C12.9515 11.0138 12.3829 10.5558 11.7718 10.1888C10.4212 9.37768 8.90443 9.02679 7.38412 9.17276C6.92998 9.21696 6.50107 9.25862 6.29474 9.63172C6.1031 9.97823 6.26959 10.2962 6.41646 10.5769C6.48396 10.7059 6.56052 10.8521 6.63959 11.0403C8.11669 14.5585 7.60224 15.8894 5.75576 18.7954C4.51279 20.75 3.85583 23.1608 3.85583 25.7671C3.85583 26.0856 4.11818 26.3436 4.44177 26.3436C4.76537 26.3436 5.02771 26.0854 5.02771 25.767Z" fill="url(#paint1_linear)"/>
<path d="M30.8036 21.3692C30.4937 21.4608 30.318 21.7823 30.4111 22.0872C30.7744 23.2767 30.9587 24.5148 30.9587 25.767C30.9587 29.1741 29.6101 32.3773 27.1615 34.7864C24.7114 37.197 21.4558 38.5246 17.9945 38.5246C14.5319 38.5246 11.2755 37.197 8.82514 34.7861C6.9985 32.991 5.7703 30.7278 5.27326 28.2415C5.21076 27.9291 4.90225 27.7259 4.5853 27.7871C4.2678 27.8486 4.061 28.1516 4.12342 28.4641C4.66553 31.176 6.0049 33.6442 7.9967 35.6017C10.6682 38.2301 14.2188 39.6776 17.9945 39.6776C21.7688 39.6776 25.3187 38.2301 27.9901 35.6016C30.6601 32.9747 32.1306 29.482 32.1306 25.767C32.1306 24.4022 31.9297 23.0525 31.5334 21.7554C31.4402 21.4505 31.1135 21.2777 30.8036 21.3692Z" fill="url(#paint2_linear)"/>
<path d="M17.9938 15.6299C12.3029 15.6299 7.67297 20.1853 7.67297 25.7847C7.67297 31.3828 12.3029 35.9371 17.9938 35.9371C23.6836 35.9371 28.3125 31.3827 28.3125 25.7847C28.3125 20.1854 23.6836 15.6299 17.9938 15.6299ZM26.0473 26.3435H27.1225C26.9941 28.3943 26.1649 30.2613 24.8677 31.7149L24.1031 30.9626C23.8743 30.7375 23.5034 30.7374 23.2745 30.9625C23.0456 31.1876 23.0456 31.5527 23.2745 31.7777L24.0402 32.5312C22.5642 33.8134 20.666 34.6347 18.5798 34.7651V33.6908C18.5798 33.3724 18.3175 33.1143 17.9939 33.1143C17.6703 33.1143 17.408 33.3724 17.408 33.6908V34.7652C15.321 34.6347 13.4222 33.8132 11.9457 32.5309L12.7112 31.7778C12.94 31.5527 12.94 31.1877 12.7112 30.9626C12.4823 30.7375 12.1113 30.7374 11.8826 30.9627L11.1182 31.7148C9.82086 30.2611 8.99149 28.3942 8.86313 26.3436H9.93836C10.262 26.3436 10.5243 26.0856 10.5243 25.7671C10.5243 25.4487 10.262 25.1906 9.93836 25.1906H8.8654C9.00157 23.1444 9.83563 21.2827 11.1353 19.8342L11.8826 20.5694C11.997 20.682 12.147 20.7382 12.2969 20.7382C12.4468 20.7382 12.5968 20.682 12.7112 20.5695C12.94 20.3442 12.94 19.9793 12.7112 19.7542L11.9649 19.0199C13.4387 17.7469 15.3302 16.9317 17.4081 16.8019V17.8411C17.4081 18.1596 17.6704 18.4176 17.994 18.4176C18.3176 18.4176 18.5799 18.1596 18.5799 17.8411V16.8019C20.657 16.9318 22.5479 17.7467 24.0212 19.0196L23.2745 19.7542C23.0457 19.9794 23.0458 20.3444 23.2745 20.5695C23.389 20.682 23.5389 20.7382 23.6888 20.7382C23.8388 20.7382 23.9888 20.682 24.1032 20.5694L24.8507 19.8339C26.1502 21.2825 26.9842 23.1442 27.1204 25.1906H26.0474C25.7238 25.1906 25.4615 25.4487 25.4615 25.7671C25.4615 26.0856 25.7237 26.3435 26.0473 26.3435Z" fill="url(#paint3_linear)"/>
<path d="M35.222 8.76495C35.1382 8.67786 35.052 8.58955 34.9643 8.49961C33.9769 7.487 32.8578 6.33933 32.9166 4.75014C32.9387 4.17335 32.6297 3.86451 32.3332 3.76773C32.0415 3.67242 31.617 3.73214 31.3004 4.18473C31.3004 4.1848 31.3004 4.1848 31.3004 4.18488C31.2292 4.28672 31.151 4.39772 31.0673 4.5164C29.599 6.60051 28.0325 8.96003 28.0325 10.5835C28.0325 13.223 30.125 14.8567 32.0639 14.8567C33.6793 14.8567 35.1993 13.8629 35.8462 12.3836C36.4054 11.105 36.1721 9.7522 35.222 8.76495ZM34.7698 11.928C34.3833 12.812 33.3966 13.7038 32.0639 13.7038C30.6886 13.7038 29.2043 12.5109 29.2043 10.5836C29.2043 9.29809 30.8161 6.9062 31.7893 5.51641C32.0324 7.15824 33.1753 8.33036 34.1187 9.29793C34.2046 9.38602 34.289 9.47249 34.3711 9.55789C34.9983 10.2093 35.1436 11.0734 34.7698 11.928Z" fill="url(#paint4_linear)"/>
</g>
<defs>
<linearGradient id="paint0_linear" x1="14.9244" y1="23.0985" x2="22.591" y2="23.1169" gradientUnits="userSpaceOnUse">
<stop stop-color="#7AC8FF"/>
<stop offset="0.500395" stop-color="#547BED"/>
<stop offset="1" stop-color="#FF719D"/>
</linearGradient>
<linearGradient id="paint1_linear" x1="3.85583" y1="11.5509" x2="30.4912" y2="11.6236" gradientUnits="userSpaceOnUse">
<stop stop-color="#7AC8FF"/>
<stop offset="0.500395" stop-color="#547BED"/>
<stop offset="1" stop-color="#FF719D"/>
</linearGradient>
<linearGradient id="paint2_linear" x1="4.1123" y1="29.2555" x2="32.1307" y2="29.3697" gradientUnits="userSpaceOnUse">
<stop stop-color="#7AC8FF"/>
<stop offset="0.500395" stop-color="#547BED"/>
<stop offset="1" stop-color="#FF719D"/>
</linearGradient>
<linearGradient id="paint3_linear" x1="7.67297" y1="24.3926" x2="28.3127" y2="24.4485" gradientUnits="userSpaceOnUse">
<stop stop-color="#7AC8FF"/>
<stop offset="0.500395" stop-color="#547BED"/>
<stop offset="1" stop-color="#FF719D"/>
</linearGradient>
<linearGradient id="paint4_linear" x1="28.0325" y1="8.53069" x2="36.1457" y2="8.54646" gradientUnits="userSpaceOnUse">
<stop stop-color="#7AC8FF"/>
<stop offset="0.500395" stop-color="#547BED"/>
<stop offset="1" stop-color="#FF719D"/>
</linearGradient>
<clipPath id="clip0">
<rect width="40" height="39.3548" fill="white" transform="translate(0 0.322754)"/>
</clipPath>
</defs>
</svg>
