<svg width="40" height="40" viewBox="0 0 40 40" fill="none" xmlns="http://www.w3.org/2000/svg">
<path d="M29.5833 5C32.4717 5 34.8321 7.26076 34.9914 10.1093L35 10.4167V29.5833C35 32.4717 32.7392 34.8321 29.8907 34.9914L29.5833 35H10.4167C7.52829 35 5.16793 32.7392 5.00858 29.8907L5.00001 29.5833L4.99953 15.6201C5.39064 15.7584 5.81153 15.8337 6.25001 15.8337C6.68843 15.8337 7.10928 15.7584 7.50035 15.6202L7.50001 29.5833C7.50001 31.1136 8.67852 32.3687 10.1775 32.4903L10.4167 32.5H29.5833C31.1136 32.5 32.3687 31.3215 32.4903 29.8225L32.5 29.5833V10.4167C32.5 8.88638 31.3215 7.63135 29.8226 7.50967L29.5833 7.5H10.4167C9.41638 7.5 8.53369 8.00355 8.00828 8.771C7.48508 8.49167 6.88603 8.33333 6.25001 8.33333C5.94796 8.33333 5.65426 8.36904 5.37288 8.43647C6.12836 6.51498 7.94995 5.12937 10.1093 5.00857L10.4167 5H29.5833ZM22.0767 21.6718C22.7671 21.6718 23.3267 22.2314 23.3267 22.9218C23.3267 23.5546 22.8565 24.0776 22.2463 24.1603L22.0767 24.1718H14.5796C13.8893 24.1718 13.3296 23.6121 13.3296 22.9218C13.3296 22.2889 13.7999 21.7659 14.41 21.6832L14.5796 21.6718H22.0767ZM25.4204 15.827C26.1108 15.827 26.6704 16.3867 26.6704 17.077C26.6704 17.7099 26.2002 18.2329 25.59 18.3156L25.4204 18.327H14.5796C13.8893 18.327 13.3296 17.7674 13.3296 17.077C13.3296 16.4442 13.7999 15.9212 14.41 15.8385L14.5796 15.827H25.4204ZM6.25001 10C7.40069 10 8.33351 10.9328 8.33351 12.0835C8.33351 13.2342 7.40069 14.167 6.25001 14.167C5.09932 14.167 4.1665 13.2342 4.1665 12.0835C4.1665 10.9328 5.09932 10 6.25001 10Z" fill="url(#paint0_linear_2927_281)"/>
<defs>
<linearGradient id="paint0_linear_2927_281" x1="4.1665" y1="17.9452" x2="35.0003" y2="18.0297" gradientUnits="userSpaceOnUse">
<stop stop-color="#7AC8FF"/>
<stop offset="0.500395" stop-color="#547BED"/>
<stop offset="1" stop-color="#FF719D"/>
</linearGradient>
</defs>
</svg>
