<svg width="49" height="44" viewBox="0 0 49 44" fill="none" xmlns="http://www.w3.org/2000/svg">
<path d="M34.9375 43.4375H13.0625V42.3125H23.4375V35.625H3.6875C1.65469 35.625 0 33.9703 0 31.9375V5.375C0 3.34219 1.65469 1.6875 3.6875 1.6875H36.2672C36.7547 0.759375 37.7266 0.125 38.8437 0.125C40.4453 0.125 41.75 1.42812 41.75 3.03125C41.75 4.63437 40.4453 5.9375 38.8437 5.9375C38.2453 5.9375 37.6891 5.75625 37.2266 5.44531L27.1953 15.4766C27.5062 15.9391 27.6875 16.4953 27.6875 17.0937C27.6875 18.6953 26.3828 20 24.7812 20C23.1797 20 21.875 18.6969 21.875 17.0937C21.875 16.4953 22.0562 15.9391 22.3672 15.4766L20.1484 13.2578C19.2234 13.8797 17.8375 13.8797 16.9141 13.2578L11.5703 18.6016C11.8812 19.0641 12.0625 19.6203 12.0625 20.2187C12.0625 21.8203 10.7594 23.125 9.15625 23.125C7.55312 23.125 6.25 21.8203 6.25 20.2187C6.25 18.6172 7.55312 17.3125 9.15625 17.3125C9.75469 17.3125 10.3109 17.4937 10.7734 17.8047L16.1172 12.4609C15.8062 11.9984 15.625 11.4422 15.625 10.8437C15.625 9.24219 16.9281 7.9375 18.5312 7.9375C20.1344 7.9375 21.4375 9.24062 21.4375 10.8437C21.4375 11.4422 21.2562 11.9984 20.9453 12.4609L23.1641 14.6797C24.0891 14.0578 25.475 14.0578 26.3984 14.6797L36.4297 4.64844C36.1187 4.18594 35.9375 3.62969 35.9375 3.03125C35.9375 2.95781 35.9406 2.88437 35.9469 2.8125H3.6875C2.275 2.8125 1.125 3.9625 1.125 5.375V26.6875H46.875V2.25H48.0016V31.9375C48.0016 33.9719 46.3469 35.625 44.3141 35.625H24.5625V42.3109H34.9375V43.4375ZM1.125 27.8125V31.9375C1.125 33.35 2.275 34.5 3.6875 34.5H44.3125C45.725 34.5 46.875 33.3516 46.875 31.9375V27.8125H1.125ZM9.15625 18.4375C8.175 18.4375 7.375 19.2375 7.375 20.2187C7.375 21.2 8.175 22 9.15625 22C10.1375 22 10.9375 21.2 10.9375 20.2187C10.9375 19.2375 10.1375 18.4375 9.15625 18.4375ZM24.7812 15.3125C23.8 15.3125 23 16.1125 23 17.0937C23 18.075 23.8 18.875 24.7812 18.875C25.7641 18.875 26.5625 18.075 26.5625 17.0937C26.5625 16.1125 25.7641 15.3125 24.7812 15.3125ZM18.5312 9.0625C17.55 9.0625 16.75 9.8625 16.75 10.8437C16.75 11.825 17.55 12.625 18.5312 12.625C19.5125 12.625 20.3125 11.825 20.3125 10.8437C20.3125 9.8625 19.5125 9.0625 18.5312 9.0625ZM38.8437 1.25C37.8609 1.25 37.0625 2.05 37.0625 3.03125C37.0625 4.0125 37.8609 4.8125 38.8437 4.8125C39.8266 4.8125 40.625 4.0125 40.625 3.03125C40.625 2.05 39.8266 1.25 38.8437 1.25Z" fill="url(#paint0_linear_3609_260)"/>
<defs>
<linearGradient id="paint0_linear_3609_260" x1="-2.06176e-07" y1="18.8146" x2="48.002" y2="18.9565" gradientUnits="userSpaceOnUse">
<stop stop-color="#7AC8FF"/>
<stop offset="0.500395" stop-color="#547BED"/>
<stop offset="1" stop-color="#FF719D"/>
</linearGradient>
</defs>
</svg>
