<svg width="88" height="102" viewBox="0 0 88 102" fill="none" xmlns="http://www.w3.org/2000/svg">
<path d="M57.9157 15.4268L54.8374 14.524V16.2187L54.4408 16.2345V19.7507L53.1555 16.2979L48.5382 16.4721L48.5065 16.5196L46.3485 25.1358L46.8404 25.1199L52.2828 24.9615L52.9016 22.7125L53.4411 24.9299L53.8537 24.914L52.4574 29.5072H55.8847L59.5976 27.1314L61.4382 23.1243L60.8035 18.7687L57.9157 15.4268ZM54.7581 12.4808L54.6312 11.8156C55.2817 10.5327 56.5828 9.75657 57.5349 8.39446C57.8522 7.9193 57.8522 7.44415 58.0109 6.96899C58.4869 8.55285 58.0109 10.1367 57.6935 11.7205C57.6935 12.2749 57.5825 12.8134 57.7411 13.3678L54.7581 12.4808ZM59.2961 14.0805C60.4068 13.4628 61.6603 13.3044 62.9297 12.9876C63.8817 12.6709 64.6751 12.1957 65.3098 11.5622C65.1511 11.8789 65.1511 12.0373 64.9924 12.3541C64.6751 12.8292 64.5164 13.3044 64.1991 13.7796C63.3264 14.7932 62.1839 15.5535 61.5175 16.6463L59.2961 14.0805ZM67.3566 19.4814C67.8327 19.4814 68.3087 19.4814 68.7847 19.4814C67.674 20.2733 66.4046 20.5901 64.9766 20.9069C64.4053 20.9069 63.7231 21.287 63.136 21.5879L62.6917 18.4994C64.326 18.2935 65.7065 19.0221 67.3566 19.4814ZM66.2459 27.2423C66.5633 27.5591 67.0393 27.7174 67.5153 27.8758C65.6113 28.0342 64.0245 27.0839 62.2791 26.7671C62.1205 26.7671 61.9935 26.7671 61.8666 26.7671L63.1518 23.9637C64.5323 24.7556 65.167 26.1494 66.2459 27.2423ZM55.1548 31.4553C55.1865 32.9125 54.3138 34.1162 53.7109 35.4625C53.5522 35.9376 53.5522 36.2544 53.5522 36.7295C52.9175 35.6209 52.9175 34.3538 52.9175 33.0867C52.9175 32.5482 52.5684 31.9938 52.267 31.4553H55.1548ZM61.3271 33.2609C61.4858 33.7361 61.6445 34.0528 61.9618 34.3696C61.3271 34.2112 61.0098 33.8945 60.5338 33.5777C59.5183 32.564 59.0264 31.2811 57.9791 30.4733L60.4068 28.9053C61.0098 30.315 60.867 31.8513 61.3271 33.2609Z" fill="url(#paint0_linear)"/>
<path d="M36.7644 12.2591L34.0036 11.9106L30.1954 14.6824L33.5593 18.8954L36.3202 16.2979L35.5109 13.9063L36.7644 12.2591Z" fill="#6B6B6B"/>
<path d="M40.0966 7.8559L38.4465 4.11801L30.1955 2.12236L27.9741 0L28.6088 3.92795L35.511 7.07981L36.7645 12.259L40.0966 7.8559Z" fill="#BABABA"/>
<path d="M12.551 5.73357L16.5972 7.85593H20.4053L25.5621 4.3081L28.6086 3.92798L35.5108 7.07984L36.7643 12.259L34.0034 11.9106L27.3868 11.7205L26.054 12.8292L17.0732 12.259L12.551 5.73357Z" fill="#A8A8A8"/>
<path d="M34.0034 11.9105L27.3868 11.7205L18.1045 19.3863L13.6617 20.8118L18.2632 21.4136L26.9902 18.8003L33.5592 18.8953L30.1953 14.6823L34.0034 11.9105Z" fill="#BABABA"/>
<path d="M36.32 16.2976L30.8775 21.4135L28.6561 26.1967L32.5753 22.5538L37.3513 19.3861L36.32 16.2976Z" fill="#BABABA"/>
<path d="M23.182 35.5888L28.6562 31.059L32.5754 22.5537L37.3514 19.386L35.8757 26.8776L30.1953 32.0251L23.182 35.5888Z" fill="#A8A8A8"/>
<path d="M33.0042 38.6776L36.3363 32.4214L41.0329 28.0025L35.8761 26.8779L34.0038 32.4214L33.0042 38.6776Z" fill="#949494"/>
<path d="M41.8103 47.3096L39.2081 52.1562L38.4147 57.858L35.876 51.5385L37.3516 44.3478L41.8103 37.7273V47.3096L44.6823 47.8006L41.8103 47.3096Z" fill="#6B6B6B"/>
<path d="M37.3515 60.5189L34.8444 58.7766L34.0035 54.8012L36.1297 52.1562L35.8758 51.5385L37.3515 44.3478L41.8101 37.7273V30.6475L33.4323 44.7754L29.6241 50.0813V55.7832L32.623 59.5052L37.3515 60.5189Z" fill="#757575"/>
<path d="M4.14148 30.2516L5.72819 26.878L8.58428 24.9298L12.5511 25.1357L17.0256 21.2553L13.6618 20.8118L18.1046 19.3863L23.8326 14.6506H17.7872L13.1064 18.0242L11.2817 20.8118L6.99757 22.1264L4.8555 25.1357L4.14148 30.2516Z" fill="#878787"/>
<path d="M0.952271 17.2165H5.71242L8.45744 13.7004L12.5512 11.4038H16.4862L17.0733 12.2591L26.0541 12.8293L23.8327 14.6507H17.7873L13.1065 18.0243L10.5678 19.4023L6.12496 19.7032L0.952271 17.2165Z" fill="#969696"/>
<path d="M15.8041 30.6475L18.6602 26.1969L26.0543 25.1357L30.4019 22.4432L30.8779 21.4136L33.5594 18.8953L26.9904 18.8003L21.4369 22.4432L17.8668 24.3754L15.8041 30.6475Z" fill="#A8A8A8"/>
<path d="M4.14166 42.4789L4.77634 37.7273L8.50512 36.5394L13.5033 33.055L16.8512 27.4798L17.8667 24.3754L21.4369 22.4432L26.9904 18.8003L18.2634 21.4136L17.0258 21.2553L12.5512 25.1357L10.2981 28.541L5.33169 31.677L2.63428 35.5891L4.14166 42.4789Z" fill="#969696"/>
<path d="M11.6783 40.6257L16.7558 38.8518L22.7378 34.2111L28.6562 31.0593L32.5754 22.554L28.6562 26.1968L30.4016 22.4431L26.054 27.4798L21.4366 29.8872L17.8665 34.9555L15.8038 37.9173L11.6783 40.6257Z" fill="#878787"/>
<path d="M9.37774 54.8012L9.06039 51.6652L10.4884 47.8006L15.1692 44.2211L20.0087 38.1232L20.9608 35.5891L16.756 38.8518L11.6785 40.6257L15.8039 37.9173L21.4368 29.8872L26.0541 27.4798L30.4017 22.4431L26.0541 25.1357L18.66 26.1968L15.8039 30.6475L16.8512 27.4798L13.5032 33.0549L8.50504 36.5394L5.72829 41.8453L4.93494 49.0518L6.12497 51.6652L9.37774 54.8012Z" fill="#6B6B6B"/>
<path d="M8.82227 59.5051L12.9477 56.9234L16.3433 53.0272L18.9772 46.0424V39.4219L15.1691 44.2209L11.9957 46.6442L11.6784 50.9048L12.551 54.8011L8.82227 59.5051Z" fill="#7A7A7A"/>
<path d="M20.1516 48.5292L18.9774 46.0425L20.5641 41.1801L26.0542 37.7273L28.7199 32.7699L30.1955 32.0254L35.8759 26.8779L34.0036 32.4214L31.4173 34.7497L30.2748 37.9649L26.435 41.4494L22.4682 42.4789L20.5165 45.5832L20.1516 48.5292Z" fill="#878787"/>
<path d="M28.6563 31.0596L22.7378 34.2114L20.9607 35.5894L20.0087 38.1235L18.9773 39.4223V46.0428L20.564 41.1804L26.054 37.7276L28.7197 32.7701L23.1821 35.5894" fill="#969696"/>
<path d="M26.7046 64.8428L22.7378 59.0459L21.6271 50.4773L26.7046 42.7639L28.6562 39.422L30.2747 37.9649L31.4171 34.7497L34.0035 32.4214L33.0038 38.6776L36.3359 32.4214L41.0326 28.0024L41.8101 30.6475L33.4322 44.7754L29.6241 50.0813L26.7046 54.231L26.0381 58.4282L26.7046 64.8428Z" fill="#808080"/>
<path d="M21.7383 62.166L18.9774 57.1293L21.6272 50.4772L26.7047 42.7638L28.6563 39.4219L26.4349 41.4492L22.4682 42.4787L20.5165 45.5831L20.1516 48.529L18.9774 46.0424L16.3434 53.0272L14.8202 56.4166L15.7088 58.9191L21.7383 62.166Z" fill="#6B6B6B"/>
<path d="M42.9685 12.1643L35.511 13.9065L40.0966 7.8562L42.9685 12.1643Z" fill="#ADADAD"/>
<path d="M21.7385 62.1666L22.7382 59.0464L26.7049 64.8433L21.7385 62.1666Z" fill="#B0B0B0"/>
<path d="M21.6275 50.4778L18.9777 57.13L22.7382 59.0464L21.6275 50.4778Z" fill="#8A8A8A"/>
<path d="M21.7385 62.1668L22.7382 59.0466L18.9777 57.1301L21.7385 62.1668Z" fill="#9E9E9E"/>
<path d="M15.7087 58.9194L26.7047 64.843L17.5017 67.4722L15.7087 58.9194Z" fill="#BABABA"/>
<path d="M32.6232 59.5059L26.7047 64.8434L33.8925 67.1559L32.6232 59.5059Z" fill="#D6D6D6"/>
<path d="M29.6243 55.7839L26.7047 54.2317L29.6243 50.082V55.7839Z" fill="#949494"/>
<path d="M26.0385 58.4287L29.6244 55.7836L26.7049 54.2314L26.0385 58.4287Z" fill="#A6A6A6"/>
<path d="M32.6232 59.5057L26.0383 58.4287L29.6243 55.7837L32.6232 59.5057Z" fill="#B5B5B5"/>
<path d="M26.7049 64.843L26.0385 58.4285L32.6233 59.5055L26.7049 64.843Z" fill="#C7C7C7"/>
<path d="M37.3517 60.5195L33.8927 67.1559L32.6233 59.5059L37.3517 60.5195Z" fill="#E3E3E3"/>
<path d="M36.13 52.1565L34.0038 54.8015L38.4148 57.8584L36.13 52.1565Z" fill="#A1A1A1"/>
<path d="M34.8447 58.7767L38.4148 57.8581L34.0038 54.8013L34.8447 58.7767Z" fill="#B3B3B3"/>
<path d="M37.3517 60.5193L38.4148 57.8584L34.8447 58.777L37.3517 60.5193Z" fill="#C9C9C9"/>
<path d="M47.1893 11.7207L45.5867 10.3428L42.9686 12.1642L47.1893 11.7207Z" fill="white"/>
<path d="M45.5868 10.3428L40.0968 7.8562L42.9688 12.1643L45.5868 10.3428Z" fill="#9E9E9E"/>
<path d="M53.8536 24.9302L51.9813 31.0597L44.8093 28.8265L53.8536 24.9302Z" fill="#C2C2C2"/>
<path d="M53.8536 24.9302L46.3484 25.1361L44.8093 28.8265L53.8536 24.9302Z" fill="#B5B5B5"/>
<path d="M43.6826 15.2369L37.3516 19.3866L35.511 13.9065L43.6826 15.2369Z" fill="#B5B5B5"/>
<path d="M43.9047 23.5684L43.6826 15.2373L37.3516 19.387L43.9047 23.5684Z" fill="#D4D4D4"/>
<path d="M48.0144 31.6771L51.9812 31.0594L44.8092 28.8262L48.0144 31.6771Z" fill="#D4D4D4"/>
<path d="M47.1893 11.7208L51.6638 11.6257L43.6826 15.2369L47.1893 11.7208Z" fill="#A3A3A3"/>
<path d="M54.8375 12.9406L51.6641 11.626L54.4408 10.8816L54.8375 12.9406Z" fill="#696969"/>
<path d="M43.9048 23.568L51.6638 11.6257L43.6826 15.2369L43.9048 23.568Z" fill="#B5B5B5"/>
<path d="M54.8372 16.2189L48.5221 16.4723L51.6638 11.6257L54.8372 12.9403V16.2189Z" fill="#C2C2C2"/>
<path d="M46.3484 25.1358L48.5222 16.4722L43.9049 23.5678L46.3484 25.1358Z" fill="#A3A3A3"/>
<path d="M54.4408 16.2346V19.7508L53.1714 16.298L54.4408 16.2346Z" fill="white"/>
<path d="M48.5223 34.9558L48.0145 31.6773L51.9813 31.0596L48.5223 34.9558Z" fill="#9E9E9E"/>
<path d="M53.4252 24.93L52.9015 22.7126L52.2827 24.9617L53.4252 24.93Z" fill="white"/>
<path d="M47.1893 11.7205L43.6826 15.2366L42.9686 12.1639L47.1893 11.7205Z" fill="#C2C2C2"/>
<path d="M42.9685 12.1643L43.6826 15.237L35.511 13.9065L42.9685 12.1643Z" fill="#D4D4D4"/>
<path d="M44.8092 28.8265L43.9048 23.5681L46.3483 25.1361L44.8092 28.8265Z" fill="#9E9E9E"/>
<path d="M44.8092 28.8262V33.0551L41.8103 30.6476L44.8092 28.8262Z" fill="#808080"/>
<path d="M41.8103 47.3096V30.6475L44.8092 33.0549L41.8103 47.3096Z" fill="#9E9E9E"/>
<path d="M44.8093 28.8265L35.8761 26.8784L43.9049 23.5681L44.8093 28.8265Z" fill="#ADADAD"/>
<path d="M37.3517 19.3867L35.8761 26.8783L43.9049 23.5681L37.3517 19.3867Z" fill="#C2C2C2"/>
<path d="M44.8092 28.8263L41.0328 28.0027L41.8103 30.6477L44.8092 28.8263Z" fill="#9E9E9E"/>
<path d="M39.6999 81.458L37.2246 73.8872L29.6243 79.0189L39.6999 81.458Z" fill="#D6D6D6"/>
<path d="M33.8925 67.156L37.2246 73.8874L29.6243 79.0191L33.8925 67.156Z" fill="#F0F0F0"/>
<path d="M26.7047 64.8435L33.8925 67.1559L29.6243 79.019L26.7047 64.8435Z" fill="#E3E3E3"/>
<path d="M39.6999 81.4582L37.2246 91.2305L29.6243 79.019L39.6999 81.4582Z" fill="#E6E6E6"/>
<path d="M31.1634 89.8843L37.2246 91.2305L29.6243 79.019L31.1634 89.8843Z" fill="#D6D6D6"/>
<path d="M37.2249 95.3962L33.9404 102.001L32.0681 96.5366L37.2249 95.3962Z" fill="#9E9E9E"/>
<path d="M37.2248 91.2305L32.068 96.5364L37.2248 95.396V91.2305Z" fill="#B0B0B0"/>
<path d="M30.3065 94.224L32.0678 96.5364L37.2246 91.2305L30.3065 94.224Z" fill="#BFBFBF"/>
<path d="M33.9403 102.001H25.2927L32.068 96.5364L33.9403 102.001Z" fill="#8C8C8C"/>
<path d="M31.1633 89.8843L37.2246 91.2305L30.3065 94.224L31.1633 89.8843Z" fill="#CCCCCC"/>
<path d="M22.7382 98.6904L25.2928 96.5364V102.001L22.7382 98.6904Z" fill="#757575"/>
<path d="M30.3068 94.2239L25.2927 96.5363H32.068L30.3068 94.2239Z" fill="#A6A6A6"/>
<path d="M26.705 64.8435L22.7382 72.0184L28.1647 71.9233L26.705 64.8435Z" fill="#D6D6D6"/>
<path d="M22.7382 72.0184L17.5021 67.4727L26.705 64.8435L22.7382 72.0184Z" fill="#CCCCCC"/>
<path d="M32.068 96.5364H25.2927V102.001L32.068 96.5364Z" fill="#969696"/>
<path d="M75.8612 24.582L76.9243 31.06L73.8619 30.2364L75.8612 24.582Z" fill="#C7C7C7"/>
<path d="M71.0695 29.587L73.8621 30.2364L75.8613 24.582L71.0695 29.587Z" fill="#E6E6E6"/>
<path d="M70.9266 36.5244L71.0694 29.5872L73.8621 30.2365L70.9266 36.5244Z" fill="#B5B5B5"/>
<path d="M74.6394 35.5422L70.9265 36.5242L73.8619 30.2363L74.6394 35.5422Z" fill="#9C9C9C"/>
<path d="M76.9243 31.0599L74.6394 35.5422L73.8619 30.2363L76.9243 31.0599Z" fill="#A6A6A6"/>
<path d="M70.9265 36.5242L72.418 38.1081L74.6394 35.5422L70.9265 36.5242Z" fill="#858585"/>
<path d="M47.5385 40.0721L44.8093 33.0557L41.8104 47.3103L47.5385 40.0721Z" fill="#B5B5B5"/>
<path d="M41.8104 47.3103L39.2081 52.1569L44.6823 47.8013L41.8104 47.3103Z" fill="#B0B0B0"/>
<path d="M83.5887 101.731H80.1296L81.0975 97.9775L83.5887 101.731Z" fill="#636363"/>
<path d="M78.638 82.7256L78.2255 91.3576L84.0328 87.7464L78.638 82.7256Z" fill="#B8B8B8"/>
<path d="M72.0531 87.2237L78.638 82.7256L78.2254 91.3576L72.0531 87.2237Z" fill="#C7C7C7"/>
<path d="M69.197 77.8948L78.638 82.7255L72.0531 87.2237L69.197 77.8948Z" fill="#D6D6D6"/>
<path d="M73.9254 71.5593L69.197 77.8947L78.638 82.7255L73.9254 71.5593Z" fill="#E6E6E6"/>
<path d="M65.7855 80.6665L69.197 77.8948L72.0531 87.2237L65.7855 80.6665Z" fill="#C7C7C7"/>
<path d="M73.148 66.6333L64.913 69.896L73.9255 71.5591L73.148 66.6333Z" fill="#D6D6D6"/>
<path d="M69.1971 77.8947L64.913 69.8962L73.9255 71.5593L69.1971 77.8947Z" fill="#DEDEDE"/>
<path d="M65.7857 80.6664L64.913 69.8962L69.1971 77.8947L65.7857 80.6664Z" fill="#BDBDBD"/>
<path d="M58.1058 75.709L64.9128 69.8962L65.7855 80.6664L58.1058 75.709Z" fill="#A6A6A6"/>
<path d="M46.4277 96.5364L51.0292 98.9122L44.9996 100.417L46.4277 96.5364Z" fill="#696969"/>
<path d="M53.3299 96.5364L51.0292 98.9122L46.4277 96.5364H53.3299Z" fill="#8C8C8C"/>
<path d="M55.5511 102.001L51.0289 98.9122L53.3297 96.5364L55.5511 102.001Z" fill="#757575"/>
<path d="M46.4277 102.001H55.5514L51.0292 98.9121L46.4277 102.001Z" fill="#616161"/>
<path d="M44.9996 100.417L51.0292 98.9121L46.4277 102.001L44.9996 100.417Z" fill="#757575"/>
<path d="M53.3298 96.5363L60.6287 95.1108L55.5512 102.001L53.3298 96.5363Z" fill="#8C8C8C"/>
<path d="M57.8044 89.8843L60.6287 95.111L53.3298 96.5364L57.8044 89.8843Z" fill="#7D7D7D"/>
<path d="M56.9792 81.8857L57.8043 89.8842L62.7708 88.4587L56.9792 81.8857Z" fill="#757575"/>
<path d="M60.6289 95.111L62.771 91.2305L57.8046 89.8843L60.6289 95.111Z" fill="#8C8C8C"/>
<path d="M62.771 88.4587V91.2305L57.8046 89.8842L62.771 88.4587Z" fill="#808080"/>
<path d="M49.8868 80.302L56.9795 81.8859L57.8046 89.8843L49.8868 80.302Z" fill="#808080"/>
<path d="M44.5234 83.1529L49.8865 80.302L50.9972 87.8253L44.5234 83.1529Z" fill="#757575"/>
<path d="M57.8046 89.8843L50.9975 87.8253L49.8868 80.302L57.8046 89.8843Z" fill="#8C8C8C"/>
<path d="M53.3298 96.5364L53.8376 91.2305L57.8044 89.8843L53.3298 96.5364Z" fill="#8C8C8C"/>
<path d="M50.9973 87.8252L57.8043 89.8842L53.8375 91.2305L50.9973 87.8252Z" fill="#808080"/>
<path d="M41.8104 77.752L49.8868 80.3019L44.5237 83.1529L41.8104 77.752Z" fill="#696969"/>
<path d="M56.9795 78.8765V81.8858L49.8868 80.3019L56.9795 78.8765Z" fill="#757575"/>
<path d="M67.055 61.3591L73.148 66.6333L64.913 69.8961L67.055 61.3591Z" fill="#E6E6E6"/>
<path d="M49.8868 74.204L55.5673 72.0183L58.106 75.7087L49.8868 74.204Z" fill="#878787"/>
<path d="M64.9128 69.8962L55.567 72.0186L58.1058 75.709L64.9128 69.8962Z" fill="#9E9E9E"/>
<path d="M55.5672 72.0185L48.2366 71.5908L49.8868 74.2042L55.5672 72.0185Z" fill="#949494"/>
<path d="M45.3805 75.2812L49.8868 74.2042L48.2366 71.5908L45.3805 75.2812Z" fill="#878787"/>
<path d="M48.2366 71.5908L43.3971 74.7427L45.3805 75.2812L48.2366 71.5908Z" fill="#6E6E6E"/>
<path d="M46.269 69.8962L48.2366 71.591L43.3971 74.7428L46.269 69.8962Z" fill="#878787"/>
<path d="M45.3805 75.2812L43.3971 74.7427L41.8104 77.752L45.3805 75.2812Z" fill="#616161"/>
<path d="M46.2689 69.8961L46.6339 65.2871L50.0294 67.7262L46.2689 69.8961Z" fill="#9E9E9E"/>
<path d="M48.2365 71.5904L50.0294 67.7258L46.2689 69.8957L48.2365 71.5904Z" fill="#949494"/>
<path d="M64.9128 69.8962L53.4408 67.5996L55.567 72.0186L64.9128 69.8962Z" fill="#BDBDBD"/>
<path d="M48.2363 71.5909L55.567 72.0186L53.4408 67.5996L48.2363 71.5909Z" fill="#A6A6A6"/>
<path d="M53.4408 67.5996L50.0293 67.7263L48.2363 71.5909L53.4408 67.5996Z" fill="#B3B3B3"/>
<path d="M64.9129 69.8961L62.7708 63.1489L53.4409 67.5995L64.9129 69.8961Z" fill="#DEDEDE"/>
<path d="M67.0549 61.3591L62.7708 63.1489L64.9128 69.8961L67.0549 61.3591Z" fill="#D6D6D6"/>
<path d="M62.7707 63.1486L56.9792 57.906L53.4408 67.5992L62.7707 63.1486Z" fill="#D4D4D4"/>
<path d="M67.0549 61.359L62.7708 59.5059V63.1487L67.0549 61.359Z" fill="#C7C7C7"/>
<path d="M56.9792 57.906L62.7708 59.5057V63.1486L56.9792 57.906Z" fill="#B8B8B8"/>
<path d="M56.9795 78.8765L51.5053 76.2473L49.8868 80.302L56.9795 78.8765Z" fill="#696969"/>
<path d="M58.106 75.7087L51.5052 76.2473L56.9794 78.8764L58.106 75.7087Z" fill="#616161"/>
<path d="M51.5053 76.2473L49.8868 74.2041L58.106 75.7088L51.5053 76.2473Z" fill="#7A7A7A"/>
<path d="M41.8104 77.752L51.5053 76.2473L49.8868 80.302L41.8104 77.752Z" fill="#5C5C5C"/>
<path d="M45.3804 75.2815L51.5051 76.2476L41.8103 77.7523L45.3804 75.2815Z" fill="#6E6E6E"/>
<path d="M49.8868 74.2041L45.3805 75.2811L51.5052 76.2473L49.8868 74.2041Z" fill="#808080"/>
<path d="M53.441 67.5995L50.331 54.802L50.0295 67.7262L53.441 67.5995Z" fill="#C7C7C7"/>
<path d="M46.6342 65.2874L50.1725 61.2644L50.0297 67.7265L46.6342 65.2874Z" fill="#B3B3B3"/>
<path d="M45.3805 60.092L46.634 65.2871L50.1724 61.2641L45.3805 60.092Z" fill="#9E9E9E"/>
<path d="M45.9676 56.8135L45.3805 60.092L50.1724 61.2641L45.9676 56.8135Z" fill="#949494"/>
<path d="M50.331 54.8018L48.8553 48.5298L53.1078 55.7838L50.331 54.8018Z" fill="#949494"/>
<path d="M47.7445 53.2338L48.8552 48.5298L50.3309 54.8018L47.7445 53.2338Z" fill="#808080"/>
<path d="M50.331 54.802L45.9675 56.8135L50.1723 61.2641L50.331 54.802Z" fill="#A1A1A1"/>
<path d="M47.7444 53.2336L45.9673 56.8131L50.3308 54.8017L47.7444 53.2336Z" fill="#949494"/>
<path d="M53.1078 55.784L52.0923 62.056L50.3311 54.802L53.1078 55.784Z" fill="#B5B5B5"/>
<path d="M56.9793 57.9063L53.1077 55.7839L55.5671 61.7709L56.9793 57.9063Z" fill="#BFBFBF"/>
<path d="M52.0922 62.0561L55.5671 61.771L53.4409 67.5996L52.0922 62.0561Z" fill="#B3B3B3"/>
<path d="M53.1077 55.7839L55.5671 61.7709L52.0922 62.056L53.1077 55.7839Z" fill="#D4D4D4"/>
<path d="M49.0458 44.7761L47.5385 40.072L41.8104 47.3102L49.0458 44.7761Z" fill="#C2C2C2"/>
<path d="M48.8554 48.5299L49.0458 44.7761L41.8104 47.3103L48.8554 48.5299Z" fill="#B5B5B5"/>
<path d="M45.3804 60.092L33.8926 67.156L46.6339 65.2871L45.3804 60.092Z" fill="#C9C9C9"/>
<path d="M37.2247 73.8875L46.269 69.8962L43.3971 74.7428L37.2247 73.8875Z" fill="#CCCCCC"/>
<path d="M33.8926 67.1561L46.269 69.8961L46.6339 65.2871L33.8926 67.1561Z" fill="#D6D6D6"/>
<path d="M37.2247 73.8874L33.8926 67.156L46.269 69.8961L37.2247 73.8874Z" fill="#E3E3E3"/>
<path d="M73.1478 66.6333L77.4796 69.3258L73.9253 71.0522L73.1478 66.6333Z" fill="#808080"/>
<path d="M82.9854 69.1045L80.0182 71.5594L77.4795 69.3262L82.9854 69.1045Z" fill="#949494"/>
<path d="M74.6871 73.3648L80.0185 71.5592L77.4798 69.3259L74.6871 73.3648Z" fill="#A1A1A1"/>
<path d="M82.9854 69.1041L80.2245 66.6333L77.4795 69.3258L82.9854 69.1041Z" fill="#A6A6A6"/>
<path d="M80.2247 66.6333L84.3502 62.7846L80.4469 61.3591L80.2247 66.6333Z" fill="#C7C7C7"/>
<path d="M82.9856 69.1042L84.3502 62.7847L80.2247 66.6334L82.9856 69.1042Z" fill="#B5B5B5"/>
<path d="M80.7642 56.9243L84.3502 62.7846L80.4469 61.3591L80.7642 56.9243Z" fill="#D6D6D6"/>
<path d="M75.3853 56.4175C75.7026 56.5759 80.431 61.3433 80.431 61.3433L80.7484 56.9085L75.3853 56.4175Z" fill="#E6E6E6"/>
<path d="M73.1478 51.5393L80.7641 56.9244L75.3851 56.4176L73.1478 51.5393Z" fill="#D6D6D6"/>
<path d="M68.7051 49.6387L75.3852 56.4175L73.1479 51.5393L68.7051 49.6387Z" fill="#C7C7C7"/>
<path d="M69.5939 46.6138L73.1481 51.5395L68.7053 49.6389L69.5939 46.6138Z" fill="#B5B5B5"/>
<path d="M67.0549 44.3486L69.5937 46.6135L68.7051 49.6387L67.0549 44.3486Z" fill="#A6A6A6"/>
<path d="M69.4191 43.7783L69.5937 46.6134L67.0549 44.3485L69.4191 43.7783Z" fill="#949494"/>
<path d="M68.245 41.1809L67.0549 44.3486L69.4191 43.7784L68.245 41.1809Z" fill="#808080"/>
<path d="M70.9267 40.072L69.4193 43.7782L68.2451 41.1807L70.9267 40.072Z" fill="#949494"/>
<path d="M70.9267 36.5239L68.2451 41.1805L70.9267 40.0718V36.5239Z" fill="#A6A6A6"/>
<path d="M72.4181 38.1078L70.9266 36.5239V40.0718L72.4181 38.1078Z" fill="#C7C7C7"/>
<path d="M73.9254 71.0523L77.4797 69.3259L74.687 73.3648L73.9254 71.5592V71.0523Z" fill="#949494"/>
<path d="M77.3527 98.4688V101.003L80.1294 101.731L77.3527 98.4688Z" fill="#636363"/>
<path d="M81.0974 97.9775L77.3528 98.4685L80.1295 101.731L81.0974 97.9775Z" fill="#787878"/>
<path d="M79.225 95.6177L77.3527 98.4686L81.0973 97.9776L79.225 95.6177Z" fill="#878787"/>
<path d="M85.3657 95.0318L78.2255 91.3573L84.0328 87.7461L85.3657 95.0318Z" fill="#ADADAD"/>
<path d="M83.5886 101.731L87.0476 99.4188L81.0974 97.9775L83.5886 101.731Z" fill="#787878"/>
<path d="M85.3657 95.0317L87.0476 99.419L81.0974 97.9777L85.3657 95.0317Z" fill="#878787"/>
<path d="M78.2255 91.3574L79.2251 95.618L85.3657 95.032L78.2255 91.3574Z" fill="#A6A6A6"/>
<path d="M81.0973 97.9777L79.225 95.6178L85.3656 95.0317L81.0973 97.9777Z" fill="#969696"/>
<path d="M44.6824 47.8015L47.7447 53.2341L48.8554 48.5301L44.6824 47.8015Z" fill="#ADADAD"/>
<path d="M39.2081 52.1571L47.7447 53.2341L44.6823 47.8015L39.2081 52.1571Z" fill="#BFBFBF"/>
<path d="M45.9675 56.8138L39.2081 52.1572L47.7447 53.2342L45.9675 56.8138Z" fill="#C7C7C7"/>
<path d="M38.4148 57.8591L39.2082 52.1572L45.9676 56.8137L38.4148 57.8591Z" fill="#D1D1D1"/>
<path d="M45.3805 60.092L45.9676 56.8135L38.4148 57.8588L45.3805 60.092Z" fill="#C9C9C9"/>
<path d="M33.8926 67.1563L37.3516 60.52L38.4147 57.8591L45.3804 60.0924L33.8926 67.1563Z" fill="#D6D6D6"/>
<path d="M10.203 79.6209L17.6764 87.8252L15.2488 79.019L10.203 79.6209Z" fill="#BDBDBD"/>
<path d="M14.8203 73.0955L10.203 79.6209L15.2488 79.0191L14.8203 73.0955Z" fill="#C9C9C9"/>
<path d="M10.7266 72.8894L10.203 79.6208L14.8204 73.0953L10.7266 72.8894Z" fill="#BDBDBD"/>
<path d="M17.5018 67.4726L10.7266 72.8894L16.4546 62.5151L17.5018 67.4726Z" fill="#A8A8A8"/>
<path d="M14.8203 73.0953L17.5018 67.4727L10.7266 72.8894L14.8203 73.0953Z" fill="#B0B0B0"/>
<path d="M21.1989 70.6879L17.5019 67.4727L14.8203 73.0953L21.1989 70.6879Z" fill="#9C9C9C"/>
<path d="M16.9148 75.9145L19.4377 71.353L14.8203 73.0953L16.9148 75.9145Z" fill="#A8A8A8"/>
<path d="M16.9151 75.9148L19.438 79.621L15.249 79.0191L16.9151 75.9148Z" fill="#A3A3A3"/>
<path d="M14.8203 73.0955L16.9148 75.9147L15.2487 79.0191L14.8203 73.0955Z" fill="#9C9C9C"/>
<path d="M15.2487 79.019L19.4376 79.6209L17.6763 87.8252L15.2487 79.019Z" fill="#ADADAD"/>
<path d="M22.4683 87.5718L17.6764 87.8252L19.4376 79.6208L22.4683 87.5718Z" fill="#B8B8B8"/>
<path d="M23.0713 79.019L19.4377 79.6209L22.4684 87.5718L23.0713 79.019Z" fill="#A3A3A3"/>
<path d="M25.9908 82.947L22.4683 87.5718L23.0712 79.019L25.9908 82.947Z" fill="#969696"/>
<path d="M37.2249 73.8872L43.3972 74.7425L41.8105 77.7518L37.2249 73.8872Z" fill="#C2C2C2"/>
<path d="M41.8105 77.7518L39.7001 81.458L37.2249 73.8872L41.8105 77.7518Z" fill="#CCCCCC"/>
<defs>
<linearGradient id="paint0_linear" x1="68.7528" y1="20.5901" x2="40.3506" y2="20.5901" gradientUnits="userSpaceOnUse">
<stop offset="0.291356" stop-color="#E6C487"/>
<stop offset="1" stop-color="white"/>
</linearGradient>
</defs>
</svg>
