<svg width="50" height="48" viewBox="0 0 50 48" fill="none" xmlns="http://www.w3.org/2000/svg">
<rect x="23.461" y="44.5832" width="14.7751" height="2.11072" stroke="white" stroke-width="0.904596"/>
<rect x="26.4887" y="42.6842" width="8.37147" height="1.89093" stroke="white" stroke-width="0.904596"/>
<rect x="12.0021" y="17.1432" width="37.0892" height="24.8905" rx="1.35689" stroke="white" stroke-width="0.904596"/>
<rect x="13.8122" y="19.2545" width="33.4701" height="17.1873" rx="1.35689" stroke="white" stroke-width="0.904596"/>
<rect x="29.1176" y="39.595" width="2.85906" height="0.571812" rx="0.285906" stroke="white" stroke-width="0.571812"/>
<path d="M20.6723 18.1497C17.6409 19.0709 14.4614 20.3686 12.4931 21.2367C11.8145 21.536 11.0193 21.1773 10.8106 20.4656L9.78877 16.9798C9.62195 16.4108 9.89272 15.8049 10.434 15.5626C12.3596 14.7005 15.7449 13.2981 18.9633 12.32C22.2902 11.3089 26.3623 10.9233 28.6453 10.8248C29.1853 10.8015 29.6625 11.1568 29.8146 11.6754L30.8186 15.1005C31.0435 15.8674 30.4746 16.6418 29.6768 16.6894C27.3243 16.8296 23.6914 17.2321 20.6723 18.1497Z" fill="url(#paint0_linear)"/>
<path d="M18.4073 10.7147C14.8068 11.8089 10.9974 13.4341 9.25656 14.2399C9.05112 14.335 8.82384 14.3727 8.59899 14.3464L6.47912 14.0982L6.47912 26.3578L7.09504 27.2125C7.44859 27.7031 7.098 28.3879 6.49327 28.3879C5.89598 28.3879 5.54365 27.7179 5.88213 27.2258L6.47912 26.3578L6.47912 14.0982L4.54633 13.8719C3.49455 13.7488 3.10065 12.427 3.91344 11.7482L15.0279 2.46627C15.2821 2.254 15.6124 2.15558 15.9413 2.19408L32.4953 4.13199C33.5922 4.2604 33.954 5.67321 33.0538 6.31304L29.3092 8.9745C29.1088 9.11692 28.8703 9.19397 28.6245 9.20056C26.4947 9.2577 22.0132 9.61884 18.4073 10.7147Z" fill="url(#paint1_linear)"/>
<path d="M6.47912 14.0982L8.599 14.3464C8.82384 14.3727 9.05112 14.335 9.25656 14.2399C10.9974 13.4341 14.8068 11.8089 18.4073 10.7147C22.0132 9.61884 26.4947 9.2577 28.6245 9.20056C28.8703 9.19397 29.1088 9.11692 29.3092 8.9745L33.0538 6.31304C33.954 5.67321 33.5922 4.2604 32.4953 4.13199L15.9413 2.19408C15.6124 2.15558 15.2821 2.254 15.0279 2.46627L3.91344 11.7482C3.10065 12.427 3.49455 13.7488 4.54633 13.8719L6.47912 14.0982ZM6.47912 14.0982L6.47912 26.3578M6.47912 26.3578L5.88213 27.2258C5.54365 27.7179 5.89598 28.3879 6.49327 28.3879V28.3879C7.098 28.3879 7.44859 27.7031 7.09504 27.2125L6.47912 26.3578ZM20.6723 18.1497C17.6409 19.0709 14.4614 20.3686 12.4931 21.2367C11.8145 21.536 11.0193 21.1773 10.8106 20.4656L9.78877 16.9798C9.62195 16.4108 9.89272 15.8049 10.434 15.5626C12.3596 14.7005 15.7449 13.2981 18.9633 12.32C22.2902 11.3089 26.3623 10.9233 28.6453 10.8248C29.1853 10.8015 29.6625 11.1568 29.8146 11.6754L30.8186 15.1005C31.0435 15.8674 30.4746 16.6418 29.6768 16.6894C27.3243 16.8296 23.6914 17.2321 20.6723 18.1497Z" stroke="white" stroke-width="0.904596"/>
<defs>
<linearGradient id="paint0_linear" x1="4.01149" y1="13.3743" x2="34.7678" y2="13.3743" gradientUnits="userSpaceOnUse">
<stop stop-color="#378EF8"/>
<stop offset="1" stop-color="#4265DF"/>
</linearGradient>
<linearGradient id="paint1_linear" x1="4.01149" y1="13.3743" x2="34.7678" y2="13.3743" gradientUnits="userSpaceOnUse">
<stop stop-color="#378EF8"/>
<stop offset="1" stop-color="#4265DF"/>
</linearGradient>
</defs>
</svg>
