<svg width="93" height="93" viewBox="0 0 93 93" fill="none" xmlns="http://www.w3.org/2000/svg"><circle cx="46.1344" cy="46.5953" r="46.1344" fill="#694CCD"/><circle cx="22.0297" cy="43.6639" r="2.88205" stroke="white" stroke-width="0.904596"/><circle cx="37.59" cy="31.2523" r="2.88205" stroke="white" stroke-width="0.904596"/>
<circle cx="54.8168" cy="36.9955" r="2.88205" stroke="white" stroke-width="0.904596"/>
<circle cx="69.6368" cy="27.9183" r="2.88205" stroke="white" stroke-width="0.904596"/>
<path d="M24.5305 41.6259L34.8114 32.7343M40.9244 31.4377L51.761 36.3466M57.9666 36.3466L67.2287 30.0483" stroke="white" stroke-width="0.904596"/>
<path d="M28.5126 66.0779H21.4734V51.9995L28.5126 46.8128V66.0779Z" stroke="white" stroke-width="0.904596"/>
<path d="M30.0871 45.1456V66.0779H37.1263V38.7548L30.0871 45.1456Z" stroke="white" stroke-width="0.904596"/>
<path d="M39.2566 66.0779V37.3654L46.2958 40.3293V66.0779H39.2566Z" stroke="white" stroke-width="0.904596"/>
<path d="M47.7777 66.0779V41.1629L54.8169 44.7751V66.0779H47.7777Z" stroke="white" stroke-width="0.904596"/>
<path d="M56.1136 66.0779V44.7751L62.6897 39.3105V66.0779H56.1136Z" stroke="white" stroke-width="0.904596"/>
<path d="M70.5624 33.9385L64.079 38.2917V66.0779H70.5624V33.9385Z" stroke="white" stroke-width="0.904596"/>
</svg>