<svg width="144" height="38" viewBox="0 0 144 38" fill="none" xmlns="http://www.w3.org/2000/svg">
<path d="M82.7822 25.7387C80.3746 25.7387 78.3519 25.1993 76.7107 24.1238C75.0695 23.0516 73.9151 21.588 73.2441 19.7396L77.3356 17.3453C78.2861 19.8186 80.1444 21.0552 82.9203 21.0552C84.2622 21.0552 85.2456 20.8118 85.8672 20.3284C86.4954 19.8449 86.8046 19.2298 86.8046 18.4898C86.8046 17.6347 86.4231 16.9703 85.66 16.4967C84.897 16.0231 83.5321 15.5067 81.5685 14.9509C80.4799 14.6286 79.559 14.3062 78.8091 13.9806C78.0592 13.6583 77.306 13.2242 76.5561 12.6815C75.803 12.1388 75.2307 11.4481 74.836 10.616C74.4446 9.78391 74.2473 8.81366 74.2473 7.70198C74.2473 5.50495 75.0301 3.75521 76.589 2.44949C78.148 1.14376 80.026 0.489258 82.2263 0.489258C84.1899 0.489258 85.9231 0.969449 87.413 1.92983C88.903 2.88692 90.064 4.22225 90.8961 5.93251L86.8737 8.25782C85.9034 6.1759 84.3543 5.13658 82.2263 5.13658C81.2298 5.13658 80.4503 5.36023 79.8846 5.81082C79.3189 6.2647 79.0327 6.84685 79.0327 7.56385C79.0327 8.3236 79.3518 8.9485 79.9898 9.41883C80.6246 9.89244 81.8448 10.4088 83.6472 10.9614C84.3872 11.1949 84.9496 11.3758 85.3311 11.5007C85.7126 11.629 86.2323 11.8264 86.8901 12.0928C87.5512 12.3592 88.0577 12.6058 88.4162 12.8361C88.7747 13.0696 89.1858 13.3788 89.6496 13.7734C90.11 14.1648 90.4652 14.5694 90.7086 14.9871C90.952 15.4048 91.1592 15.9047 91.3302 16.4967C91.5045 17.0887 91.59 17.7235 91.59 18.4208C91.59 20.6638 90.7744 22.4432 89.1431 23.7621C87.515 25.0809 85.3936 25.7387 82.7822 25.7387Z" fill="#616160"/>
<path d="M113.511 25.2515H107.995L99.3255 13.8782V25.2515H94.54V0.975586H99.3255V11.6911L107.65 0.975586H113.166L104.18 12.7666L113.511 25.2515Z" fill="#616160"/>
<path d="M115.869 0.972656H120.655V25.2519H115.869V0.972656Z" fill="#616160"/>
<path d="M139.215 0.975586H144V25.2515H140.356L129.953 10.4084V25.2515H125.164V0.975586H128.808L139.215 15.7858V0.975586Z" fill="#616160"/>
<path d="M0.807617 1.36426H5.59308V25.6402H0.807617V1.36426Z" fill="#616160"/>
<path d="M30.2149 19.2068C31.7179 20.7 33.5762 21.4433 35.7996 21.4433C38.0196 21.4433 39.8779 20.7 41.3809 19.2068C42.884 17.7169 43.6372 15.8158 43.6372 13.5004C43.6372 11.1883 42.884 9.28065 41.3809 7.77758C39.8779 6.27452 38.0196 5.52464 35.7996 5.52464C33.5762 5.52464 31.7179 6.27452 30.2149 7.77758C28.7085 9.28065 27.9619 11.1883 27.9619 13.5004C27.9619 15.8158 28.7085 17.7169 30.2149 19.2068ZM44.7456 22.4662C42.2953 24.9066 39.3122 26.1235 35.7996 26.1235C32.2836 26.1235 29.3071 24.9066 26.8667 22.4662C24.4263 20.029 23.2061 17.0361 23.2061 13.5004C23.2061 9.96146 24.4263 6.97507 26.8667 4.53465C29.3071 2.09752 32.2836 0.874023 35.7996 0.874023C39.3122 0.874023 42.2953 2.09752 44.7456 4.53465C47.1959 6.97507 48.4226 9.96146 48.4226 13.5004C48.4226 17.0361 47.1959 20.029 44.7456 22.4662Z" fill="#616160"/>
<path d="M65.137 1.36133H69.9257V25.6406H66.2815L55.8785 10.7941V25.6406H51.0898V1.36133H54.7339L65.137 16.1716V1.36133Z" fill="#616160"/>
<path d="M21.5442 21.4396C19.2189 21.4232 17.3409 20.6865 15.9102 19.2229C14.4631 17.7428 13.7428 15.8352 13.7428 13.5C13.7428 11.1418 14.4631 9.22437 15.9102 7.74434C17.3409 6.27745 19.2189 5.54401 21.5442 5.52428V0.876953C17.9198 0.893399 14.9268 2.09716 12.5621 4.49812C10.1808 6.91551 8.99023 9.91835 8.99023 13.5C8.99023 17.062 10.1808 20.055 12.5621 22.4822C14.9268 24.8963 17.9198 26.1067 21.5442 26.1231V21.4396Z" fill="#616160"/>
<path d="M5.19521 32.4484C5.19521 31.5242 4.50124 30.8664 3.54744 30.8664H1.56747V34.0336H3.54744C4.50124 34.0336 5.19521 33.366 5.19521 32.4484ZM5.96483 32.4484C5.96483 33.7344 4.9321 34.7145 3.54744 34.7145H1.56747V37.3851H0.797852V30.1855H3.54744C4.9321 30.1855 5.96483 31.1525 5.96483 32.4484Z" fill="#616160"/>
<path d="M8.60263 33.8264H10.9082C11.7568 33.8264 12.4474 33.1588 12.4474 32.3464C12.4474 31.5242 11.7568 30.8664 10.9082 30.8664H8.60263V33.8264ZM10.7569 34.5073H8.60263V37.3884H7.83301V30.1855H10.9082C12.1843 30.1855 13.2171 31.1525 13.2171 32.3464C13.2171 33.3232 12.5132 34.1586 11.5594 34.4152L13.4374 37.3884H12.5593L10.7569 34.5073Z" fill="#616160"/>
<path d="M21.8342 33.7866C21.8342 32.1092 20.4496 30.7607 18.6242 30.7607C16.7988 30.7607 15.4142 32.1092 15.4142 33.7866C15.4142 35.464 16.7988 36.8092 18.6242 36.8092C20.4496 36.8092 21.8342 35.464 21.8342 33.7866ZM14.6445 33.7866C14.6445 31.731 16.3844 30.0635 18.6242 30.0635C20.8673 30.0635 22.6039 31.731 22.6039 33.7866C22.6039 35.8422 20.8673 37.5097 18.6242 37.5097C16.3844 37.5097 14.6445 35.8422 14.6445 33.7866Z" fill="#616160"/>
<path d="M25.2413 30.8664V33.5173H28.6487V34.1981H25.2413V37.3884H24.4717V30.1855H28.8131V30.8664H25.2413Z" fill="#616160"/>
<path d="M35.1875 36.7076V37.3851H30.6816V30.1855H35.1349V30.8664H31.4513V33.4153H34.8586V34.0961H31.4513V36.7076H35.1875Z" fill="#616160"/>
<path d="M36.6182 35.7501L37.276 35.3916C37.5522 36.2533 38.2758 36.8092 39.4862 36.8092C40.6504 36.8092 41.2984 36.2862 41.2984 35.5133C41.2984 34.6812 40.5419 34.4148 39.4105 34.0662C38.1574 33.6748 36.9471 33.3656 36.9471 32.0369C36.9471 30.7739 38.0357 30.0635 39.3085 30.0635C40.5748 30.0635 41.453 30.764 41.8476 31.6159L41.1997 31.9546C40.9136 31.3067 40.3216 30.764 39.3085 30.764C38.3876 30.764 37.7167 31.2146 37.7167 32.0073C37.7167 32.7867 38.3745 33.0367 39.4204 33.3525C40.8149 33.7866 42.068 34.155 42.068 35.4936C42.068 36.7269 41.0122 37.5097 39.473 37.5097C38.0554 37.5097 37.0128 36.8421 36.6182 35.7501Z" fill="#616160"/>
<path d="M43.2227 35.7501L43.8838 35.3916C44.1567 36.2533 44.8836 36.8092 46.0907 36.8092C47.255 36.8092 47.9062 36.2862 47.9062 35.5133C47.9062 34.6812 47.1464 34.4148 46.015 34.0662C44.7619 33.6748 43.5516 33.3656 43.5516 32.0369C43.5516 30.7739 44.6402 30.0635 45.9163 30.0635C47.1793 30.0635 48.0575 30.764 48.4554 31.6159L47.8075 31.9546C47.5181 31.3067 46.9261 30.764 45.9163 30.764C44.9921 30.764 44.3212 31.2146 44.3212 32.0073C44.3212 32.7867 44.9823 33.0367 46.0249 33.3525C47.4227 33.7866 48.6725 34.155 48.6725 35.4936C48.6725 36.7269 47.62 37.5097 46.0808 37.5097C44.6632 37.5097 43.6173 36.8421 43.2227 35.7501Z" fill="#616160"/>
<path d="M51.2579 37.3851H50.4883V30.1855H51.2579V37.3851Z" fill="#616160"/>
<path d="M60.3124 33.7866C60.3124 32.1092 58.9277 30.7607 57.1056 30.7607C55.2803 30.7607 53.8956 32.1092 53.8956 33.7866C53.8956 35.464 55.2803 36.8092 57.1056 36.8092C58.9277 36.8092 60.3124 35.464 60.3124 33.7866ZM53.126 33.7866C53.126 31.731 54.8626 30.0635 57.1056 30.0635C59.3454 30.0635 61.082 31.731 61.082 33.7866C61.082 35.8422 59.3454 37.5097 57.1056 37.5097C54.8626 37.5097 53.126 35.8422 53.126 33.7866Z" fill="#616160"/>
<path d="M68.6654 30.1855V37.3851H68.0077L63.7188 31.5242V37.3851H62.9492V30.1855H63.6103L67.8958 36.0498V30.1855H68.6654Z" fill="#616160"/>
<path d="M75.1057 34.9381L73.5565 31.0801L72.0074 34.9381H75.1057ZM75.3819 35.6189H71.7312L71.0175 37.3851H70.2051L73.1619 30.1855H73.9512L76.908 37.3851H76.0956L75.3819 35.6189Z" fill="#616160"/>
<path d="M82.7328 36.7076V37.3851H78.4473V30.1855H79.2169V36.7076H82.7328Z" fill="#616160"/>
<path d="M87.2422 35.7501L87.9 35.3916C88.173 36.2533 88.8998 36.8092 90.1102 36.8092C91.2745 36.8092 91.9224 36.2862 91.9224 35.5133C91.9224 34.6812 91.1626 34.4148 90.0312 34.0662C88.7781 33.6748 87.5711 33.3656 87.5711 32.0369C87.5711 30.7739 88.6597 30.0635 89.9326 30.0635C91.1955 30.0635 92.077 30.764 92.4717 31.6159L91.8237 31.9546C91.5376 31.3067 90.9423 30.764 89.9326 30.764C89.0117 30.764 88.3407 31.2146 88.3407 32.0073C88.3407 32.7867 88.9985 33.0367 90.0411 33.3525C91.4389 33.7866 92.692 34.155 92.692 35.4936C92.692 36.7269 91.6363 37.5097 90.097 37.5097C88.6795 37.5097 87.6369 36.8421 87.2422 35.7501Z" fill="#616160"/>
<path d="M98.8782 37.3851L95.2735 33.8988V37.3851H94.5039V30.1855H95.2735V33.4778L98.7697 30.1855H99.7794L96.0892 33.685L99.8912 37.3851H98.8782Z" fill="#616160"/>
<path d="M102.2 37.3851H101.431V30.1855H102.2V37.3851Z" fill="#616160"/>
<path d="M110.222 30.1855V37.3851H109.564L105.275 31.5242V37.3851H104.506V30.1855H105.167L109.452 36.0498V30.1855H110.222Z" fill="#616160"/>
<path d="M115.389 33.7866C115.389 31.731 117.057 30.0635 119.421 30.0635C120.849 30.0635 122.115 30.7607 122.753 31.8329L122.072 32.2013C121.599 31.3396 120.576 30.7607 119.421 30.7607C117.474 30.7607 116.155 32.1092 116.155 33.7866C116.155 35.464 117.474 36.8092 119.421 36.8092C120.576 36.8092 121.599 36.2336 122.072 35.3686L122.753 35.7304C122.125 36.7993 120.862 37.5097 119.421 37.5097C117.057 37.5097 115.389 35.8422 115.389 33.7866Z" fill="#616160"/>
<path d="M128.588 34.9381L127.039 31.0801L125.487 34.9381H128.588ZM128.861 35.6189H125.214L124.5 37.3851H123.688L126.641 30.1855H127.434L130.39 37.3851H129.578L128.861 35.6189Z" fill="#616160"/>
<path d="M132.699 33.8264H135.005C135.853 33.8264 136.544 33.1588 136.544 32.3464C136.544 31.5242 135.853 30.8664 135.005 30.8664H132.699V33.8264ZM134.854 34.5073H132.699V37.3884H131.93V30.1855H135.005C136.281 30.1855 137.314 31.1525 137.314 32.3464C137.314 33.3232 136.61 34.1586 135.656 34.4152L137.534 37.3884H136.656L134.854 34.5073Z" fill="#616160"/>
<path d="M143.691 36.7076V37.3851H139.182V30.1855H143.635V30.8664H139.951V33.4153H143.359V34.0961H139.951V36.7076H143.691Z" fill="#616160"/>
</svg>
