<svg width="93" height="93" viewBox="0 0 93 93" fill="none" xmlns="http://www.w3.org/2000/svg"><path d="M34.625 2.1819C42.4045 0.0973977 50.5955 0.0973974 58.375 2.1819C66.1544 4.26639 73.2481 8.36194 78.9431 14.0569C84.6381 19.7519 88.7336 26.8455 90.8181 34.625C92.9026 42.4045 92.9026 50.5955 90.8181 58.375C88.7336 66.1544 84.6381 73.2481 78.9431 78.9431C73.2481 84.6381 66.1544 88.7336 58.375 90.8181C50.5955 92.9026 42.4045 92.9026 34.625 90.8181C26.8455 88.7336 19.7519 84.6381 14.0569 78.9431C8.36194 73.2481 4.26639 66.1544 2.1819 58.375C0.0973977 50.5955 0.0973974 42.4045 2.1819 34.625C4.26639 26.8455 8.36194 19.7519 14.0569 14.0569C19.7519 8.36194 26.8455 4.26639 34.625 2.1819Z" fill="#694CCD"/><rect x="36.1166" y="65.2545" width="17.7904" height="1.50766" stroke="white" stroke-width="0.904596"/><rect x="40.3385" y="62.2394" width="9.95056" height="2.71379" stroke="white" stroke-width="0.904596"/><rect x="23.4523" y="32.8112" width="43.1009" height="28.972" rx="1.35689" stroke="white" stroke-width="0.904596"/><rect x="25.2614" y="35.1012" width="39.5007" height="21.4088" rx="1.35689" stroke="white" stroke-width="0.904596"/><mask id="path-6-inside-1" fill="white"><rect x="43.0159" y="58.5557" width="3.97374" height="1.32458" rx="0.603064"/></mask><rect x="43.0159" y="58.5557" width="3.97374" height="1.32458" rx="0.603064" stroke="white" stroke-width="1.32458" mask="url(#path-6-inside-1)"/><path d="M53.3188 43.2498L51.4349 47.9594M53.3188 43.2498L68.3795 25.4638C68.5959 25.2082 68.9791 25.1779 69.233 25.3962L70.6119 26.5821M53.3188 43.2498L55.1585 44.7583M56.9982 46.2669L52.5829 48.9762M56.9982 46.2669L72.0615 28.6213C72.2772 28.3686 72.2479 27.9891 71.996 27.7725L70.6119 26.5821M56.9982 46.2669L55.1585 44.7583M51.4349 47.9594L51.1984 48.5507C50.9828 49.0898 51.5789 49.5923 52.0738 49.2887L52.5829 48.9762M51.4349 47.9594L52.5829 48.9762M55.1585 44.7583L70.6119 26.5821" stroke="white" stroke-width="0.904596"/></svg>