<svg width="151" height="93" viewBox="0 0 151 93" fill="none" xmlns="http://www.w3.org/2000/svg">
<circle cx="49.734" cy="46.4178" r="25.8617" fill="url(#paint0_linear)"/>
<circle cx="92.0948" cy="46.4174" r="25.8617" fill="url(#paint1_linear)"/>
<path d="M91.2199 78.3201C117.329 61.923 115.03 23.0964 87.363 9.4912C75.3843 3.60057 61.1474 4.14317 49.6968 11.0041C25.8629 25.2849 24.172 59.2782 46.2377 76.1632C59.2958 86.1555 77.2955 87.065 91.2199 78.3201Z" fill="url(#paint2_linear)"/>
<path d="M58.6458 51.668H67.0098V62.854H65.1738L64.5958 60.474C63.3718 62.31 61.5245 63.228 59.0538 63.228C56.3112 63.228 54.2145 62.2987 52.7638 60.44C51.3358 58.5813 50.6218 55.816 50.6218 52.144C50.6218 48.472 51.3698 45.7067 52.8658 43.848C54.3618 41.9667 56.4698 41.026 59.1898 41.026C61.5472 41.026 63.4398 41.6833 64.8678 42.998C66.2958 44.3127 67.0098 46.2167 67.0098 48.71H64.1878C64.1878 46.9873 63.7458 45.7067 62.8618 44.868C61.9778 44.0067 60.7538 43.576 59.1898 43.576C57.3992 43.576 56.0052 44.2333 55.0078 45.548C54.0105 46.8627 53.5118 48.8007 53.5118 51.362V52.926C53.5118 55.5327 53.9765 57.482 54.9058 58.774C55.8578 60.066 57.2405 60.712 59.0538 60.712C60.8218 60.712 62.1138 60.2133 62.9298 59.216C63.7685 58.196 64.1878 56.666 64.1878 54.626V54.082H58.6458V51.668ZM80.3689 41.026C83.0662 41.026 85.1516 41.9667 86.6249 43.848C88.0982 45.7067 88.8349 48.472 88.8349 52.144C88.8349 55.7933 88.0869 58.5587 86.5909 60.44C85.1176 62.2987 83.0436 63.228 80.3689 63.228C77.6942 63.228 75.6202 62.2987 74.1469 60.44C72.6736 58.5587 71.9369 55.7933 71.9369 52.144C71.9369 48.472 72.6736 45.7067 74.1469 43.848C75.6202 41.9667 77.6942 41.026 80.3689 41.026ZM80.3689 43.576C78.6236 43.576 77.2636 44.2333 76.2889 45.548C75.3142 46.8627 74.8269 48.8007 74.8269 51.362V52.926C74.8269 55.4873 75.3142 57.4253 76.2889 58.74C77.2636 60.0547 78.6236 60.712 80.3689 60.712C82.1142 60.712 83.4742 60.0547 84.4489 58.74C85.4462 57.4253 85.9449 55.4873 85.9449 52.926V51.362C85.9449 48.8007 85.4462 46.8627 84.4489 45.548C83.4742 44.2333 82.1142 43.576 80.3689 43.576Z" fill="white"/>
<path d="M58.6458 51.668V50.668H57.6458V51.668H58.6458ZM67.0098 51.668H68.0098V50.668H67.0098V51.668ZM67.0098 62.854V63.854H68.0098V62.854H67.0098ZM65.1738 62.854L64.2021 63.09L64.3876 63.854H65.1738V62.854ZM64.5958 60.474L65.5676 60.238L65.0292 58.0212L63.7638 59.9193L64.5958 60.474ZM52.7638 60.44L51.9708 61.0493L51.9755 61.0553L52.7638 60.44ZM52.8658 43.848L53.6449 44.475L53.6485 44.4704L52.8658 43.848ZM64.8678 42.998L65.5451 42.2623L64.8678 42.998ZM67.0098 48.71V49.71H68.0098V48.71H67.0098ZM64.1878 48.71H63.1878V49.71H64.1878V48.71ZM62.8618 44.868L62.1639 45.5843L62.1736 45.5935L62.8618 44.868ZM55.0078 45.548L55.8045 46.1524V46.1524L55.0078 45.548ZM54.9058 58.774L54.094 59.358L54.1008 59.3672L54.9058 58.774ZM62.9298 59.216L62.1574 58.5809L62.1559 58.5828L62.9298 59.216ZM64.1878 54.082H65.1878V53.082H64.1878V54.082ZM58.6458 54.082H57.6458V55.082H58.6458V54.082ZM58.6458 52.668H67.0098V50.668H58.6458V52.668ZM66.0098 51.668V62.854H68.0098V51.668H66.0098ZM67.0098 61.854H65.1738V63.854H67.0098V61.854ZM66.1456 62.618L65.5676 60.238L63.6241 60.71L64.2021 63.09L66.1456 62.618ZM63.7638 59.9193C62.7499 61.4402 61.2371 62.228 59.0538 62.228V64.228C61.8119 64.228 63.9938 63.1798 65.4279 61.0287L63.7638 59.9193ZM59.0538 62.228C56.5625 62.228 54.781 61.3992 53.5521 59.8247L51.9755 61.0553C53.648 63.1982 56.0598 64.228 59.0538 64.228V62.228ZM53.5568 59.8308C52.3202 58.2211 51.6218 55.7126 51.6218 52.144H49.6218C49.6218 55.9194 50.3515 58.9415 51.9708 61.0492L53.5568 59.8308ZM51.6218 52.144C51.6218 48.5834 52.351 46.0825 53.6448 44.475L52.0868 43.221C50.3887 45.3308 49.6218 48.3606 49.6218 52.144H51.6218ZM53.6485 44.4704C54.9282 42.8611 56.7292 42.026 59.1898 42.026V40.026C56.2105 40.026 53.7954 41.0723 52.0831 43.2256L53.6485 44.4704ZM59.1898 42.026C61.3529 42.026 62.985 42.6238 64.1905 43.7337L65.5451 42.2623C63.8947 40.7428 61.7414 40.026 59.1898 40.026V42.026ZM64.1905 43.7337C65.3581 44.8086 66.0098 46.4119 66.0098 48.71H68.0098C68.0098 46.0215 67.2336 43.8168 65.5451 42.2623L64.1905 43.7337ZM67.0098 47.71H64.1878V49.71H67.0098V47.71ZM65.1878 48.71C65.1878 46.8287 64.7038 45.2371 63.5501 44.1425L62.1736 45.5935C62.7878 46.1762 63.1878 47.146 63.1878 48.71H65.1878ZM63.5597 44.1518C62.4425 43.0632 60.9416 42.576 59.1898 42.576V44.576C60.5661 44.576 61.5131 44.9501 62.164 45.5842L63.5597 44.1518ZM59.1898 42.576C57.1171 42.576 55.4154 43.3562 54.2111 44.9436L55.8045 46.1524C56.5949 45.1105 57.6812 44.576 59.1898 44.576V42.576ZM54.2111 44.9436C53.0269 46.5047 52.5118 48.6956 52.5118 51.362H54.5118C54.5118 48.9058 54.9941 47.2206 55.8045 46.1524L54.2111 44.9436ZM52.5118 51.362V52.926H54.5118V51.362H52.5118ZM52.5118 52.926C52.5118 55.6202 52.9864 57.8181 54.094 59.3579L55.7176 58.1901C54.9666 57.1459 54.5118 55.4451 54.5118 52.926H52.5118ZM54.1008 59.3672C55.2677 60.9509 56.9702 61.712 59.0538 61.712V59.712C57.5108 59.712 56.4479 59.1811 55.7109 58.1808L54.1008 59.3672ZM59.0538 61.712C61.0038 61.712 62.634 61.1567 63.7038 59.8492L62.1559 58.5828C61.5936 59.27 60.6398 59.712 59.0538 59.712V61.712ZM63.7023 59.8511C64.7495 58.5774 65.1878 56.7778 65.1878 54.626H63.1878C63.1878 56.5543 62.7875 57.8146 62.1574 58.5809L63.7023 59.8511ZM65.1878 54.626V54.082H63.1878V54.626H65.1878ZM64.1878 53.082H58.6458V55.082H64.1878V53.082ZM59.6458 54.082V51.668H57.6458V54.082H59.6458ZM86.6249 43.848L85.8376 44.4646L85.8413 44.4692L86.6249 43.848ZM86.5909 60.44L85.8082 59.8176L85.8073 59.8188L86.5909 60.44ZM74.1469 60.44L73.3596 61.0566L73.3633 61.0612L74.1469 60.44ZM74.1469 43.848L74.9306 44.4692L74.9342 44.4646L74.1469 43.848ZM76.2889 45.548L77.0922 46.1436L76.2889 45.548ZM76.2889 58.74L77.0922 58.1444L76.2889 58.74ZM84.4489 58.74L83.6522 58.1356L83.6456 58.1444L84.4489 58.74ZM84.4489 45.548L83.6456 46.1436L83.6522 46.1524L84.4489 45.548ZM80.3689 42.026C82.8038 42.026 84.5799 42.8586 85.8376 44.4646L87.4122 43.2314C85.7232 41.0747 83.3287 40.026 80.3689 40.026V42.026ZM85.8413 44.4692C87.116 46.0773 87.8349 48.5807 87.8349 52.144H89.8349C89.8349 48.3633 89.0805 45.336 87.4086 43.2268L85.8413 44.4692ZM87.8349 52.144C87.8349 55.6789 87.107 58.1843 85.8082 59.8176L87.3736 61.0624C89.0668 58.933 89.8349 55.9078 89.8349 52.144H87.8349ZM85.8073 59.8188C84.5495 61.4055 82.7825 62.228 80.3689 62.228V64.228C83.3047 64.228 85.6857 63.1918 87.3746 61.0612L85.8073 59.8188ZM80.3689 62.228C77.9554 62.228 76.1883 61.4055 74.9306 59.8188L73.3633 61.0612C75.0522 63.1918 77.4331 64.228 80.3689 64.228V62.228ZM74.9342 59.8234C73.6546 58.1895 72.9369 55.6816 72.9369 52.144H70.9369C70.9369 55.9051 71.6925 58.9279 73.3596 61.0566L74.9342 59.8234ZM72.9369 52.144C72.9369 48.5807 73.6558 46.0773 74.9306 44.4692L73.3633 43.2268C71.6913 45.336 70.9369 48.3633 70.9369 52.144H72.9369ZM74.9342 44.4646C76.1936 42.8564 77.9599 42.026 80.3689 42.026V40.026C77.4286 40.026 75.0468 41.077 73.3596 43.2314L74.9342 44.4646ZM80.3689 42.576C78.3314 42.576 76.663 43.3643 75.4856 44.9524L77.0922 46.1436C77.8641 45.1024 78.9157 44.576 80.3689 44.576V42.576ZM75.4856 44.9524C74.3292 46.5122 73.8269 48.6993 73.8269 51.362H75.8269C75.8269 48.902 76.2993 47.2131 77.0922 46.1436L75.4856 44.9524ZM73.8269 51.362V52.926H75.8269V51.362H73.8269ZM73.8269 52.926C73.8269 55.5887 74.3292 57.7758 75.4856 59.3356L77.0922 58.1444C76.2993 57.0749 75.8269 55.386 75.8269 52.926H73.8269ZM75.4856 59.3356C76.663 60.9237 78.3314 61.712 80.3689 61.712V59.712C78.9157 59.712 77.8641 59.1856 77.0922 58.1444L75.4856 59.3356ZM80.3689 61.712C82.4064 61.712 84.0748 60.9237 85.2522 59.3356L83.6456 58.1444C82.8737 59.1856 81.8221 59.712 80.3689 59.712V61.712ZM85.2456 59.3444C86.4299 57.7833 86.9449 55.5924 86.9449 52.926H84.9449C84.9449 55.3822 84.4626 57.0674 83.6522 58.1356L85.2456 59.3444ZM86.9449 52.926V51.362H84.9449V52.926H86.9449ZM86.9449 51.362C86.9449 48.6956 86.4299 46.5047 85.2456 44.9436L83.6522 46.1524C84.4626 47.2206 84.9449 48.9058 84.9449 51.362H86.9449ZM85.2522 44.9524C84.0748 43.3643 82.4064 42.576 80.3689 42.576V44.576C81.8221 44.576 82.8737 45.1024 83.6456 46.1436L85.2522 44.9524Z" fill="white"/>
<path d="M59.3261 34.3955V27.0675C59.3368 26.8115 59.3528 26.5235 59.3741 26.2035C59.3954 25.8728 59.4114 25.6435 59.4221 25.5155H59.3741L59.2781 25.9315C59.2568 26.0275 59.2194 26.1928 59.1661 26.4275C59.1234 26.6622 59.0754 26.8755 59.0221 27.0675L57.0061 34.3955H55.8701L53.8381 27.0675C53.7741 26.8328 53.6994 26.4702 53.6141 25.9795L53.5341 25.5155H53.4701C53.4808 25.6542 53.4968 25.8888 53.5181 26.2195C53.5394 26.5395 53.5554 26.8222 53.5661 27.0675V34.3955H52.3981V24.3155H54.3661L56.1421 30.9235C56.2274 31.2328 56.3021 31.6488 56.3661 32.1715C56.4408 32.6835 56.4834 33.0248 56.4941 33.1955H56.5421C56.5528 33.0248 56.5901 32.6782 56.6541 32.1555C56.7181 31.6222 56.7928 31.2115 56.8781 30.9235L58.6541 24.3155H60.6221V34.3955H59.3261ZM64.813 26.4755C65.5916 26.4755 66.1783 26.6622 66.573 27.0355C66.9676 27.4088 67.165 27.9422 67.165 28.6355V32.9875C67.165 33.1475 67.2023 33.2755 67.277 33.3715C67.3516 33.4568 67.4423 33.4995 67.549 33.4995H68.045V34.3315C67.8316 34.4488 67.565 34.5075 67.245 34.5075C66.9356 34.5075 66.669 34.4222 66.445 34.2515C66.2316 34.0808 66.093 33.8515 66.029 33.5635H65.949C65.7463 33.8835 65.4796 34.1342 65.149 34.3155C64.829 34.4862 64.4663 34.5715 64.061 34.5715C63.5383 34.5715 63.069 34.4168 62.653 34.1075C62.237 33.7982 62.029 33.2275 62.029 32.3955C62.029 31.4035 62.365 30.7262 63.037 30.3635C63.709 29.9902 64.6796 29.8035 65.949 29.8035V28.8115C65.949 28.4062 65.8583 28.0968 65.677 27.8835C65.5063 27.6702 65.1916 27.5635 64.733 27.5635C64.3063 27.5635 63.997 27.6808 63.805 27.9155C63.6236 28.1502 63.533 28.4328 63.533 28.7635V28.9555H62.349C62.3383 28.9022 62.333 28.7902 62.333 28.6195C62.333 27.9368 62.557 27.4088 63.005 27.0355C63.4636 26.6622 64.0663 26.4755 64.813 26.4755ZM65.949 30.8915C65.0636 30.8915 64.397 30.9928 63.949 31.1955C63.5116 31.3875 63.293 31.7608 63.293 32.3155C63.293 32.7422 63.3783 33.0462 63.549 33.2275C63.7303 33.4088 63.997 33.4995 64.349 33.4995C64.765 33.4995 65.133 33.3288 65.453 32.9875C65.7836 32.6462 65.949 32.1768 65.949 31.5795V30.8915ZM71.5961 26.4755C71.7241 26.4755 71.8414 26.4915 71.9481 26.5235C72.0548 26.5555 72.1241 26.5768 72.1561 26.5875V27.8515H71.7561C71.3401 27.8515 70.9988 27.9955 70.7321 28.2835C70.4654 28.5715 70.3321 29.0355 70.3321 29.6755V34.3955H69.1161V26.6515H70.0281L70.2041 27.6755H70.2841C70.3908 27.3342 70.5508 27.0515 70.7641 26.8275C70.9774 26.5928 71.2548 26.4755 71.5961 26.4755ZM78.1717 26.6515L75.8997 29.8355L78.2997 34.3955H76.9237L75.1637 30.8755L74.3477 31.7715V34.3955H73.1317V23.7555H74.3477V30.2515L76.8437 26.6515H78.1717ZM81.7873 26.4755C82.662 26.4755 83.3073 26.7635 83.7233 27.3395C84.1393 27.9155 84.3473 28.8435 84.3473 30.1235V30.8915H80.1553C80.166 31.7875 80.3047 32.4488 80.5713 32.8755C80.8487 33.2915 81.2753 33.4995 81.8513 33.4995C82.2353 33.4995 82.5447 33.3448 82.7793 33.0355C83.0247 32.7155 83.1473 32.2942 83.1473 31.7715H84.3473C84.3473 32.6248 84.1127 33.3075 83.6433 33.8195C83.1847 34.3208 82.5767 34.5715 81.8193 34.5715C80.8273 34.5715 80.086 34.2515 79.5953 33.6115C79.1153 32.9715 78.8753 31.9475 78.8753 30.5395C78.8753 29.1528 79.1153 28.1288 79.5953 27.4675C80.0753 26.8062 80.806 26.4755 81.7873 26.4755ZM81.7873 27.5635C81.2647 27.5635 80.8753 27.7502 80.6193 28.1235C80.374 28.4862 80.2247 29.0462 80.1713 29.8035H83.0833C83.0833 28.3102 82.6513 27.5635 81.7873 27.5635ZM88.0745 27.7395H87.0505V32.7955C87.0505 33.0195 87.1091 33.1955 87.2265 33.3235C87.3438 33.4408 87.5145 33.4995 87.7385 33.4995H88.0745V34.3315C87.9785 34.3955 87.8505 34.4435 87.6905 34.4755C87.5305 34.5182 87.3705 34.5395 87.2105 34.5395C86.7305 34.5395 86.3785 34.3688 86.1545 34.0275C85.9411 33.6862 85.8345 33.2648 85.8345 32.7635V27.7395H85.1625V26.6515H85.8345L86.1065 24.5075H87.0505V26.6515H88.0745V27.7395Z" fill="white"/>
<defs>
<linearGradient id="paint0_linear" x1="75.5957" y1="44.1493" x2="21.6037" y2="44.1493" gradientUnits="userSpaceOnUse">
<stop stop-color="#F25686" stop-opacity="0.31"/>
<stop offset="0.5" stop-color="#A959AA" stop-opacity="0.33"/>
<stop offset="1" stop-color="#42A3FB" stop-opacity="0.42"/>
</linearGradient>
<linearGradient id="paint1_linear" x1="180.953" y1="46.4174" x2="63.9646" y2="44.1488" gradientUnits="userSpaceOnUse">
<stop stop-color="#F25686" stop-opacity="0.31"/>
<stop offset="0.5" stop-color="#A959AA" stop-opacity="0.33"/>
<stop offset="1" stop-color="#42A3FB" stop-opacity="0.42"/>
</linearGradient>
<linearGradient id="paint2_linear" x1="242.307" y1="36.0318" x2="9.98117" y2="36.0318" gradientUnits="userSpaceOnUse">
<stop stop-color="#C5436B"/>
<stop offset="0.59375" stop-color="#AA24AC"/>
<stop offset="1" stop-color="#0689FF"/>
</linearGradient>
</defs>
</svg>
