<svg width="142" height="114" viewBox="0 0 142 114" fill="none" xmlns="http://www.w3.org/2000/svg">
<g opacity="0.99">
<circle cx="39" cy="57.9985" r="39" fill="url(#paint0_linear)"/>
<circle cx="102.881" cy="57.998" r="39" fill="url(#paint1_linear)"/>
<circle cx="71" cy="57" r="57" fill="url(#paint2_linear)"/>
<path d="M56.4608 69.6625H66.7928V83.4805H64.5248L63.8108 80.5405C62.2988 82.8085 60.0168 83.9425 56.9648 83.9425C53.5768 83.9425 50.9868 82.7945 49.1948 80.4985C47.4308 78.2025 46.5488 74.7865 46.5488 70.2505C46.5488 65.7145 47.4728 62.2985 49.3208 60.0025C51.1688 57.6785 53.7728 56.5165 57.1328 56.5165C60.0448 56.5165 62.3828 57.3285 64.1468 58.9525C65.9108 60.5765 66.7928 62.9285 66.7928 66.0085H63.3068C63.3068 63.8805 62.7608 62.2985 61.6688 61.2625C60.5768 60.1985 59.0648 59.6665 57.1328 59.6665C54.9208 59.6665 53.1988 60.4785 51.9668 62.1025C50.7348 63.7265 50.1188 66.1205 50.1188 69.2845V71.2165C50.1188 74.4365 50.6928 76.8445 51.8408 78.4405C53.0168 80.0365 54.7248 80.8345 56.9648 80.8345C59.1488 80.8345 60.7448 80.2185 61.7528 78.9865C62.7888 77.7265 63.3068 75.8365 63.3068 73.3165V72.6445H56.4608V69.6625ZM83.2951 56.5165C86.6271 56.5165 89.2031 57.6785 91.0231 60.0025C92.8431 62.2985 93.7531 65.7145 93.7531 70.2505C93.7531 74.7585 92.8291 78.1745 90.9811 80.4985C89.1611 82.7945 86.5991 83.9425 83.2951 83.9425C79.9911 83.9425 77.4291 82.7945 75.6091 80.4985C73.7891 78.1745 72.8791 74.7585 72.8791 70.2505C72.8791 65.7145 73.7891 62.2985 75.6091 60.0025C77.4291 57.6785 79.9911 56.5165 83.2951 56.5165ZM83.2951 59.6665C81.1391 59.6665 79.4591 60.4785 78.2551 62.1025C77.0511 63.7265 76.4491 66.1205 76.4491 69.2845V71.2165C76.4491 74.3805 77.0511 76.7745 78.2551 78.3985C79.4591 80.0225 81.1391 80.8345 83.2951 80.8345C85.4511 80.8345 87.1311 80.0225 88.3351 78.3985C89.5671 76.7745 90.1831 74.3805 90.1831 71.2165V69.2845C90.1831 66.1205 89.5671 63.7265 88.3351 62.1025C87.1311 60.4785 85.4511 59.6665 83.2951 59.6665Z" fill="white"/>
<path d="M56.4608 69.6625V68.6625H55.4608V69.6625H56.4608ZM66.7928 69.6625H67.7928V68.6625H66.7928V69.6625ZM66.7928 83.4805V84.4805H67.7928V83.4805H66.7928ZM64.5248 83.4805L63.553 83.7165L63.7385 84.4805H64.5248V83.4805ZM63.8108 80.5405L64.7825 80.3045L64.2441 78.0876L62.9787 79.9858L63.8108 80.5405ZM49.1948 80.4985L48.4017 81.1077L48.4064 81.1137L49.1948 80.4985ZM49.3208 60.0025L50.0998 60.6295L50.1035 60.6249L49.3208 60.0025ZM64.1468 58.9525L64.8241 58.2168L64.8241 58.2168L64.1468 58.9525ZM66.7928 66.0085V67.0085H67.7928V66.0085H66.7928ZM63.3068 66.0085H62.3068V67.0085H63.3068V66.0085ZM61.6688 61.2625L60.9708 61.9788L60.9805 61.9879L61.6688 61.2625ZM51.9668 62.1025L52.7634 62.7069L52.7634 62.7069L51.9668 62.1025ZM51.8408 78.4405L51.0289 79.0244L51.0357 79.0337L51.8408 78.4405ZM61.7528 78.9865L60.9803 78.3514L60.9788 78.3532L61.7528 78.9865ZM63.3068 72.6445H64.3068V71.6445H63.3068V72.6445ZM56.4608 72.6445H55.4608V73.6445H56.4608V72.6445ZM56.4608 70.6625H66.7928V68.6625H56.4608V70.6625ZM65.7928 69.6625V83.4805H67.7928V69.6625H65.7928ZM66.7928 82.4805H64.5248V84.4805H66.7928V82.4805ZM65.4965 83.2445L64.7825 80.3045L62.839 80.7765L63.553 83.7165L65.4965 83.2445ZM62.9787 79.9858C61.6768 81.9386 59.7294 82.9425 56.9648 82.9425V84.9425C60.3041 84.9425 62.9207 83.6783 64.6428 81.0952L62.9787 79.9858ZM56.9648 82.9425C53.8281 82.9425 51.5532 81.895 49.9831 79.8832L48.4064 81.1137C50.4203 83.694 53.3254 84.9425 56.9648 84.9425V82.9425ZM49.9877 79.8892C48.4151 77.8423 47.5488 74.6831 47.5488 70.2505H45.5488C45.5488 74.8899 46.4464 78.5627 48.4018 81.1077L49.9877 79.8892ZM47.5488 70.2505C47.5488 65.8259 48.4539 62.6743 50.0998 60.6295L48.5417 59.3755C46.4916 61.9226 45.5488 65.603 45.5488 70.2505H47.5488ZM50.1035 60.6249C51.7352 58.5729 54.0321 57.5165 57.1328 57.5165V55.5165C53.5134 55.5165 50.6024 56.7841 48.5381 59.3801L50.1035 60.6249ZM57.1328 57.5165C59.8505 57.5165 61.9279 58.269 63.4694 59.6882L64.8241 58.2168C62.8376 56.388 60.239 55.5165 57.1328 55.5165V57.5165ZM63.4694 59.6882C64.973 61.0724 65.7928 63.1237 65.7928 66.0085H67.7928C67.7928 62.7333 66.8485 60.0806 64.8241 58.2168L63.4694 59.6882ZM66.7928 65.0085H63.3068V67.0085H66.7928V65.0085ZM64.3068 66.0085C64.3068 63.7218 63.7188 61.8289 62.357 60.537L60.9805 61.9879C61.8028 62.768 62.3068 64.0391 62.3068 66.0085H64.3068ZM62.3666 60.5462C61.0414 59.255 59.2525 58.6665 57.1328 58.6665V60.6665C58.877 60.6665 60.1121 61.1419 60.9709 61.9787L62.3666 60.5462ZM57.1328 58.6665C54.6387 58.6665 52.609 59.6013 51.1701 61.4981L52.7634 62.7069C53.7885 61.3556 55.2028 60.6665 57.1328 60.6665V58.6665ZM51.1701 61.4981C49.7511 63.3685 49.1188 66.0154 49.1188 69.2845H51.1188C51.1188 66.2256 51.7184 64.0844 52.7634 62.7069L51.1701 61.4981ZM49.1188 69.2845V71.2165H51.1188V69.2845H49.1188ZM49.1188 71.2165C49.1188 74.524 49.7027 77.1806 51.029 79.0244L52.6526 77.8565C51.6828 76.5083 51.1188 74.3489 51.1188 71.2165H49.1188ZM51.0357 79.0337C52.4267 80.9214 54.4544 81.8345 56.9648 81.8345V79.8345C54.9951 79.8345 53.6069 79.1516 52.6458 77.8473L51.0357 79.0337ZM56.9648 81.8345C59.3308 81.8345 61.265 81.1619 62.5267 79.6197L60.9788 78.3532C60.2246 79.2751 58.9667 79.8345 56.9648 79.8345V81.8345ZM62.5252 79.6216C63.7698 78.1079 64.3068 75.9482 64.3068 73.3165H62.3068C62.3068 75.7247 61.8077 77.3451 60.9803 78.3514L62.5252 79.6216ZM64.3068 73.3165V72.6445H62.3068V73.3165H64.3068ZM63.3068 71.6445H56.4608V73.6445H63.3068V71.6445ZM57.4608 72.6445V69.6625H55.4608V72.6445H57.4608ZM91.0231 60.0025L90.2358 60.619L90.2395 60.6237L91.0231 60.0025ZM90.9811 80.4985L90.1984 79.8761L90.1975 79.8773L90.9811 80.4985ZM75.6091 80.4985L74.8218 81.115L74.8255 81.1197L75.6091 80.4985ZM75.6091 60.0025L76.3928 60.6237L76.3965 60.619L75.6091 60.0025ZM78.2551 62.1025L79.0585 62.698L79.0585 62.698L78.2551 62.1025ZM78.2551 78.3985L79.0585 77.8029L79.0585 77.8029L78.2551 78.3985ZM88.3351 78.3985L87.5384 77.794L87.5318 77.8029L88.3351 78.3985ZM88.3351 62.1025L87.5318 62.6981L87.5385 62.7069L88.3351 62.1025ZM83.2951 57.5165C86.3647 57.5165 88.6315 58.5704 90.2358 60.619L91.8105 59.3859C89.7748 56.7865 86.8896 55.5165 83.2951 55.5165V57.5165ZM90.2395 60.6237C91.8609 62.6691 92.7531 65.8232 92.7531 70.2505H94.7531C94.7531 65.6058 93.8254 61.9278 91.8068 59.3813L90.2395 60.6237ZM92.7531 70.2505C92.7531 74.644 91.8492 77.8001 90.1984 79.8761L91.7639 81.1209C93.8091 78.5488 94.7531 74.8729 94.7531 70.2505H92.7531ZM90.1975 79.8773C88.5931 81.9013 86.338 82.9425 83.2951 82.9425V84.9425C86.8603 84.9425 89.7292 83.6876 91.7648 81.1197L90.1975 79.8773ZM83.2951 82.9425C80.2523 82.9425 77.9972 81.9013 76.3928 79.8773L74.8255 81.1197C76.8611 83.6876 79.73 84.9425 83.2951 84.9425V82.9425ZM76.3965 79.8819C74.7702 77.8053 73.8791 74.6467 73.8791 70.2505H71.8791C71.8791 74.8702 72.8081 78.5437 74.8218 81.115L76.3965 79.8819ZM73.8791 70.2505C73.8791 65.8232 74.7714 62.6691 76.3928 60.6237L74.8255 59.3813C72.8069 61.9278 71.8791 65.6058 71.8791 70.2505H73.8791ZM76.3965 60.619C78.0026 58.5682 80.2568 57.5165 83.2951 57.5165V55.5165C79.7255 55.5165 76.8557 56.7888 74.8218 59.3859L76.3965 60.619ZM83.2951 58.6665C80.847 58.6665 78.8586 59.6094 77.4518 61.5069L79.0585 62.698C80.0597 61.3475 81.4313 60.6665 83.2951 60.6665V58.6665ZM77.4518 61.5069C76.0661 63.376 75.4491 66.0191 75.4491 69.2845H77.4491C77.4491 66.2218 78.0362 64.0769 79.0585 62.698L77.4518 61.5069ZM75.4491 69.2845V71.2165H77.4491V69.2845H75.4491ZM75.4491 71.2165C75.4491 74.4818 76.0661 77.1249 77.4518 78.994L79.0585 77.8029C78.0362 76.424 77.4491 74.2791 77.4491 71.2165H75.4491ZM77.4518 78.994C78.8586 80.8915 80.847 81.8345 83.2951 81.8345V79.8345C81.4313 79.8345 80.0597 79.1534 79.0585 77.8029L77.4518 78.994ZM83.2951 81.8345C85.7433 81.8345 87.7317 80.8915 89.1385 78.994L87.5318 77.8029C86.5306 79.1534 85.159 79.8345 83.2951 79.8345V81.8345ZM89.1318 79.0029C90.5508 77.1324 91.1831 74.4856 91.1831 71.2165H89.1831C89.1831 74.2754 88.5835 76.4165 87.5385 77.7941L89.1318 79.0029ZM91.1831 71.2165V69.2845H89.1831V71.2165H91.1831ZM91.1831 69.2845C91.1831 66.0154 90.5508 63.3685 89.1318 61.4981L87.5385 62.7069C88.5835 64.0844 89.1831 66.2256 89.1831 69.2845H91.1831ZM89.1385 61.5069C87.7317 59.6094 85.7433 58.6665 83.2951 58.6665V60.6665C85.159 60.6665 86.5306 61.3475 87.5318 62.698L89.1385 61.5069Z" fill="white"/>
<path d="M51.9039 44.2163V31.3923C51.9225 30.9443 51.9505 30.4403 51.9879 29.8803C52.0252 29.3016 52.0532 28.9003 52.0719 28.6763H51.9879L51.8199 29.4043C51.7825 29.5723 51.7172 29.8616 51.6239 30.2723C51.5492 30.683 51.4652 31.0563 51.3719 31.3923L47.8439 44.2163H45.8559L42.2999 31.3923C42.1879 30.9816 42.0572 30.347 41.9079 29.4883L41.7679 28.6763H41.6559C41.6745 28.919 41.7025 29.3296 41.7399 29.9083C41.7772 30.4683 41.8052 30.963 41.8239 31.3923V44.2163H39.7799V26.5763H43.2239L46.3319 38.1403C46.4812 38.6816 46.6119 39.4096 46.7239 40.3243C46.8545 41.2203 46.9292 41.8176 46.9479 42.1163H47.0319C47.0505 41.8176 47.1159 41.211 47.2279 40.2963C47.3399 39.363 47.4705 38.6443 47.6199 38.1403L50.7279 26.5763H54.1719V44.2163H51.9039ZM61.5059 30.3563C62.8686 30.3563 63.8952 30.683 64.5859 31.3363C65.2766 31.9896 65.6219 32.923 65.6219 34.1363V41.7523C65.6219 42.0323 65.6872 42.2563 65.8179 42.4243C65.9486 42.5736 66.1072 42.6483 66.2939 42.6483H67.1619V44.1043C66.7886 44.3096 66.3219 44.4123 65.7619 44.4123C65.2206 44.4123 64.7539 44.263 64.3619 43.9643C63.9886 43.6656 63.7459 43.2643 63.6339 42.7603H63.4939C63.1392 43.3203 62.6726 43.759 62.0939 44.0763C61.5339 44.375 60.8992 44.5243 60.1899 44.5243C59.2752 44.5243 58.4539 44.2536 57.7259 43.7123C56.9979 43.171 56.6339 42.1723 56.6339 40.7163C56.6339 38.9803 57.2219 37.795 58.3979 37.1603C59.5739 36.507 61.2726 36.1803 63.4939 36.1803V34.4443C63.4939 33.735 63.3352 33.1936 63.0179 32.8203C62.7192 32.447 62.1686 32.2603 61.3659 32.2603C60.6192 32.2603 60.0779 32.4656 59.7419 32.8763C59.4246 33.287 59.2659 33.7816 59.2659 34.3603V34.6963H57.1939C57.1752 34.603 57.1659 34.407 57.1659 34.1083C57.1659 32.9136 57.5579 31.9896 58.3419 31.3363C59.1446 30.683 60.1992 30.3563 61.5059 30.3563ZM63.4939 38.0843C61.9446 38.0843 60.7779 38.2616 59.9939 38.6163C59.2286 38.9523 58.8459 39.6056 58.8459 40.5763C58.8459 41.323 58.9952 41.855 59.2939 42.1723C59.6112 42.4896 60.0779 42.6483 60.6939 42.6483C61.4219 42.6483 62.0659 42.3496 62.6259 41.7523C63.2046 41.155 63.4939 40.3336 63.4939 39.2883V38.0843ZM73.3764 30.3563C73.6004 30.3563 73.8057 30.3843 73.9924 30.4403C74.179 30.4963 74.3004 30.5336 74.3564 30.5523V32.7643H73.6564C72.9284 32.7643 72.331 33.0163 71.8644 33.5203C71.3977 34.0243 71.1644 34.8363 71.1644 35.9563V44.2163H69.0364V30.6643H70.6324L70.9404 32.4563H71.0804C71.267 31.859 71.547 31.3643 71.9204 30.9723C72.2937 30.5616 72.779 30.3563 73.3764 30.3563ZM84.8837 30.6643L80.9077 36.2363L85.1077 44.2163H82.6997L79.6197 38.0563L78.1917 39.6243V44.2163H76.0637V25.5963H78.1917V36.9643L82.5597 30.6643H84.8837ZM91.211 30.3563C92.7417 30.3563 93.871 30.8603 94.599 31.8683C95.327 32.8763 95.691 34.5003 95.691 36.7403V38.0843H88.355C88.3737 39.6523 88.6164 40.8096 89.083 41.5563C89.5684 42.2843 90.315 42.6483 91.323 42.6483C91.995 42.6483 92.5364 42.3776 92.947 41.8363C93.3764 41.2763 93.591 40.539 93.591 39.6243H95.691C95.691 41.1176 95.2804 42.3123 94.459 43.2083C93.6564 44.0856 92.5924 44.5243 91.267 44.5243C89.531 44.5243 88.2337 43.9643 87.375 42.8443C86.535 41.7243 86.115 39.9323 86.115 37.4683C86.115 35.0416 86.535 33.2496 87.375 32.0923C88.215 30.935 89.4937 30.3563 91.211 30.3563ZM91.211 32.2603C90.2964 32.2603 89.615 32.587 89.167 33.2403C88.7377 33.875 88.4764 34.855 88.383 36.1803H93.479C93.479 33.567 92.723 32.2603 91.211 32.2603ZM102.214 32.5683H100.422V41.4163C100.422 41.8083 100.524 42.1163 100.73 42.3403C100.935 42.5456 101.234 42.6483 101.626 42.6483H102.214V44.1043C102.046 44.2163 101.822 44.3003 101.542 44.3563C101.262 44.431 100.982 44.4683 100.702 44.4683C99.8615 44.4683 99.2455 44.1696 98.8535 43.5723C98.4802 42.975 98.2935 42.2376 98.2935 41.3603V32.5683H97.1175V30.6643H98.2935L98.7695 26.9123H100.422V30.6643H102.214V32.5683Z" fill="white"/>
</g>
<defs>
<linearGradient id="paint0_linear" x1="78" y1="54.5775" x2="-3.42105" y2="54.5775" gradientUnits="userSpaceOnUse">
<stop stop-color="#F25686" stop-opacity="0.31"/>
<stop offset="0.5" stop-color="#A959AA" stop-opacity="0.33"/>
<stop offset="1" stop-color="#42A3FB" stop-opacity="0.42"/>
</linearGradient>
<linearGradient id="paint1_linear" x1="236.881" y1="57.998" x2="60.4598" y2="54.577" gradientUnits="userSpaceOnUse">
<stop stop-color="#F25686" stop-opacity="0.31"/>
<stop offset="0.5" stop-color="#A959AA" stop-opacity="0.33"/>
<stop offset="1" stop-color="#42A3FB" stop-opacity="0.42"/>
</linearGradient>
<linearGradient id="paint2_linear" x1="212.5" y1="167" x2="1.50001" y2="117.5" gradientUnits="userSpaceOnUse">
<stop stop-color="#C5436B"/>
<stop offset="0.59375" stop-color="#AA24AC"/>
<stop offset="1" stop-color="#0689FF"/>
</linearGradient>
</defs>
</svg>
