<svg width="34" height="33" viewBox="0 0 34 33" fill="none" xmlns="http://www.w3.org/2000/svg">
<path d="M18.5812 16.6603L32.7627 2.75096C33.262 2.26125 33.262 1.46728 32.7627 0.977633C32.2634 0.487987 31.4539 0.487924 30.9547 0.977633L16.7732 14.887L2.59167 0.977633C2.09238 0.487924 1.28288 0.487924 0.783649 0.977633C0.28442 1.46734 0.284357 2.26131 0.783649 2.75096L14.9651 16.6602L0.783649 30.5696C0.284357 31.0593 0.284357 31.8533 0.783649 32.3429C1.03326 32.5877 1.36048 32.7101 1.68769 32.7101C2.01491 32.7101 2.34206 32.5877 2.59174 32.3429L16.7732 18.4336L30.9546 32.3429C31.2042 32.5877 31.5315 32.7101 31.8587 32.7101C32.1859 32.7101 32.513 32.5877 32.7627 32.3429C33.262 31.8532 33.262 31.0592 32.7627 30.5696L18.5812 16.6603Z" fill="black" fill-opacity="0.5"/>
</svg>
