<svg width="143" height="36" viewBox="0 0 143 36" fill="none" xmlns="http://www.w3.org/2000/svg">
<g clip-path="url(#clip0)">
<path d="M17.438 3.9043C17.8957 4.49407 18.2833 5.13504 18.593 5.8143L9.81302 12.2703L6.14502 9.9763V7.2163L9.81302 9.5103L17.438 3.9043V3.9043Z" fill="#21A038"/>
<path d="M2.40187 9.78225C2.40187 9.65825 2.40487 9.53525 2.41087 9.41225L0.18787 9.30225C0.118989 10.6445 0.333614 11.9862 0.817769 13.24C1.30192 14.4939 2.04475 15.6316 2.99787 16.5792L4.57387 15.0072C3.88524 14.3225 3.33882 13.5084 2.96606 12.6117C2.5933 11.7149 2.40156 10.7534 2.40187 9.78225V9.78225Z" fill="url(#paint0_linear)"/>
<path d="M9.81205 2.3902C9.93605 2.3902 10.059 2.3942 10.182 2.4002L10.293 0.182198C8.94864 0.112868 7.60465 0.326535 6.34802 0.809375C5.0914 1.29221 3.95013 2.03347 2.99805 2.9852L4.57405 4.5582C5.26166 3.87012 6.07827 3.32444 6.97708 2.95242C7.8759 2.5804 8.83928 2.38935 9.81205 2.3902V2.3902Z" fill="url(#paint1_linear)"/>
<path d="M9.81303 17.1743C9.68903 17.1743 9.56603 17.1713 9.44303 17.1643L9.33203 19.3823C10.6764 19.4517 12.0204 19.238 13.2771 18.7551C14.5337 18.2723 15.6749 17.531 16.627 16.5793L15.051 15.0073C14.3632 15.695 13.5465 16.2403 12.6477 16.6122C11.7489 16.984 10.7857 17.175 9.81303 17.1743V17.1743Z" fill="url(#paint2_linear)"/>
<path d="M13.99 3.68043L15.864 2.30243C14.1506 0.919159 12.0141 0.166488 9.81201 0.170426V2.39043C11.303 2.38851 12.7596 2.83825 13.99 3.68043V3.68043Z" fill="url(#paint3_linear)"/>
<path d="M19.4477 9.78108C19.4477 9.19308 19.3947 8.61808 19.2927 8.05908L17.2197 9.58308L17.2227 9.78008C17.2227 11.9501 16.2797 13.9051 14.7827 15.2591L16.2777 16.9091C17.2767 16.01 18.0753 14.9106 18.6215 13.6825C19.1676 12.4544 19.4491 11.1251 19.4477 9.78108V9.78108Z" fill="#21A038"/>
<path d="M9.81297 17.1733C8.77818 17.1739 7.75476 16.9575 6.80879 16.5381C5.86281 16.1187 5.0153 15.5055 4.32097 14.7383L2.66797 16.2303C3.57137 17.2281 4.67408 18.0253 5.90482 18.5703C7.13556 19.1153 8.46695 19.396 9.81297 19.3943V17.1743V17.1733Z" fill="url(#paint4_linear)"/>
<path d="M4.84279 4.3043L3.34679 2.6543C2.34762 3.55337 1.54891 4.65269 1.00258 5.88077C0.456246 7.10885 0.174542 8.43818 0.175785 9.7823H2.40179C2.40179 7.6123 3.34479 5.6573 4.84279 4.3043Z" fill="url(#paint5_linear)"/>
<path d="M55.5418 5.81202L58.1168 3.91902H49.5038V15.281H58.1168V13.391H51.9608V10.481H57.2118V8.58802H51.9608V5.81202H55.5418V5.81202ZM42.9998 8.35002H40.0088V5.81102H44.7848L47.3598 3.91802H37.5488V15.28H42.6818C45.5608 15.28 47.2108 13.98 47.2108 11.71C47.2108 9.54302 45.7148 8.34802 42.9998 8.34802V8.35002ZM42.5718 13.391H40.0098V10.242H42.5728C44.1328 10.242 44.8588 10.769 44.8588 11.818C44.8588 12.887 44.0888 13.391 42.5728 13.391H42.5718ZM65.0948 3.91902H60.4058V15.281H62.8628V12.062H65.0948C68.0888 12.062 69.9468 10.492 69.9468 7.98502C69.9468 5.47802 68.0868 3.91902 65.0948 3.91902V3.91902ZM65.0418 10.172H62.8628V5.81202H65.0418C66.6158 5.81202 67.4848 6.58602 67.4848 7.99302C67.4848 9.39802 66.6158 10.173 65.0418 10.173V10.172ZM33.3298 12.821C32.6998 13.169 31.9668 13.351 31.2078 13.351C28.9928 13.351 27.3818 11.772 27.3818 9.59902C27.3818 7.42602 28.9898 5.84702 31.2078 5.84702C32.0458 5.84702 32.7988 6.08302 33.4428 6.54602L35.2058 5.25002L35.0898 5.15002C34.0608 4.24602 32.6868 3.77002 31.1128 3.77002C29.4058 3.77002 27.8568 4.34402 26.7528 5.38502C25.6428 6.43302 25.0288 7.90802 25.0288 9.53802C25.0288 11.175 25.6388 12.67 26.7468 13.752C27.8568 14.835 29.4028 15.432 31.0958 15.432C32.8658 15.432 34.4158 14.815 35.4638 13.693C34.6538 13.099 33.8738 12.524 33.8738 12.524L33.3308 12.821H33.3298Z" fill="#21A038"/>
<path d="M36.078 23.467L32.418 29.501H31.394L27.656 23.551V32H25.623V20.648H28.193L31.965 26.826L35.704 20.648H38.11V32H36.078V23.467ZM48.171 27.083H42.937V30.131H48.953V31.996H40.904V20.645H48.773V22.509H42.937V25.218H48.171V27.083ZM58.931 22.51H53.241V31.996H51.21V20.645H58.932V22.509L58.931 22.51ZM69.384 31.996H67.222L66.134 29.304H60.916L59.843 31.996H57.779L62.3951 20.645H64.703L69.383 31.995L69.384 31.996ZM65.384 27.439L63.514 22.784L61.6441 27.439H65.384ZM84.8 23.466L81.14 29.5H80.117L76.378 23.55V31.998H74.346V20.648H76.916L80.688 26.825L84.426 20.648H86.833V31.998H84.8V23.466V23.466ZM99.87 31.996H97.71L96.618 29.304H91.401L90.327 31.996H88.264L92.88 20.645H95.188L99.871 31.995L99.87 31.996ZM95.873 27.439L94.004 22.784L92.134 27.439H95.874H95.873ZM103.351 28.462V32H101.318V20.648H105.105C106.904 20.648 108.208 20.97 109.015 21.612C109.822 22.254 110.227 23.216 110.227 24.489C110.227 25.819 109.794 26.814 108.925 27.473C108.059 28.132 106.786 28.463 105.105 28.463H103.351V28.462ZM103.351 22.509V26.595H105.254C106.207 26.595 106.924 26.43 107.399 26.102C107.877 25.771 108.113 25.218 108.113 24.439C108.113 23.738 107.891 23.239 107.447 22.947C107.002 22.655 106.283 22.509 105.285 22.509H103.351ZM114.337 31.996H112.305V20.645H114.337V25.412H116.043L119.701 20.645H122.172L117.831 26.045L122.872 31.995H120.271L116.142 27.083H114.337V31.996ZM131.587 27.083H126.353V30.131H132.369V31.996H124.32V20.645H132.189V22.509H126.353V25.218H131.587V27.083V27.083ZM143.078 22.51H139.241V31.996H137.208V22.509H133.436V20.645H143.075V22.509H143.078V22.51Z" fill="#632895"/>
</g>
<defs>
<linearGradient id="paint0_linear" x1="2.75987" y1="16.3012" x2="0.506869" y2="9.77025" gradientUnits="userSpaceOnUse">
<stop offset="0.144" stop-color="#F2E913"/>
<stop offset="0.304" stop-color="#E7E518"/>
<stop offset="0.582" stop-color="#CADB26"/>
<stop offset="0.891" stop-color="#A3CD39"/>
</linearGradient>
<linearGradient id="paint1_linear" x1="3.63405" y1="2.7372" x2="9.39905" y2="0.535198" gradientUnits="userSpaceOnUse">
<stop offset="0.059" stop-color="#0FA8E0"/>
<stop offset="0.538" stop-color="#0099F9"/>
<stop offset="0.923" stop-color="#0291EB"/>
</linearGradient>
<linearGradient id="paint2_linear" x1="9.18503" y1="17.5153" x2="16.053" y2="15.9593" gradientUnits="userSpaceOnUse">
<stop offset="0.123" stop-color="#A3CD39"/>
<stop offset="0.285" stop-color="#86C339"/>
<stop offset="0.869" stop-color="#21A038"/>
</linearGradient>
<linearGradient id="paint3_linear" x1="9.34701" y1="1.57843" x2="15.059" y2="3.34543" gradientUnits="userSpaceOnUse">
<stop offset="0.057" stop-color="#0291EB"/>
<stop offset="0.79" stop-color="#0C8ACB"/>
</linearGradient>
<linearGradient id="paint4_linear" x1="3.22597" y1="16.5883" x2="9.36197" y2="18.8863" gradientUnits="userSpaceOnUse">
<stop offset="0.132" stop-color="#F2E913"/>
<stop offset="0.298" stop-color="#EBE716"/>
<stop offset="0.531" stop-color="#D9E01F"/>
<stop offset="0.802" stop-color="#BBD62D"/>
<stop offset="0.983" stop-color="#A3CD39"/>
</linearGradient>
<linearGradient id="paint5_linear" x1="1.87579" y1="10.0513" x2="4.31278" y2="3.6983" gradientUnits="userSpaceOnUse">
<stop offset="0.07" stop-color="#A3CD39"/>
<stop offset="0.26" stop-color="#81C55F"/>
<stop offset="0.922" stop-color="#0FA8E0"/>
</linearGradient>
<clipPath id="clip0">
<rect width="143" height="36" fill="white"/>
</clipPath>
</defs>
</svg>
